{
.appVersion = "3151";
.formatVersion = 3;
DisplayStrings = (
"̋",
"◌"
);
customParameters = (
{
name = vendorID;
value = NITH;
},
{
name = fsType;
value = (
);
},
{
name = "Use Typo Metrics";
value = 1;
}
);
date = "2023-01-31 13:43:01 +0000";
familyName = "Konkhmer Sleokchher";
featurePrefixes = (
{
code = "lookup SUB_10 {
	sub uni17CA by uni17BB;
} SUB_10;
lookup SUB_11 {
	sub uni17C9 by uni17BB.b;
	sub uni17CA by uni17BB.b;
} SUB_11;
lookup SUB_12 {
	sub uni17C9 by uni17BB;
	sub uni17C9.r by uni17BB;
} SUB_12;
lookup SUB_13 {
	sub uni17D2_178A by uni17D2_178A.n;
	sub uni17D2_178B by uni17D2_178B.n;
	sub uni17D2_178C by uni17D2_178C.n;
	sub uni17D2_178F by uni17D2_178A.n;
	sub uni17D2_17A0 by uni17D2_17A0.n;
} SUB_13;
lookup SUB_14 {
	sub uni17BB by uni17BB.n;
	sub uni17BC by uni17BC.n;
	sub uni17BD by uni17BD.n;
} SUB_14;
lookup SUB_15 {
	sub uni17BB.b by uni17BB.n2;
	sub uni17BC.b by uni17BC.n2;
	sub uni17BD.b by uni17BD.n2;
} SUB_15;
lookup SUB_16 {
	sub uni17D2_178A by uni17D2_178A.r;
	sub uni17D2_178F by uni17D2_178A.r;
	sub uni17D2_1797 by uni17D2_1797.r;
	sub uni17D2_1798 by uni17D2_1798.r;
} SUB_16;
lookup SUB_17 {
	sub uni17D2_1789 by uni17D2_1789.a;
} SUB_17;
lookup SUB_2 {
	sub uni17B7 by uni17B7.r;
	sub uni17B7_17CD by uni17B7_17CD.r;
	sub uni17B8 by uni17B8.r;
	sub uni17B9 by uni17B9.r;
	sub uni17BA by uni17BA.r;
	sub uni17C6 by uni17C6.r;
	sub uni17C9 by uni17C9.r;
	sub uni17CD by uni17CD.r;
} SUB_2;
lookup SUB_3 {
	sub uni17BB by uni17BB.b;
	sub uni17BC by uni17BC.b;
	sub uni17BD by uni17BD.b;
} SUB_3;
lookup SUB_4 {
	sub uni17D2_1798 by uni17D2_1798.b;
	sub uni17D2_17A0 by uni17D2_17A0.b;
} SUB_4;
lookup SUB_5 {
	sub uni1794 by uni1794.a;
} SUB_5;
lookup SUB_6 {
	sub uni17D2_179A by uni17D2_179A.b;
} SUB_6;
lookup SUB_7 {
	sub uni17B7 by uni17B7.a;
	sub uni17B8 by uni17B8.a;
	sub uni17B9 by uni17B9.a;
	sub uni17BA by uni17BA.a;
	sub uni17BE by uni17B8.a;
	sub uni17C6 by uni17C6.a;
} SUB_7;
lookup SUB_8 {
	sub uni1789 by uni1789.a;
} SUB_8;

glyphs = (
{
color = 4;
glyphname = A;
kernLeft = A;
kernRight = A;
lastChange = "2023-01-31 11:13:53 +0000";
layers = (
{
anchors = (
{
name = _center;
pos = (765,745);
},
{
name = bottom;
pos = (765,0);
},
{
name = ogonek;
pos = (1482,0);
},
{
name = tonos;
pos = (474,1490);
},
{
name = top;
pos = (765,1676);
}
);
layerId = m01;
shapes = (
{
closed = 1;
nodes = (
(496,340,l),
(1034,340,l),
(1145,0,l),
(1482,0,l),
(968,1490,l),
(563,1490,l),
(48,0,l),
(386,0,l)
);
},
{
closed = 1;
nodes = (
(759,1150,l),
(771,1150,l),
(954,586,l),
(576,586,l)
);
}
);
width = 1530;
}
);
metricRight = "=|A";
unicode = 65;
userData = {
com.typemytype.robofont.guideline.magnetic.9EkLRXjahr = 5;
"interface.width-adjustments" = (
-16
);
};
},
{
color = 4;
glyphname = AE;
kernLeft = A;
kernRight = E;
lastChange = "2023-01-31 11:13:53 +0000";
layers = (
{
anchors = (
{
name = top;
pos = (1341,1676);
}
);
layerId = m01;
shapes = (
{
closed = 1;
nodes = (
(395,0,l),
(535,340,l),
(985,340,l),
(985,0,l),
(1991,0,l),
(1991,260,l),
(1300,260,l),
(1300,616,l),
(1937,616,l),
(1937,875,l),
(1300,875,l),
(1300,1230,l),
(1989,1230,l),
(1989,1490,l),
(686,1490,l),
(48,0,l)
);
},
{
closed = 1;
nodes = (
(881,1180,l),
(985,1180,l),
(985,586,l),
(636,586,l)
);
}
);
width = 2109;
}
);
metricLeft = A;
metricRight = E;
unicode = 198;
userData = {
interface.gridadjust.original = "{'width': 2647, 'leftMargin': -30, 'rightMargin': 45}";
"interface.width-adjustments" = (
-16
);
};
},
{
color = 4;
glyphname = B;
kernLeft = B;
kernRight = B;
lastChange = "2023-01-31 11:13:53 +0000";
layers = (
{
anchors = (
{
name = _center;
pos = (677,745);
},
{
name = bottom;
pos = (657,0);
},
{
name = cross;
pos = (287,456);
},
{
name = top;
pos = (655,1676);
},
{
name = topl;
pos = (130,1490);
}
);
layerId = m01;
shapes = (
{
closed = 1;
nodes = (
(766,0,ls),
(1101,0,o),
(1278,175,o),
(1278,412,cs),
(1278,632,o),
(1121,765,o),
(951,773,c),
(951,788,l),
(1106,822,o),
(1220,933,o),
(1220,1108,cs),
(1220,1331,o),
(1054,1490,o),
(726,1490,cs),
(130,1490,l),
(130,0,l)
);
},
{
closed = 1;
nodes = (
(444,257,l),
(444,654,l),
(709,654,ls),
(860,654,o),
(954,566,o),
(954,443,cs),
(954,331,o),
(877,257,o),
(701,257,cs)
);
},
{
closed = 1;
nodes = (
(444,866,l),
(444,1235,l),
(684,1235,ls),
(823,1235,o),
(902,1163,o),
(902,1056,cs),
(902,938,o),
(806,866,o),
(678,866,cs)
);
}
);
width = 1354;
}
);
metricLeft = H;
unicode = 66;
userData = {
com.typemytype.robofont.guideline.magnetic.olHMUUD5VH = 5;
com.typemytype.robofont.guideline.magnetic.rWKPWS6RQH = 5;
"interface.width-adjustments" = (
-16
);
};
},
{
color = 4;
glyphname = C;
kernLeft = C;
kernRight = C;
lastChange = "2023-01-31 11:13:53 +0000";
layers = (
{
anchors = (
{
name = _center;
pos = (797,745);
},
{
name = cedilla;
pos = (792,-1);
},
{
name = center;
pos = (794,745);
},
{
name = top;
pos = (797,1676);
},
{
name = topr;
pos = (1443,968);
}
);
layerId = m01;
shapes = (
{
closed = 1;
nodes = (
(1179,-20,o),
(1409,234,o),
(1443,509,c),
(1125,509,l),
(1096,350,o),
(970,258,o),
(803,258,cs),
(576,258,o),
(422,426,o),
(422,744,cs),
(422,1055,o),
(574,1232,o),
(804,1232,cs),
(976,1232,o),
(1101,1132,o),
(1125,968,c),
(1443,968,l),
(1403,1312,o),
(1142,1510,o),
(797,1510,cs),
(404,1510,o),
(103,1232,o),
(103,744,cs),
(103,259,o),
(399,-20,o),
(797,-20,cs)
);
}
);
width = 1540;
}
);
metricLeft = O;
unicode = 67;
userData = {
com.typemytype.robofont.guideline.magnetic.ju3ppiFr9V = 5;
"interface.width-adjustments" = (
-16
);
};
},
{
color = 4;
glyphname = D;
kernLeft = B;
kernRight = D;
lastChange = "2023-01-31 11:13:53 +0000";
layers = (
{
anchors = (
{
name = _center;
pos = (744,745);
},
{
name = bottom;
pos = (653,0);
},
{
name = cross;
pos = (286,780);
},
{
name = top;
pos = (603,1676);
},
{
name = topl;
pos = (130,1490);
}
);
layerId = m01;
shapes = (
{
closed = 1;
nodes = (
(1111,0,o),
(1386,280,o),
(1386,746,cs),
(1386,1210,o),
(1111,1490,o),
(662,1490,cs),
(130,1490,l),
(130,0,l),
(658,0,ls)
);
},
{
closed = 1;
nodes = (
(444,1220,l),
(644,1220,ls),
(925,1220,o),
(1073,1077,o),
(1073,746,cs),
(1073,413,o),
(925,270,o),
(644,270,cs),
(444,270,l)
);
}
);
width = 1489;
}
);
metricLeft = H;
metricRight = O;
note = "!post:RemoveOverlap";
unicode = 68;
userData = {
"interface.width-adjustments" = (
-16
);
};
},
{
glyphname = Dbar1;
kernLeft = B;
kernRight = D;
lastChange = "2023-01-31 11:13:53 +0000";
layers = (
{
anchors = (
{
name = bottom;
pos = (653,0);
},
{
name = cross;
pos = (286,780);
},
{
name = top;
pos = (603,1676);
},
{
name = topl;
pos = (130,1490);
}
);
layerId = m01;
shapes = (
{
closed = 1;
nodes = (
(1111,0,o),
(1386,280,o),
(1386,746,cs),
(1386,1210,o),
(1111,1490,o),
(662,1490,cs),
(130,1490,l),
(130,872,l),
(-77,872,l),
(-77,688,l),
(130,688,l),
(130,0,l),
(658,0,ls)
);
},
{
closed = 1;
nodes = (
(444,688,l),
(648,688,l),
(648,872,l),
(444,872,l),
(444,1220,l),
(644,1220,ls),
(925,1220,o),
(1073,1077,o),
(1073,746,cs),
(1073,413,o),
(925,270,o),
(644,270,cs),
(444,270,l)
);
}
);
width = 1489;
}
);
unicode = 393;
userData = {
interface.gridadjust.original = "{'width': 1953, 'leftMargin': 55, 'rightMargin': 184}";
"interface.width-adjustments" = (
-16
);
};
},
{
color = 4;
glyphname = E;
kernLeft = B;
kernRight = E;
lastChange = "2023-01-31 11:13:53 +0000";
layers = (
{
anchors = (
{
name = _center;
pos = (627,745);
},
{
name = bottom;
pos = (628,0);
},
{
name = cedilla;
pos = (630,0);
},
{
name = ogonek;
pos = (1136,0);
},
{
name = tonos;
pos = (87,1490);
},
{
name = top;
pos = (634,1676);
}
);
layerId = m01;
shapes = (
{
closed = 1;
nodes = (
(1136,0,l),
(1136,260,l),
(444,260,l),
(444,625,l),
(1081,625,l),
(1081,880,l),
(444,880,l),
(444,1230,l),
(1134,1230,l),
(1134,1490,l),
(130,1490,l),
(130,0,l)
);
}
);
width = 1254;
}
);
metricLeft = H;
unicode = 69;
userData = {
"interface.width-adjustments" = (
-16
);
};
},
{
color = 4;
glyphname = F;
kernLeft = B;
kernRight = F;
lastChange = "2023-01-31 11:13:53 +0000";
layers = (
{
anchors = (
{
name = _center;
pos = (599,745);
},
{
name = bottom;
pos = (608,0);
},
{
name = cross;
pos = (286,290);
},
{
name = lfthook;
pos = (130,0);
},
{
name = top;
pos = (632,1676);
}
);
layerId = m01;
shapes = (
{
closed = 1;
nodes = (
(444,0,l),
(444,566,l),
(1050,566,l),
(1050,821,l),
(444,821,l),
(444,1230,l),
(1116,1230,l),
(1116,1490,l),
(130,1490,l),
(130,0,l)
);
}
);
width = 1198;
}
);
metricLeft = H;
unicode = 70;
userData = {
"interface.width-adjustments" = (
-16
);
};
},
{
color = 4;
glyphname = G;
kernLeft = C;
kernRight = G;
lastChange = "2023-01-31 11:13:53 +0000";
layers = (
{
anchors = (
{
name = _center;
pos = (779,745);
},
{
name = bottom;
pos = (789,0);
},
{
name = cross;
pos = (1191,416);
},
{
name = top;
pos = (793,1676);
},
{
name = topr;
pos = (1437,1008);
}
);
layerId = m01;
shapes = (
{
closed = 1;
nodes = (
(1182,-20,o),
(1452,217,o),
(1452,609,cs),
(1452,797,l),
(828,797,l),
(828,560,l),
(1147,560,l),
(1143,375,o),
(1017,258,o),
(809,258,cs),
(572,258,o),
(422,435,o),
(422,746,cs),
(422,1056,o),
(577,1232,o),
(805,1232,cs),
(967,1232,o),
(1077,1148,o),
(1118,1008,c),
(1437,1008,l),
(1396,1303,o),
(1137,1510,o),
(800,1510,cs),
(406,1510,o),
(103,1226,o),
(103,743,cs),
(103,272,o),
(387,-20,o),
(806,-20,cs)
);
}
);
width = 1558;
}
);
metricLeft = O;
note = "C + hook segments";
unicode = 71;
userData = {
com.typemytype.robofont.guideline.magnetic.DBpTQJmUAf = 5;
com.typemytype.robofont.guideline.magnetic.Mdeh49HlEG = 5;
com.typemytype.robofont.guideline.magnetic.iFgX6ho5qJ = 5;
"interface.width-adjustments" = (
-16
);
};
},
{
color = 4;
glyphname = H;
kernLeft = B;
kernRight = H;
lastChange = "2023-01-31 11:13:53 +0000";
layers = (
{
anchors = (
{
name = _center;
pos = (764,745);
},
{
name = bottom;
pos = (763,0);
},
{
name = cedilla;
pos = (290,-1);
},
{
name = cyrtic;
pos = (1398,0);
},
{
name = lfthook;
pos = (1083,0);
},
{
name = right;
pos = (1398,0);
},
{
name = tonos;
pos = (96,1490);
},
{
name = top;
pos = (763,1676);
}
);
layerId = m01;
shapes = (
{
closed = 1;
nodes = (
(444,0,l),
(444,616,l),
(1083,616,l),
(1083,0,l),
(1398,0,l),
(1398,1490,l),
(1083,1490,l),
(1083,875,l),
(444,875,l),
(444,1490,l),
(130,1490,l),
(130,0,l)
);
}
);
width = 1527;
}
);
unicode = 72;
userData = {
"interface.width-adjustments" = (
-16
);
};
},
{
color = 4;
glyphname = Hbar;
kernLeft = B;
kernRight = H;
lastChange = "2023-01-31 11:13:53 +0000";
layers = (
{
layerId = m01;
shapes = (
{
closed = 1;
nodes = (
(73,1231,l),
(73,1055,l),
(1587,1055,l),
(1587,1231,l)
);
},
{
alignment = -1;
pos = (66,0);
ref = H;
}
);
width = 1660;
}
);
metricLeft = T;
metricRight = T;
unicode = 294;
userData = {
interface.gridadjust.original = "{'width': 1980.0, 'leftMargin': 43, 'rightMargin': 22.0}";
"interface.width-adjustments" = (
-16
);
};
},
{
color = 4;
glyphname = I;
kernLeft = B;
kernRight = H;
lastChange = "2023-01-31 11:13:53 +0000";
layers = (
{
anchors = (
{
name = _center;
pos = (287,745);
},
{
name = bottom;
pos = (286,0);
},
{
name = cross;
pos = (286,780);
},
{
name = ogonek;
pos = (444,0);
},
{
name = right;
pos = (466,0);
},
{
name = tonos;
pos = (130,1490);
},
{
name = top;
pos = (288,1676);
}
);
layerId = m01;
shapes = (
{
closed = 1;
nodes = (
(130,1490,l),
(130,0,l),
(444,0,l),
(444,1490,l)
);
}
);
width = 573;
}
);
metricLeft = H;
metricRight = H;
unicode = 73;
userData = {
"interface.width-adjustments" = (
-16
);
};
},
{
color = 4;
glyphname = J;
kernLeft = J;
kernRight = J;
lastChange = "2023-01-31 11:13:53 +0000";
layers = (
{
anchors = (
{
name = _center;
pos = (583,745);
},
{
name = cross;
pos = (878,884);
},
{
name = top;
pos = (881,1676);
}
);
layerId = m01;
shapes = (
{
closed = 1;
nodes = (
(846,-20,o),
(1037,162,o),
(1037,450,cs),
(1037,1490,l),
(726,1490,l),
(726,450,ls),
(726,307,o),
(661,232,o),
(544,232,cs),
(434,232,o),
(362,301,o),
(362,420,cs),
(362,437,l),
(48,437,l),
(48,420,ls),
(48,121,o),
(275,-20,o),
(544,-20,cs)
);
}
);
width = 1166;
}
);
metricRight = H;
unicode = 74;
},
{
color = 4;
glyphname = K;
kernLeft = B;
kernRight = K;
lastChange = "2023-01-31 11:13:53 +0000";
layers = (
{
anchors = (
{
name = _center;
pos = (706,745);
},
{
name = bottom;
pos = (701,1);
},
{
name = top;
pos = (704,1676);
}
);
layerId = m01;
shapes = (
{
closed = 1;
nodes = (
(444,0,l),
(444,423,l),
(599,612,l),
(1006,0,l),
(1384,0,l),
(825,823,l),
(1377,1490,l),
(1000,1490,l),
(463,833,l),
(444,833,l),
(444,1490,l),
(130,1490,l),
(130,0,l)
);
}
);
width = 1413;
}
);
metricLeft = H;
unicode = 75;
userData = {
com.typemytype.robofont.guideline.magnetic.bB6GeEoQ3O = 5;
"interface.width-adjustments" = (
-16
);
};
},
{
color = 4;
glyphname = L;
kernLeft = B;
kernRight = L;
lastChange = "2023-01-31 11:13:53 +0000";
layers = (
{
anchors = (
{
name = _center;
pos = (581,745);
},
{
name = bottom;
pos = (606,0);
},
{
name = cross;
pos = (286,780);
},
{
name = dot;
pos = (606,841);
},
{
name = raccent;
pos = (668,1490);
},
{
name = top;
pos = (284,1676);
}
);
layerId = m01;
shapes = (
{
closed = 1;
nodes = (
(1083,0,l),
(1083,260,l),
(444,260,l),
(444,1490,l),
(130,1490,l),
(130,0,l)
);
}
);
width = 1163;
}
);
metricLeft = H;
unicode = 76;
userData = {
"interface.width-adjustments" = (
-16
);
};
},
{
color = 4;
glyphname = M;
kernLeft = B;
kernRight = H;
lastChange = "2023-01-31 11:13:53 +0000";
layers = (
{
anchors = (
{
name = _center;
pos = (938,745);
},
{
name = bottom;
pos = (936,0);
},
{
name = cyrtic;
pos = (1747,0);
},
{
name = top;
pos = (936,1676);
}
);
layerId = m01;
shapes = (
{
closed = 1;
nodes = (
(130,0,l),
(435,0,l),
(435,972,l),
(448,972,l),
(831,7,l),
(1040,7,l),
(1427,970,l),
(1438,970,l),
(1438,0,l),
(1747,0,l),
(1747,1490,l),
(1356,1490,l),
(945,489,l),
(928,489,l),
(518,1490,l),
(130,1490,l)
);
}
);
width = 1876;
}
);
metricLeft = H;
metricRight = H;
unicode = 77;
userData = {
com.typemytype.robofont.guideline.magnetic.ezYETy42tZ = 5;
com.typemytype.robofont.guideline.magnetic.wu5HJlZVk6 = 5;
com.typemytype.robofont.guideline.magnetic.x5YoYrsuLC = 5;
"interface.width-adjustments" = (
-16
);
};
},
{
color = 4;
glyphname = N;
kernLeft = B;
kernRight = H;
lastChange = "2023-01-31 11:13:53 +0000";
layers = (
{
anchors = (
{
name = _center;
pos = (753,745);
},
{
name = bottom;
pos = (753,0);
},
{
name = lfthook;
pos = (130,0);
},
{
name = lfthook2;
pos = (1376,0);
},
{
name = top;
pos = (753,1676);
}
);
layerId = m01;
shapes = (
{
closed = 1;
nodes = (
(1062,1490,l),
(1062,553,l),
(1049,553,l),
(406,1490,l),
(130,1490,l),
(130,0,l),
(444,0,l),
(444,937,l),
(456,937,l),
(1103,0,l),
(1376,0,l),
(1376,1490,l)
);
}
);
width = 1505;
}
);
metricLeft = H;
metricRight = H;
unicode = 78;
userData = {
"interface.width-adjustments" = (
-16
);
};
},
{
color = 4;
glyphname = O;
kernLeft = C;
kernRight = D;
lastChange = "2023-01-31 11:13:53 +0000";
layers = (
{
anchors = (
{
name = _center;
pos = (800,745);
},
{
name = bottom;
pos = (801,0);
},
{
name = ogonek;
pos = (1498,744);
},
{
name = tonos;
pos = (182,1490);
},
{
name = top;
pos = (801,1676);
},
{
name = tophorn;
pos = (801,1510);
}
);
layerId = m01;
shapes = (
{
closed = 1;
nodes = (
(1196,-20,o),
(1498,257,o),
(1498,744,cs),
(1498,1232,o),
(1196,1510,o),
(801,1510,cs),
(404,1510,o),
(103,1232,o),
(103,744,cs),
(103,259,o),
(404,-20,o),
(801,-20,cs)
);
},
{
closed = 1;
nodes = (
(422,1060,o),
(572,1232,o),
(801,1232,cs),
(1029,1232,o),
(1179,1060,o),
(1179,744,cs),
(1179,429,o),
(1029,258,o),
(801,258,cs),
(572,258,o),
(422,429,o),
(422,744,cs)
);
}
);
width = 1601;
}
);
unicode = 79;
userData = {
com.typemytype.robofont.guideline.magnetic.GU6fgH972W = 5;
"interface.width-adjustments" = (
-16
);
};
},
{
color = 4;
glyphname = Oslash;
kernLeft = C;
kernRight = D;
lastChange = "2023-01-31 11:13:53 +0000";
layers = (
{
layerId = m01;
shapes = (
{
alignment = -1;
ref = O;
},
{
closed = 1;
nodes = (
(1404,1461,l),
(1263,1559,l),
(196,25,l),
(337,-72,l)
);
}
);
width = 1601;
}
);
metricLeft = O;
metricRight = O;
unicode = 216;
userData = {
com.typemytype.robofont.guideline.magnetic.7eFhkhwEhv = 5;
com.typemytype.robofont.guideline.magnetic.bDBaZ7HKjd = 5;
com.typemytype.robofont.guideline.magnetic.rquz9RFtyk = 5;
"interface.width-adjustments" = (
-16
);
};
},
{
color = 4;
glyphname = OE;
kernLeft = C;
kernRight = E;
lastChange = "2023-01-31 11:13:53 +0000";
layers = (
{
layerId = m01;
shapes = (
{
alignment = -1;
pos = (850,0);
ref = E;
},
{
closed = 1;
nodes = (
(1151,0,l),
(1151,270,l),
(820,270,ls),
(571,270,o),
(416,418,o),
(416,744,cs),
(416,1072,o),
(571,1220,o),
(827,1220,cs),
(1154,1220,l),
(1154,1490,l),
(814,1490,ls),
(381,1489,o),
(102,1203,o),
(103,744,cs),
(102,287,o),
(381,0,o),
(810,0,cs)
);
}
);
width = 2104;
}
);
metricLeft = O;
metricRight = E;
note = "Mirrored D + E";
unicode = 338;
userData = {
interface.gridadjust.original = "{'width': 2698, 'leftMargin': 143, 'rightMargin': 191}";
"interface.width-adjustments" = (
-16
);
};
},
{
color = 4;
glyphname = P;
kernLeft = B;
kernRight = P;
lastChange = "2023-01-31 11:13:53 +0000";
layers = (
{
anchors = (
{
name = _center;
pos = (663,745);
},
{
name = tonos;
pos = (104,1490);
},
{
name = top;
pos = (654,1676);
},
{
name = topl;
pos = (130,1490);
}
);
layerId = m01;
shapes = (
{
closed = 1;
nodes = (
(444,0,l),
(444,483,l),
(709,483,ls),
(1052,483,o),
(1251,687,o),
(1251,984,cs),
(1251,1280,o),
(1055,1490,o),
(716,1490,cs),
(130,1490,l),
(130,0,l)
);
},
{
closed = 1;
nodes = (
(444,1232,l),
(656,1232,ls),
(839,1232,o),
(927,1133,o),
(927,984,cs),
(927,837,o),
(839,735,o),
(657,735,cs),
(444,735,l)
);
}
);
width = 1326;
}
);
metricLeft = H;
unicode = 80;
userData = {
com.typemytype.robofont.guideline.magnetic.fNIC4eKo9v = 5;
com.typemytype.robofont.guideline.magnetic.hdLF6WxJ6g = 5;
"interface.width-adjustments" = (
-16
);
};
},
{
color = 4;
glyphname = Thorn;
kernLeft = B;
lastChange = "2023-01-31 11:13:53 +0000";
layers = (
{
layerId = m01;
shapes = (
{
closed = 1;
nodes = (
(126,0,l),
(442,0,l),
(442,307,l),
(660,307,ls),
(1019,307,o),
(1216,499,o),
(1216,761,cs),
(1216,1022,o),
(1019,1216,o),
(660,1217,cs),
(442,1217,l),
(442,1490,l),
(126,1490,l)
);
},
{
closed = 1;
nodes = (
(442,973,l),
(660,973,ls),
(839,972,o),
(915,874,o),
(916,757,cs),
(915,643,o),
(839,549,o),
(660,548,cs),
(442,548,l)
);
}
);
width = 1374;
}
);
unicode = 222;
userData = {
interface.gridadjust.original = "{'width': 1662, 'leftMargin': 224, 'rightMargin': 119}";
"interface.width-adjustments" = (
-16
);
};
},
{
color = 4;
glyphname = Q;
kernLeft = C;
kernRight = D;
lastChange = "2023-01-31 11:13:53 +0000";
layers = (
{
anchors = (
{
name = _center;
pos = (802,694);
}
);
layerId = m01;
shapes = (
{
closed = 1;
nodes = (
(922,214,l),
(1010,89,l),
(1182,-122,l),
(1476,-122,l),
(1226,191,l),
(1094,345,l),
(960,518,l),
(692,518,l)
);
},
{
alignment = -1;
ref = O;
}
);
width = 1601;
}
);
metricLeft = O;
metricRight = O;
unicode = 81;
userData = {
"interface.width-adjustments" = (
-16
);
};
},
{
color = 4;
glyphname = R;
kernLeft = B;
kernRight = R;
lastChange = "2023-01-31 11:13:53 +0000";
layers = (
{
anchors = (
{
name = _center;
pos = (672,745);
},
{
name = bottom;
pos = (688,0);
},
{
name = top;
pos = (663,1676);
}
);
layerId = m01;
shapes = (
{
closed = 1;
nodes = (
(444,0,l),
(444,528,l),
(674,528,l),
(956,0,l),
(1304,0,l),
(988,579,l),
(1157,651,o),
(1251,799,o),
(1251,1003,cs),
(1251,1298,o),
(1055,1490,o),
(716,1490,cs),
(130,1490,l),
(130,0,l)
);
},
{
closed = 1;
nodes = (
(444,1232,l),
(656,1232,ls),
(839,1232,o),
(927,1151,o),
(927,1003,cs),
(927,855,o),
(839,781,o),
(657,781,cs),
(444,781,l)
);
}
);
width = 1345;
}
);
metricLeft = H;
unicode = 82;
userData = {
com.typemytype.robofont.guideline.magnetic.vulxOItvKZ = 5;
"interface.width-adjustments" = (
-16
);
};
},
{
color = 4;
glyphname = S;
kernLeft = S;
kernRight = S;
lastChange = "2023-01-31 11:13:53 +0000";
layers = (
{
anchors = (
{
name = _center;
pos = (670,745);
},
{
name = bottom;
pos = (676,-10);
},
{
name = cedilla;
pos = (673,0);
},
{
name = top;
pos = (671,1676);
}
);
layerId = m01;
shapes = (
{
closed = 1;
nodes = (
(1045,-21,o),
(1260,152,o),
(1260,426,cs),
(1260,673,o),
(1071,804,o),
(812,863,cs),
(679,896,ls),
(550,926,o),
(444,973,o),
(444,1079,cs),
(444,1176,o),
(529,1247,o),
(683,1247,cs),
(834,1247,o),
(925,1178,o),
(936,1062,c),
(1240,1062,l),
(1235,1326,o),
(1017,1510,o),
(685,1510,cs),
(359,1510,o),
(121,1329,o),
(121,1059,cs),
(121,839,o),
(275,712,o),
(526,652,cs),
(689,612,ls),
(851,573,o),
(943,527,o),
(943,427,cs),
(943,317,o),
(838,243,o),
(678,243,cs),
(514,243,o),
(396,318,o),
(386,468,c),
(81,468,l),
(90,146,o),
(321,-21,o),
(682,-21,cs)
);
}
);
width = 1341;
}
);
note = "recipe: use stroke + offset curve filter with 32, no autostroke";
unicode = 83;
userData = {
com.typemytype.robofont.guideline.magnetic.yXeOBXqbc8 = 5;
"interface.width-adjustments" = (
-16
);
};
},
{
color = 4;
glyphname = Germandbls;
kernLeft = B;
kernRight = S;
lastChange = "2023-01-31 11:13:53 +0000";
layers = (
{
layerId = m01;
shapes = (
{
closed = 1;
nodes = (
(444,0,l),
(444,980,ls),
(444,1140,o),
(506,1261,o),
(660,1261,cs),
(769,1261,o),
(863,1220,o),
(929,1170,c),
(657,859,l),
(657,671,l),
(795,671,ls),
(916,671,o),
(1080,622,o),
(1080,433,cs),
(1080,305,o),
(989,228,o),
(835,228,cs),
(759,228,o),
(680,248,o),
(614,275,c),
(528,40,l),
(621,2,o),
(747,-20,o),
(857,-20,cs),
(1166,-20,o),
(1387,156,o),
(1387,431,cs),
(1387,660,o),
(1226,831,o),
(975,863,c),
(1307,1252,l),
(1121,1400,o),
(872,1510,o),
(657,1510,cs),
(334,1510,o),
(130,1307,o),
(130,980,cs),
(130,0,l)
);
}
);
width = 1468;
}
);
metricLeft = B;
metricRight = S;
unicode = 7838;
userData = {
interface.gridadjust.original = "{'width': 1819, 'leftMargin': 188, 'rightMargin': 122}";
"interface.width-adjustments" = (
-16
);
};
},
{
color = 4;
glyphname = T;
kernLeft = T;
kernRight = T;
lastChange = "2023-01-31 11:13:53 +0000";
layers = (
{
anchors = (
{
name = _center;
pos = (685,745);
},
{
name = bottom;
pos = (685,0);
},
{
name = bottomr;
pos = (842,0);
},
{
name = cedilla;
pos = (690,0);
},
{
name = cross;
pos = (685,707);
},
{
name = cyrtic;
pos = (842,0);
},
{
name = right;
pos = (793,0);
},
{
name = top;
pos = (685,1676);
}
);
layerId = m01;
shapes = (
{
closed = 1;
nodes = (
(528,1230,l),
(528,0,l),
(842,0,l),
(842,1230,l),
(1296,1230,l),
(1296,1490,l),
(73,1490,l),
(73,1230,l)
);
}
);
width = 1369;
}
);
unicode = 84;
userData = {
"interface.width-adjustments" = (
-16
);
};
},
{
color = 4;
glyphname = U;
kernLeft = U;
kernRight = J;
lastChange = "2023-01-31 11:13:53 +0000";
layers = (
{
anchors = (
{
name = _center;
pos = (747,745);
},
{
name = bottom;
pos = (747,5);
},
{
name = ogonek;
pos = (1364,523);
},
{
name = right;
pos = (857,0);
},
{
name = rtophorn;
pos = (1050,1490);
},
{
name = top;
pos = (747,1676);
}
);
layerId = m01;
shapes = (
{
closed = 1;
nodes = (
(1050,550,ls),
(1050,379,o),
(930,257,o),
(747,257,cs),
(564,257,o),
(444,379,o),
(444,550,cs),
(444,1490,l),
(130,1490,l),
(130,524,ls),
(130,197,o),
(375,-20,o),
(747,-20,cs),
(1117,-20,o),
(1364,197,o),
(1364,524,cs),
(1364,1490,l),
(1050,1490,l)
);
}
);
width = 1493;
}
);
metricLeft = H;
metricRight = H;
unicode = 85;
userData = {
com.typemytype.robofont.guideline.magnetic.icXM2D4lH7 = 5;
"interface.width-adjustments" = (
-16
);
};
},
{
color = 4;
glyphname = V;
kernLeft = V;
kernRight = V;
lastChange = "2023-01-31 11:13:53 +0000";
layers = (
{
anchors = (
{
name = _center;
pos = (765,745);
},
{
name = bottom;
pos = (765,0);
},
{
name = top;
pos = (765,1676);
}
);
layerId = m01;
shapes = (
{
closed = 1;
nodes = (
(48,1490,l),
(563,0,l),
(968,0,l),
(1482,1490,l),
(1133,1490,l),
(773,358,l),
(758,358,l),
(399,1490,l)
);
}
);
width = 1530;
}
);
metricLeft = A;
metricRight = A;
unicode = 86;
userData = {
com.typemytype.robofont.guideline.magnetic.IJvllllLzF = 5;
com.typemytype.robofont.guideline.magnetic.KeOP4W9VuQ = 5;
com.typemytype.robofont.guideline.magnetic.yHrbtxZ5FX = 5;
"interface.width-adjustments" = (
-16
);
};
},
{
color = 4;
glyphname = W;
kernLeft = W;
kernRight = W;
lastChange = "2023-01-31 11:13:53 +0000";
layers = (
{
anchors = (
{
name = _center;
pos = (1058,745);
},
{
name = bottom;
pos = (1058,5);
},
{
name = top;
pos = (1058,1676);
}
);
layerId = m01;
shapes = (
{
closed = 1;
nodes = (
(770,0,l),
(1052,974,l),
(1064,974,l),
(1347,0,l),
(1654,0,l),
(2081,1490,l),
(1736,1490,l),
(1490,452,l),
(1476,452,l),
(1206,1490,l),
(911,1490,l),
(640,455,l),
(627,455,l),
(380,1490,l),
(36,1490,l),
(462,0,l)
);
}
);
width = 2117;
}
);
unicode = 87;
userData = {
com.typemytype.robofont.guideline.magnetic.8gZT6dIVxI = 5;
com.typemytype.robofont.guideline.magnetic.ZoWqubfLj9 = 5;
com.typemytype.robofont.guideline.magnetic.k6chDe7LUI = 5;
com.typemytype.robofont.guideline.magnetic.tUpIEqa0MC = 5;
"interface.width-adjustments" = (
-16
);
};
},
{
color = 4;
glyphname = X;
kernLeft = X;
kernRight = X;
lastChange = "2023-01-31 11:13:53 +0000";
layers = (
{
anchors = (
{
name = _center;
pos = (731,745);
},
{
name = bottom;
pos = (731,1);
},
{
name = cross;
pos = (731,744);
},
{
name = cyrtic;
pos = (1365,0);
},
{
name = top;
pos = (731,1676);
}
);
layerId = m01;
shapes = (
{
closed = 1;
nodes = (
(68,1490,l),
(525,744,l),
(60,0,l),
(419,0,l),
(725,508,l),
(737,508,l),
(1042,0,l),
(1405,0,l),
(940,744,l),
(1394,1490,l),
(1038,1490,l),
(737,982,l),
(725,982,l),
(425,1490,l)
);
}
);
width = 1465;
}
);
metricRight = "=|X";
note = "recipe: offset curve 32, no auto";
unicode = 88;
userData = {
com.typemytype.robofont.guideline.magnetic.1jwe8yH4eD = 5;
com.typemytype.robofont.guideline.magnetic.AJAcp0DKEy = 5;
com.typemytype.robofont.guideline.magnetic.QFtArEHSdm = 5;
com.typemytype.robofont.guideline.magnetic.TR4vAYYyfi = 5;
com.typemytype.robofont.guideline.magnetic.nnmV4p3je2 = 5;
"interface.width-adjustments" = (
-16
);
};
},
{
color = 4;
glyphname = Y;
kernLeft = Y;
kernRight = Y;
lastChange = "2023-01-31 11:13:53 +0000";
layers = (
{
anchors = (
{
name = _center;
pos = (742,745);
},
{
name = bottom;
pos = (741,0);
},
{
name = cross;
pos = (741,571);
},
{
name = ogonek;
pos = (898,0);
},
{
name = tonos;
pos = (-43,1490);
},
{
name = top;
pos = (741,1676);
}
);
layerId = m01;
shapes = (
{
closed = 1;
nodes = (
(585,526,l),
(585,0,l),
(898,0,l),
(898,526,l),
(1442,1490,l),
(1089,1490,l),
(749,848,l),
(734,848,l),
(395,1490,l),
(41,1490,l)
);
}
);
width = 1484;
}
);
unicode = 89;
userData = {
com.typemytype.robofont.guideline.magnetic.KceIXUepDd = 5;
com.typemytype.robofont.guideline.magnetic.TWkdg41wEI = 5;
com.typemytype.robofont.guideline.magnetic.o5DXjGQkF9 = 5;
"interface.width-adjustments" = (
-16
);
};
},
{
color = 4;
glyphname = Z;
kernLeft = Z;
kernRight = Z;
lastChange = "2023-01-31 11:13:53 +0000";
layers = (
{
anchors = (
{
name = _center;
pos = (683,745);
},
{
name = bottom;
pos = (681,0);
},
{
name = bottomr;
pos = (1254,0);
},
{
name = cross;
pos = (707,780);
},
{
name = top;
pos = (686,1676);
}
);
layerId = m01;
shapes = (
{
closed = 1;
nodes = (
(1254,0,l),
(1254,260,l),
(508,260,l),
(1252,1303,l),
(1252,1490,l),
(111,1490,l),
(111,1230,l),
(857,1230,l),
(113,186,l),
(113,0,l)
);
}
);
width = 1365;
}
);
unicode = 90;
userData = {
com.typemytype.robofont.guideline.magnetic.7L9fK9Z9Br = 5;
com.typemytype.robofont.guideline.magnetic.DPCAFAyemJ = 5;
com.typemytype.robofont.guideline.magnetic.VxRM18zW9m = 5;
"interface.width-adjustments" = (
-16
);
};
},
{
color = 4;
glyphname = a;
kernLeft = a;
kernRight = a;
lastChange = "2023-01-31 11:13:53 +0000";
layers = (
{
anchors = (
{
name = bottom;
pos = (596,0);
},
{
name = ogonek;
pos = (1071,0);
},
{
name = rhalfring;
pos = (609,1304);
},
{
name = top;
pos = (608,1304);
}
);
layerId = m01;
shapes = (
{
closed = 1;
nodes = (
(608,-21,o),
(714,51,o),
(769,156,c),
(778,156,l),
(778,0,l),
(1071,0,l),
(1071,754,ls),
(1071,1020,o),
(840,1132,o),
(592,1132,cs),
(337,1132,o),
(157,1017,o),
(104,823,c),
(386,778,l),
(409,852,o),
(480,906,o),
(591,906,cs),
(701,906,o),
(762,853,o),
(762,761,cs),
(762,756,ls),
(762,684,o),
(685,675,o),
(491,657,cs),
(270,636,o),
(72,561,o),
(72,312,cs),
(72,91,o),
(229,-21,o),
(443,-21,cs)
);
},
{
closed = 1;
nodes = (
(367,409,o),
(439,452,o),
(549,468,cs),
(616,477,o),
(727,493,o),
(764,518,c),
(764,399,ls),
(764,282,o),
(667,193,o),
(531,193,cs),
(436,193,o),
(367,237,o),
(367,322,cs)
);
}
);
width = 1195;
}
);
metricRight = n;
unicode = 97;
userData = {
com.typemytype.robofont.guideline.magnetic.bPqRSFRUb5 = 5;
"interface.width-adjustments" = (
-16
);
};
},
{
color = 4;
glyphname = ae;
kernLeft = a;
kernRight = e;
lastChange = "2023-01-31 11:13:53 +0000";
layers = (
{
anchors = (
{
name = top;
pos = (919,1304);
}
);
layerId = m01;
shapes = (
{
closed = 1;
nodes = (
(1552,-22,o),
(1742,113,o),
(1785,319,c),
(1499,338,l),
(1468,254,o),
(1388,209,o),
(1284,209,cs),
(1130,209,o),
(1032,312,o),
(1032,478,cs),
(1032,480,l),
(1792,480,l),
(1792,564,ls),
(1792,944,o),
(1563,1132,o),
(1268,1132,cs),
(1123,1132,o),
(1008,1086,o),
(921,987,c),
(855,1096,o),
(725,1132,o),
(602,1132,cs),
(327,1132,o),
(154,1003,o),
(111,800,c),
(397,777,l),
(417,851,o),
(486,906,o),
(596,906,cs),
(701,906,o),
(761,853,o),
(761,761,cs),
(761,756,ls),
(761,685,o),
(686,676,o),
(491,657,cs),
(271,636,o),
(72,561,o),
(72,312,cs),
(72,92,o),
(229,-21,o),
(460,-21,cs),
(650,-21,o),
(824,58,o),
(884,182,c),
(892,182,l),
(965,51,o),
(1116,-22,o),
(1298,-22,cs)
);
},
{
closed = 1;
nodes = (
(367,409,o),
(439,452,o),
(549,468,cs),
(616,477,o),
(726,493,o),
(764,518,c),
(764,399,ls),
(764,282,o),
(667,193,o),
(531,193,cs),
(436,193,o),
(367,237,o),
(367,322,cs)
);
},
{
closed = 1;
nodes = (
(1039,798,o),
(1135,901,o),
(1273,901,cs),
(1406,901,o),
(1499,805,o),
(1501,671,c),
(1032,671,l)
);
}
);
width = 1871;
}
);
metricLeft = a;
metricRight = e;
unicode = 230;
userData = {
com.typemytype.robofont.guideline.magnetic.47oKtqvLS5 = 5;
interface.gridadjust.original = "{'width': 2377, 'leftMargin': 106, 'rightMargin': 93}";
"interface.width-adjustments" = (
-16
);
};
},
{
color = 4;
glyphname = b;
kernLeft = B;
kernRight = o;
lastChange = "2023-01-31 11:13:53 +0000";
layers = (
{
anchors = (
{
name = bottom;
pos = (649,0);
},
{
name = cross;
pos = (362,1304);
},
{
name = top;
pos = (768,1304);
},
{
name = topbar;
pos = (124,1490);
}
);
layerId = m01;
shapes = (
{
closed = 1;
nodes = (
(1015,-18,o),
(1213,184,o),
(1213,557,cs),
(1213,941,o),
(1006,1132,o),
(761,1132,cs),
(574,1132,o),
(484,1021,o),
(443,929,c),
(434,929,l),
(434,1490,l),
(124,1490,l),
(124,0,l),
(429,0,l),
(429,179,l),
(443,179,l),
(486,86,o),
(579,-18,o),
(759,-18,cs)
);
},
{
closed = 1;
nodes = (
(427,758,o),
(512,886,o),
(662,886,cs),
(815,886,o),
(896,752,o),
(896,558,cs),
(896,364,o),
(814,228,o),
(662,228,cs),
(513,228,o),
(427,360,o),
(427,558,cs)
);
}
);
width = 1292;
}
);
metricLeft = l;
metricRight = o;
note = "== p with vertical stem raised.\012Top anchor should match top anchor of i";
unicode = 98;
userData = {
"interface.width-adjustments" = (
-16
);
};
},
{
color = 4;
glyphname = c;
kernLeft = o;
kernRight = o;
lastChange = "2023-01-31 11:13:53 +0000";
layers = (
{
anchors = (
{
name = cedilla;
pos = (628,0);
},
{
name = center;
pos = (628,559);
},
{
name = top;
pos = (628,1304);
},
{
name = topr;
pos = (1127,704);
}
);
layerId = m01;
shapes = (
{
closed = 1;
nodes = (
(926,-22,o),
(1113,153,o),
(1127,410,c),
(835,410,l),
(817,290,o),
(738,220,o),
(632,220,cs),
(487,220,o),
(394,345,o),
(394,558,cs),
(394,770,o),
(488,890,o),
(632,890,cs),
(746,890,o),
(818,815,o),
(835,704,c),
(1127,704,l),
(1114,963,o),
(919,1132,o),
(627,1132,cs),
(288,1132,o),
(79,897,o),
(79,554,cs),
(79,214,o),
(284,-22,o),
(628,-22,cs)
);
}
);
width = 1203;
}
);
metricLeft = o;
unicode = 99;
userData = {
com.typemytype.robofont.guideline.magnetic.woLfa0Gzpt = 5;
"interface.width-adjustments" = (
-16
);
};
},
{
color = 4;
glyphname = eth;
kernLeft = o;
kernRight = o;
lastChange = "2023-01-31 11:13:53 +0000";
layers = (
{
layerId = m01;
shapes = (
{
closed = 1;
nodes = (
(932,1543,l),
(667,1408,l),
(549,1484,o),
(418,1539,o),
(286,1571,c),
(255,1406,l),
(326,1377,o),
(394,1342,o),
(458,1302,c),
(250,1196,l),
(270,1055,l),
(581,1214,l),
(695,1122,o),
(786,1014,o),
(838,901,c),
(822,901,l),
(764,971,o),
(668,1034,o),
(532,1035,cs),
(263,1034,o),
(79,808,o),
(79,512,cs),
(79,194,o),
(290,-23,o),
(610,-24,cs),
(942,-23,o),
(1149,209,o),
(1149,572,cs),
(1149,887,o),
(1001,1142,o),
(788,1319,c),
(952,1403,l)
);
},
{
closed = 1;
nodes = (
(374,710,o),
(455,840,o),
(617,840,cs),
(785,840,o),
(862,698,o),
(862,525,cs),
(862,339,o),
(772,214,o),
(617,214,cs),
(457,214,o),
(374,348,o),
(374,530,cs)
);
}
);
width = 1228;
}
);
metricLeft = o;
metricRight = o;
unicode = 240;
userData = {
interface.gridadjust.original = "{'width': 1654, 'leftMargin': 166, 'rightMargin': 179}";
"interface.width-adjustments" = (
-16
);
};
},
{
color = 4;
glyphname = e;
kernLeft = o;
kernRight = o;
lastChange = "2023-01-31 11:13:53 +0000";
layers = (
{
anchors = (
{
name = bottom;
pos = (613,0);
},
{
name = cedilla;
pos = (618,0);
},
{
name = ogonek;
pos = (1136,319);
},
{
name = top;
pos = (613,1304);
}
);
layerId = m01;
shapes = (
{
closed = 1;
nodes = (
(909,-22,o),
(1092,113,o),
(1136,319,c),
(850,338,l),
(818,254,o),
(741,209,o),
(638,209,cs),
(490,209,o),
(391,310,o),
(384,480,c),
(1146,480,l),
(1146,564,ls),
(1146,944,o),
(914,1132,o),
(618,1132,cs),
(290,1132,o),
(79,898,o),
(79,554,cs),
(79,199,o),
(289,-22,o),
(633,-22,cs)
);
},
{
closed = 1;
nodes = (
(399,806,o),
(482,901,o),
(621,901,cs),
(758,901,o),
(834,812,o),
(849,671,c),
(386,671,l)
);
}
);
width = 1225;
}
);
metricLeft = o;
metricRight = o;
unicode = 101;
userData = {
com.typemytype.robofont.guideline.magnetic.5XWlAkuiPv = 5;
"interface.width-adjustments" = (
-16
);
};
},
{
color = 4;
glyphname = f;
kernLeft = f;
kernRight = f;
lastChange = "2023-01-31 11:13:53 +0000";
layers = (
{
anchors = (
{
name = bottom;
pos = (351,0);
}
);
layerId = m01;
shapes = (
{
alignment = -1;
pos = (-6,0);
ref = longs;
},
{
closed = 1;
nodes = (
(40,1118,l),
(40,884,l),
(728,884,l),
(728,1118,l)
);
}
);
width = 794;
}
);
unicode = 102;
userData = {
"interface.width-adjustments" = (
-16
);
};
},
{
color = 4;
glyphname = g;
kernLeft = o;
kernRight = g;
lastChange = "2023-01-31 11:13:53 +0000";
layers = (
{
anchors = (
{
name = bottom;
pos = (630,-426);
},
{
name = cross;
pos = (1016,566);
},
{
name = top;
pos = (651,1304);
},
{
name = topr;
pos = (1170,1118);
}
);
layerId = m01;
shapes = (
{
closed = 1;
nodes = (
(944,-442,o),
(1170,-297,o),
(1170,-12,cs),
(1170,1118,l),
(866,1118,l),
(866,929,l),
(854,929,l),
(812,1021,o),
(719,1132,o),
(533,1132,cs),
(287,1132,o),
(79,941,o),
(79,560,cs),
(79,189,o),
(282,16,o),
(532,16,cs),
(711,16,o),
(811,105,o),
(851,198,c),
(865,198,l),
(865,-7,ls),
(865,-160,o),
(766,-219,o),
(632,-219,cs),
(495,-219,o),
(426,-160,o),
(401,-92,c),
(115,-130,l),
(151,-307,o),
(324,-442,o),
(625,-442,cs)
);
},
{
closed = 1;
nodes = (
(396,752,o),
(478,886,o),
(631,886,cs),
(781,886,o),
(866,758,o),
(866,562,cs),
(866,366,o),
(780,249,o),
(631,249,cs),
(479,249,o),
(396,370,o),
(396,562,cs)
);
}
);
width = 1294;
}
);
metricLeft = d;
metricRight = l;
unicode = 103;
userData = {
"interface.width-adjustments" = (
-16
);
};
},
{
color = 4;
glyphname = h;
kernLeft = B;
kernRight = a;
lastChange = "2023-01-31 11:13:53 +0000";
layers = (
{
anchors = (
{
name = bottom;
pos = (639,0);
},
{
name = cedilla;
pos = (281,0);
},
{
name = cross;
pos = (352,1304);
},
{
name = lfthook;
pos = (849,0);
},
{
name = top;
pos = (274,1676);
}
);
layerId = m01;
shapes = (
{
closed = 1;
nodes = (
(434,790,o),
(522,875,o),
(648,875,cs),
(777,875,o),
(849,795,o),
(849,656,cs),
(849,0,l),
(1158,0,l),
(1158,711,ls),
(1158,973,o),
(1004,1132,o),
(772,1132,cs),
(602,1132,o),
(489,1051,o),
(438,919,c),
(424,919,l),
(424,1490,l),
(124,1490,l),
(124,0,l),
(434,0,l),
(434,646,ls)
);
}
);
width = 1282;
}
);
metricLeft = l;
metricRight = n;
note = "based on \"n\" and made slightly wider, brining the top vertical stem with it out.";
unicode = 104;
userData = {
"interface.width-adjustments" = (
-16
);
};
},
{
color = 4;
glyphname = idotless;
kernLeft = idotless;
kernRight = idotless;
lastChange = "2023-01-31 11:13:53 +0000";
layers = (
{
anchors = (
{
name = bottom;
pos = (281,0);
},
{
name = cross;
pos = (278,604);
},
{
name = ogonek;
pos = (434,0);
},
{
name = top;
pos = (279,1304);
}
);
layerId = m01;
shapes = (
{
closed = 1;
nodes = (
(434,0,l),
(434,1118,l),
(124,1118,l),
(124,0,l)
);
}
);
width = 558;
}
);
metricLeft = l;
metricRight = l;
unicode = 305;
userData = {
"interface.width-adjustments" = (
-16
);
};
},
{
color = 4;
glyphname = jdotless;
kernLeft = jdotless;
kernRight = idotless;
lastChange = "2023-01-31 11:13:53 +0000";
layers = (
{
anchors = (
{
name = _right;
pos = (458,0);
},
{
name = bottom;
pos = (221,-423);
},
{
name = cross;
pos = (278,671);
},
{
name = top;
pos = (278,1304);
}
);
layerId = m01;
shapes = (
{
closed = 1;
nodes = (
(124,-51,ls),
(124,-134,o),
(88,-176,o),
(-12,-176,cs),
(-52,-176,l),
(-52,-418,l),
(10,-418,ls),
(273,-418,o),
(434,-314,o),
(434,-56,cs),
(434,1118,l),
(124,1118,l)
);
}
);
width = 558;
}
);
metricRight = idotless;
unicode = 567;
userData = {
com.typemytype.robofont.guideline.magnetic.Zernh6wcOg = 5;
interface.gridadjust.original = "{'width': 723, 'leftMargin': -92, 'rightMargin': 213}";
"interface.width-adjustments" = (
-16
);
};
},
{
color = 4;
glyphname = k;
kernLeft = B;
kernRight = k;
lastChange = "2023-01-31 11:13:53 +0000";
layers = (
{
anchors = (
{
name = bottom;
pos = (607,0);
},
{
name = top;
pos = (279,1676);
}
);
layerId = m01;
shapes = (
{
closed = 1;
nodes = (
(124,0,l),
(434,0,l),
(434,356,l),
(518,451,l),
(822,0,l),
(1184,0,l),
(750,633,l),
(1164,1118,l),
(808,1118,l),
(451,693,l),
(434,693,l),
(434,1490,l),
(124,1490,l)
);
}
);
width = 1191;
}
);
metricLeft = h;
unicode = 107;
userData = {
"interface.width-adjustments" = (
-16
);
};
},
{
color = 4;
glyphname = l;
kernRight = H;
lastChange = "2023-01-31 11:13:53 +0000";
layers = (
{
anchors = (
{
name = bottom;
pos = (278,0);
},
{
name = bottomr;
pos = (434,0);
},
{
name = centerr;
pos = (434,745);
},
{
name = cross;
pos = (278,768);
},
{
name = raccent;
pos = (561,1490);
},
{
name = top;
pos = (278,1676);
}
);
layerId = m01;
shapes = (
{
closed = 1;
nodes = (
(124,1490,l),
(124,0,l),
(434,0,l),
(434,1490,l)
);
}
);
width = 558;
}
);
metricRight = "=|l";
unicode = 108;
userData = {
"interface.width-adjustments" = (
-16
);
};
},
{
color = 4;
glyphname = m;
kernLeft = m;
kernRight = a;
lastChange = "2023-01-31 11:13:53 +0000";
layers = (
{
anchors = (
{
name = bottom;
pos = (936,0);
},
{
name = lfthook;
pos = (1438,0);
},
{
name = top;
pos = (936,1304);
}
);
layerId = m01;
shapes = (
{
closed = 1;
nodes = (
(434,0,l),
(434,670,ls),
(434,794,o),
(512,876,o),
(616,876,cs),
(717,876,o),
(785,806,o),
(785,698,cs),
(785,0,l),
(1086,0,l),
(1086,682,ls),
(1086,798,o),
(1153,876,o),
(1265,876,cs),
(1364,876,o),
(1438,815,o),
(1438,690,cs),
(1438,0,l),
(1748,0,l),
(1748,752,ls),
(1748,994,o),
(1603,1132,o),
(1395,1132,cs),
(1231,1132,o),
(1104,1048,o),
(1058,919,c),
(1046,919,l),
(1011,1049,o),
(897,1132,o),
(744,1132,cs),
(593,1132,o),
(478,1051,o),
(432,919,c),
(418,919,l),
(418,1118,l),
(124,1118,l),
(124,0,l)
);
}
);
width = 1872;
}
);
metricLeft = n;
metricRight = n;
unicode = 109;
userData = {
"interface.width-adjustments" = (
-16
);
};
},
{
color = 4;
glyphname = n;
kernLeft = m;
kernRight = a;
lastChange = "2023-01-31 11:13:53 +0000";
layers = (
{
anchors = (
{
name = bottom;
pos = (638,0);
},
{
name = bottomr;
pos = (1154,0);
},
{
name = lfthook;
pos = (124,0);
},
{
name = top;
pos = (638,1304);
},
{
name = topr;
pos = (434,1118);
}
);
layerId = m01;
shapes = (
{
closed = 1;
nodes = (
(434,790,o),
(520,875,o),
(646,875,cs),
(770,875,o),
(844,793,o),
(844,656,cs),
(844,0,l),
(1154,0,l),
(1154,711,ls),
(1154,972,o),
(1001,1132,o),
(768,1132,cs),
(602,1132,o),
(490,1050,o),
(440,919,c),
(429,919,l),
(429,1118,l),
(124,1118,l),
(124,0,l),
(434,0,l),
(434,646,ls)
);
}
);
width = 1278;
}
);
unicode = 110;
userData = {
"interface.width-adjustments" = (
-16
);
};
},
{
color = 4;
glyphname = eng;
kernLeft = m;
kernRight = etagreek;
lastChange = "2023-01-31 11:13:53 +0000";
layers = (
{
layerId = m01;
shapes = (
{
closed = 1;
nodes = (
(844,-48,ls),
(844,-132,o),
(793,-166,o),
(710,-166,cs),
(675,-166,o),
(646,-161,o),
(618,-155,c),
(598,-406,l),
(649,-417,o),
(700,-419,o),
(754,-418,cs),
(992,-419,o),
(1153,-294,o),
(1154,-48,cs),
(1154,14,l),
(844,14,l)
);
},
{
alignment = -1;
ref = n;
}
);
width = 1278;
}
);
metricLeft = n;
metricRight = jdotless;
unicode = 331;
userData = {
interface.gridadjust.original = "{'width': 1602, 'leftMargin': 197, 'rightMargin': 206}";
"interface.width-adjustments" = (
-16
);
};
},
{
color = 4;
glyphname = o;
kernLeft = o;
kernRight = o;
lastChange = "2023-01-31 11:13:53 +0000";
layers = (
{
anchors = (
{
name = bottom;
pos = (628,0);
},
{
name = ogonek;
pos = (1178,554);
},
{
name = top;
pos = (628,1304);
},
{
name = tophorn;
pos = (628,1132);
}
);
layerId = m01;
shapes = (
{
closed = 1;
nodes = (
(968,-22,o),
(1178,210,o),
(1178,554,cs),
(1178,900,o),
(968,1132,o),
(628,1132,cs),
(289,1132,o),
(79,900,o),
(79,554,cs),
(79,210,o),
(289,-22,o),
(628,-22,cs)
);
},
{
closed = 1;
nodes = (
(394,751,o),
(473,890,o),
(629,890,cs),
(783,890,o),
(863,751,o),
(863,556,cs),
(863,361,o),
(783,220,o),
(629,220,cs),
(473,220,o),
(394,361,o),
(394,556,cs)
);
}
);
width = 1257;
}
);
metricRight = "=|o";
unicode = 111;
userData = {
com.typemytype.robofont.guideline.magnetic.k4vPhVkDP6 = 5;
"interface.width-adjustments" = (
-16
);
};
},
{
color = 4;
glyphname = oslash;
kernLeft = o;
kernRight = o;
lastChange = "2023-01-31 11:13:53 +0000";
layers = (
{
layerId = m01;
shapes = (
{
alignment = -1;
pos = (0,-1);
ref = o;
},
{
closed = 1;
nodes = (
(1102,1083,l),
(958,1180,l),
(155,25,l),
(298,-72,l)
);
}
);
width = 1257;
}
);
metricLeft = o;
metricRight = o;
unicode = 248;
userData = {
com.typemytype.robofont.guideline.magnetic.49COOBBAbR = 5;
com.typemytype.robofont.guideline.magnetic.6oUqwWxpuH = 5;
com.typemytype.robofont.guideline.magnetic.csWBhLA7NW = 5;
com.typemytype.robofont.guideline.magnetic.yqY0voZV2N = 5;
interface.gridadjust.original = "{'width': 1602, 'leftMargin': 236, 'rightMargin': 46}";
"interface.width-adjustments" = (
-16
);
};
},
{
color = 4;
glyphname = p;
kernLeft = m;
kernRight = o;
lastChange = "2023-01-31 11:13:53 +0000";
layers = (
{
anchors = (
{
name = bottom;
pos = (280,-408);
},
{
name = cross;
pos = (278,-162);
},
{
name = top;
pos = (700,1304);
},
{
name = topr;
pos = (434,1118);
}
);
layerId = m01;
shapes = (
{
closed = 1;
nodes = (
(434,-418,l),
(434,179,l),
(443,179,l),
(486,86,o),
(579,-18,o),
(759,-18,cs),
(1015,-18,o),
(1213,184,o),
(1213,557,cs),
(1213,941,o),
(1006,1132,o),
(761,1132,cs),
(574,1132,o),
(484,1021,o),
(443,929,c),
(429,929,l),
(429,1118,l),
(124,1118,l),
(124,-418,l)
);
},
{
closed = 1;
nodes = (
(427,758,o),
(512,886,o),
(662,886,cs),
(815,886,o),
(896,752,o),
(896,558,cs),
(896,364,o),
(814,228,o),
(662,228,cs),
(513,228,o),
(427,360,o),
(427,558,cs)
);
}
);
width = 1292;
}
);
metricLeft = l;
metricRight = o;
unicode = 112;
userData = {
"interface.width-adjustments" = (
-16
);
};
},
{
color = 4;
glyphname = thorn;
kernLeft = B;
kernRight = o;
lastChange = "2023-01-31 11:13:53 +0000";
layers = (
{
layerId = m01;
shapes = (
{
closed = 1;
nodes = (
(1015,-18,o),
(1213,184,o),
(1213,557,cs),
(1213,941,o),
(1006,1132,o),
(761,1132,cs),
(574,1132,o),
(484,1021,o),
(443,929,c),
(434,929,l),
(434,1490,l),
(124,1490,l),
(124,-418,l),
(434,-418,l),
(434,179,l),
(443,179,l),
(486,86,o),
(579,-18,o),
(759,-18,cs)
);
},
{
closed = 1;
nodes = (
(427,758,o),
(512,886,o),
(662,886,cs),
(815,886,o),
(896,752,o),
(896,558,cs),
(896,364,o),
(814,228,o),
(662,228,cs),
(513,228,o),
(427,360,o),
(427,558,cs)
);
}
);
width = 1292;
}
);
metricLeft = l;
metricRight = o;
unicode = 254;
userData = {
interface.gridadjust.original = "{'width': 1632, 'leftMargin': 202, 'rightMargin': 159}";
"interface.width-adjustments" = (
-16
);
};
},
{
color = 4;
glyphname = r;
kernLeft = m;
kernRight = r;
lastChange = "2023-01-31 11:13:53 +0000";
layers = (
{
anchors = (
{
name = bottom;
pos = (280,0);
},
{
name = bottomr;
pos = (434,0);
},
{
name = cross;
pos = (279,536);
},
{
name = top;
pos = (458,1304);
}
);
layerId = m01;
shapes = (
{
closed = 1;
nodes = (
(434,0,l),
(434,632,ls),
(434,769,o),
(534,864,o),
(670,864,cs),
(713,864,o),
(772,857,o),
(801,848,c),
(801,1122,l),
(774,1129,o),
(735,1133,o),
(704,1133,cs),
(579,1133,o),
(476,1061,o),
(436,922,c),
(424,922,l),
(424,1118,l),
(124,1118,l),
(124,0,l)
);
}
);
width = 838;
}
);
metricLeft = n;
unicode = 114;
},
{
color = 4;
glyphname = s;
kernLeft = s;
kernRight = s;
lastChange = "2023-01-31 11:13:53 +0000";
layers = (
{
anchors = (
{
name = bottom;
pos = (582,0);
},
{
name = cedilla;
pos = (586,0);
},
{
name = rthook;
pos = (74,323);
},
{
name = top;
pos = (582,1304);
}
);
layerId = m01;
shapes = (
{
closed = 1;
nodes = (
(1026,1004,o),
(859,1132,o),
(577,1132,cs),
(291,1132,o),
(104,1000,o),
(104,784,cs),
(104,617,o),
(208,510,o),
(427,466,cs),
(620,426,ls),
(718,406,o),
(763,371,o),
(763,314,cs),
(763,248,o),
(690,201,o),
(582,201,cs),
(471,201,o),
(398,249,o),
(378,339,c),
(74,323,l),
(104,110,o),
(285,-22,o),
(581,-22,cs),
(871,-22,o),
(1078,126,o),
(1078,347,cs),
(1078,508,o),
(972,606,o),
(756,649,cs),
(553,689,ls),
(450,711,o),
(412,748,o),
(412,802,cs),
(412,868,o),
(486,912,o),
(582,912,cs),
(690,912,o),
(754,853,o),
(770,782,c),
(1052,799,l)
);
}
);
width = 1150;
}
);
unicode = 115;
userData = {
com.typemytype.robofont.guideline.magnetic.1Y8sphnsuc = 5;
com.typemytype.robofont.guideline.magnetic.DuqEUxnaaT = 5;
com.typemytype.robofont.guideline.magnetic.XmDxFVnKBu = 5;
"interface.width-adjustments" = (
-16
);
};
},
{
color = 4;
glyphname = germandbls;
kernLeft = B;
kernRight = B;
lastChange = "2023-01-31 11:13:53 +0000";
layers = (
{
layerId = m01;
shapes = (
{
closed = 1;
nodes = (
(440,0,l),
(440,1050,ls),
(440,1172,o),
(525,1250,o),
(652,1250,cs),
(781,1250,o),
(856,1170,o),
(856,1062,cs),
(856,960,o),
(788,874,o),
(683,874,cs),
(606,874,l),
(606,633,l),
(721,633,ls),
(869,633,o),
(961,557,o),
(961,440,cs),
(961,327,o),
(878,252,o),
(746,252,cs),
(600,252,l),
(600,0,l),
(796,0,ls),
(1079,0,o),
(1275,149,o),
(1275,410,cs),
(1275,619,o),
(1152,769,o),
(958,782,c),
(958,799,l),
(1092,836,o),
(1174,953,o),
(1174,1107,cs),
(1174,1372,o),
(932,1510,o),
(642,1510,cs),
(332,1510,o),
(130,1353,o),
(130,1096,cs),
(130,0,l)
);
}
);
width = 1351;
}
);
metricLeft = B;
metricRight = B;
unicode = 223;
userData = {
"interface.width-adjustments" = (
-16
);
};
},
{
glyphname = longs;
lastChange = "2023-01-31 11:13:53 +0000";
layers = (
{
anchors = (
{
name = cross;
pos = (357,768);
},
{
name = top;
pos = (464,1676);
}
);
layerId = m01;
shapes = (
{
closed = 1;
nodes = (
(511,0,l),
(511,1192,ls),
(511,1268,o),
(543,1312,o),
(634,1312,cs),
(672,1312,o),
(709,1304,o),
(733,1297,c),
(788,1529,l),
(750,1540,o),
(665,1560,o),
(569,1560,cs),
(359,1560,o),
(203,1440,o),
(203,1199,cs),
(203,0,l)
);
}
);
width = 799;
}
);
note = "base of /f";
unicode = 383;
},
{
color = 4;
glyphname = t;
kernLeft = t;
kernRight = t;
lastChange = "2023-01-31 11:13:53 +0000";
layers = (
{
anchors = (
{
name = raccent;
pos = (635,1562);
}
);
layerId = m01;
shapes = (
{
alignment = -1;
ref = _part.t_base;
},
{
closed = 1;
nodes = (
(45,1118,l),
(45,884,l),
(718,884,l),
(718,1118,l)
);
}
);
width = 796;
}
);
unicode = 116;
userData = {
com.typemytype.robofont.guideline.magnetic.y5AZhPlfwM = 5;
"interface.width-adjustments" = (
-16
);
};
},
{
color = 4;
glyphname = u;
kernLeft = u;
kernRight = u;
lastChange = "2023-01-31 11:13:53 +0000";
layers = (
{
anchors = (
{
name = bottom;
pos = (684,0);
},
{
name = ogonek;
pos = (1150,0);
},
{
name = rtophorn;
pos = (840,1118);
},
{
name = top;
pos = (638,1304);
}
);
layerId = m01;
shapes = (
{
closed = 1;
nodes = (
(840,326,o),
(738,247,o),
(628,248,cs),
(510,247,o),
(434,329,o),
(434,460,cs),
(434,1118,l),
(124,1118,l),
(124,406,ls),
(124,145,o),
(277,-15,o),
(502,-14,cs),
(670,-15,o),
(790,72,o),
(840,203,c),
(852,203,l),
(852,0,l),
(1150,0,l),
(1150,1118,l),
(840,1118,l),
(840,475,ls)
);
}
);
width = 1274;
}
);
metricLeft = l;
metricRight = l;
unicode = 117;
userData = {
com.typemytype.robofont.guideline.magnetic.nBhGDD3LHZ = 5;
"interface.width-adjustments" = (
-16
);
};
},
{
color = 4;
glyphname = v;
kernLeft = v;
kernRight = v;
lastChange = "2023-01-31 11:13:53 +0000";
layers = (
{
anchors = (
{
name = bottom;
pos = (600,0);
},
{
name = top;
pos = (600,1304);
}
);
layerId = m01;
shapes = (
{
closed = 1;
nodes = (
(841,1118,l),
(610,317,l),
(598,317,l),
(363,1118,l),
(35,1118,l),
(424,0,l),
(774,0,l),
(1165,1118,l)
);
}
);
width = 1200;
}
);
metricRight = "=|v";
unicode = 118;
userData = {
com.typemytype.robofont.guideline.magnetic.HsEeMarF5L = 5;
"interface.width-adjustments" = (
-16
);
};
},
{
color = 4;
glyphname = w;
kernLeft = w;
kernRight = w;
lastChange = "2023-01-31 11:13:53 +0000";
layers = (
{
anchors = (
{
name = bottom;
pos = (866,0);
},
{
name = top;
pos = (870,1304);
}
);
layerId = m01;
shapes = (
{
closed = 1;
nodes = (
(672,0,l),
(864,703,l),
(877,703,l),
(1069,0,l),
(1397,0,l),
(1701,1118,l),
(1388,1118,l),
(1218,371,l),
(1208,371,l),
(1024,1118,l),
(718,1118,l),
(536,366,l),
(527,366,l),
(353,1118,l),
(40,1118,l),
(344,0,l)
);
}
);
width = 1741;
}
);
unicode = 119;
userData = {
com.typemytype.robofont.guideline.magnetic.p3iasCA57f = 5;
"interface.width-adjustments" = (
-16
);
};
},
{
color = 4;
glyphname = x;
kernLeft = x;
kernRight = x;
lastChange = "2023-01-31 11:13:53 +0000";
layers = (
{
anchors = (
{
name = bottom;
pos = (587,0);
},
{
name = cross;
pos = (587,558);
},
{
name = cyrtic;
pos = (1086,0);
},
{
name = right;
pos = (932,0);
},
{
name = top;
pos = (587,1304);
}
);
layerId = m01;
shapes = (
{
closed = 1;
nodes = (
(63,1118,l),
(383,558,l),
(51,0,l),
(371,0,l),
(587,386,l),
(808,0,l),
(1125,0,l),
(792,558,l),
(1116,1118,l),
(797,1118,l),
(587,726,l),
(383,1118,l)
);
}
);
width = 1176;
}
);
unicode = 120;
userData = {
com.typemytype.robofont.guideline.magnetic.lFaJLQuFPv = 5;
"interface.width-adjustments" = (
-16
);
};
},
{
color = 4;
glyphname = y;
kernLeft = v;
kernRight = v;
lastChange = "2023-01-31 11:13:53 +0000";
layers = (
{
anchors = (
{
name = bottom;
pos = (944,-20);
},
{
name = ogonek;
pos = (773,0);
},
{
name = top;
pos = (598,1304);
}
);
layerId = m01;
shapes = (
{
closed = 1;
nodes = (
(543,-426,o),
(665,-310,o),
(728,-129,cs),
(1165,1118,l),
(837,1118,l),
(604,297,l),
(592,297,l),
(360,1118,l),
(35,1118,l),
(435,-32,l),
(416,-88,ls),
(380,-189,o),
(302,-196,o),
(198,-166,cs),
(188,-164,l),
(117,-395,l),
(162,-413,o),
(234,-426,o),
(313,-426,cs)
);
}
);
width = 1200;
}
);
metricLeft = v;
metricRight = v;
unicode = 121;
userData = {
com.typemytype.robofont.guideline.magnetic.lsCjxlYELh = 5;
"interface.width-adjustments" = (
-16
);
};
},
{
color = 4;
glyphname = z;
kernLeft = z;
kernRight = z;
lastChange = "2023-01-31 11:13:53 +0000";
layers = (
{
anchors = (
{
name = bottom;
pos = (584,0);
},
{
name = bottomr;
pos = (1056,0);
},
{
name = cross;
pos = (582,558);
},
{
name = top;
pos = (584,1304);
}
);
layerId = m01;
shapes = (
{
closed = 1;
nodes = (
(1056,0,l),
(1056,248,l),
(525,248,l),
(525,256,l),
(1038,915,l),
(1038,1118,l),
(136,1118,l),
(136,870,l),
(665,870,l),
(665,862,l),
(119,185,l),
(119,0,l)
);
}
);
width = 1172;
}
);
unicode = 122;
userData = {
com.typemytype.robofont.guideline.magnetic.R2Ni5F405P = 5;
"interface.width-adjustments" = (
-16
);
};
},
{
color = 4;
glyphname = ordfeminine;
kernLeft = dagger;
kernRight = dagger;
lastChange = "2023-01-31 11:13:53 +0000";
layers = (
{
layerId = m01;
shapes = (
{
closed = 1;
nodes = (
(168,783,o),
(260,692,o),
(423,692,cs),
(522,692,o),
(590,729,o),
(632,774,c),
(636,749,o),
(642,726,o),
(649,705,c),
(831,705,l),
(808,769,o),
(803,830,o),
(803,888,cs),
(803,1202,ls),
(803,1385,o),
(684,1478,o),
(504,1478,cs),
(311,1478,o),
(184,1379,o),
(184,1244,c),
(362,1230,l),
(363,1295,o),
(415,1329,o),
(504,1330,cs),
(586,1329,o),
(624,1282,o),
(624,1202,cs),
(624,1151,l),
(520,1151,ls),
(283,1150,o),
(168,1068,o),
(168,920,cs)
);
},
{
closed = 1;
nodes = (
(349,981,o),
(402,1034,o),
(520,1034,cs),
(624,1034,l),
(624,899,l),
(587,865,o),
(524,836,o),
(468,836,cs),
(386,836,o),
(349,870,o),
(349,924,cs)
);
}
);
width = 998;
}
);
unicode = 170;
userData = {
interface.gridadjust.original = "{'width': 1262, 'leftMargin': 199, 'rightMargin': 177}";
"interface.width-adjustments" = (
-16
);
};
},
{
color = 4;
glyphname = ordmasculine;
kernLeft = dagger;
kernRight = dagger;
lastChange = "2023-01-31 11:13:53 +0000";
layers = (
{
layerId = m01;
shapes = (
{
closed = 1;
nodes = (
(139,838,o),
(277,690,o),
(499,691,cs),
(719,690,o),
(853,838,o),
(853,1044,cs),
(853,1121,ls),
(853,1329,o),
(717,1478,o),
(496,1478,cs),
(279,1478,o),
(139,1329,o),
(140,1121,cs),
(140,1044,ls)
);
},
{
closed = 1;
nodes = (
(319,1121,ls),
(319,1237,o),
(379,1329,o),
(496,1330,cs),
(616,1329,o),
(673,1237,o),
(674,1121,cs),
(674,1044,ls),
(673,925,o),
(616,838,o),
(499,838,cs),
(379,838,o),
(319,925,o),
(319,1044,cs)
);
}
);
width = 993;
}
);
unicode = 186;
userData = {
interface.gridadjust.original = "{'width': 1284, 'leftMargin': 165, 'rightMargin': 166}";
"interface.width-adjustments" = (
-16
);
};
},
{
category = Letter;
glyphname = uni17D2_1783;
lastChange = "2023-01-31 11:13:53 +0000";
layers = (
{
layerId = m01;
shapes = (
{
closed = 1;
nodes = (
(253,1435,l),
(227,1389,l),
(195,1389,o),
(172,1383,o),
(157,1371,c),
(157,1367,l),
(163,1362,l),
(205,1376,l),
(211,1376,l),
(243,1336,o),
(259,1299,o),
(259,1266,c),
(253,1266,l),
(243,1092,l),
(204,845,o),
(184,677,o),
(184,589,cs),
(184,546,o),
(191,503,o),
(205,461,c),
(200,461,l),
(210,427,o),
(228,390,o),
(253,351,c),
(239,205,o),
(225,105,o),
(211,50,c),
(193,-91,o),
(184,-194,o),
(184,-257,cs),
(184,-335,o),
(200,-402,o),
(232,-458,c),
(90,-442,o),
(19,-430,o),
(19,-421,c),
(-3,-426,l),
(-45,-417,l),
(-109,-431,l),
(-115,-417,l),
(-109,-412,l),
(-109,-403,ls),
(-109,-303,o),
(-161,-207,o),
(-264,-115,c),
(-269,-115,l),
(-269,-147,l),
(-264,-152,l),
(-269,-156,l),
(-269,-175,l),
(-264,-179,l),
(-269,-179,o),
(-272,-193,o),
(-274,-220,c),
(-310,-325,o),
(-328,-390,o),
(-328,-417,cs),
(-328,-421,ls),
(-328,-436,o),
(-323,-452,o),
(-312,-467,c),
(-312,-472,l),
(-399,-445,o),
(-475,-428,o),
(-541,-421,c),
(-552,-421,o),
(-600,-446,o),
(-685,-495,c),
(-706,-490,l),
(-706,-485,l),
(-642,-452,o),
(-599,-435,o),
(-578,-435,c),
(-578,-426,l),
(-637,-435,l),
(-642,-435,l),
(-631,-410,o),
(-626,-388,o),
(-626,-367,c),
(-621,-367,l),
(-616,-371,l),
(-600,-371,l),
(-600,-362,l),
(-605,-357,l),
(-616,-357,o),
(-621,-354,o),
(-621,-348,c),
(-656,-309,o),
(-674,-284,o),
(-674,-271,cs),
(-674,-257,l),
(-669,-257,l),
(-644,-293,o),
(-632,-317,o),
(-632,-330,c),
(-626,-330,l),
(-616,-321,l),
(-616,-303,l),
(-621,-298,l),
(-626,-298,l),
(-632,-303,l),
(-680,-225,l),
(-680,-216,l),
(-648,-240,o),
(-632,-266,o),
(-632,-293,c),
(-621,-293,l),
(-621,-261,ls),
(-621,-234,o),
(-641,-206,o),
(-680,-175,c),
(-680,-161,l),
(-626,-161,l),
(-626,-155,o),
(-637,-150,o),
(-658,-147,c),
(-674,-152,l),
(-690,-120,l),
(-697,-120,o),
(-701,-124,o),
(-701,-133,c),
(-714,-124,o),
(-730,-120,o),
(-749,-120,cs),
(-781,-120,ls),
(-847,-120,o),
(-927,-146,o),
(-1021,-197,c),
(-1021,-207,l),
(-994,-207,l),
(-989,-202,l),
(-934,-279,o),
(-859,-329,o),
(-765,-353,c),
(-746,-353,o),
(-732,-391,o),
(-722,-467,c),
(-717,-467,l),
(-703,-461,o),
(-696,-452,o),
(-696,-440,c),
(-690,-440,l),
(-690,-458,l),
(-705,-475,o),
(-720,-485,o),
(-733,-490,c),
(-824,-467,l),
(-829,-467,l),
(-834,-472,l),
(-829,-485,l),
(-754,-500,o),
(-717,-510,o),
(-717,-517,cs),
(-717,-545,l),
(-706,-545,l),
(-706,-536,l),
(-675,-559,o),
(-649,-575,o),
(-626,-582,c),
(-504,-604,l),
(-498,-604,l),
(-493,-600,l),
(-434,-609,l),
(-434,-604,l),
(-424,-604,l),
(-402,-609,l),
(-381,-604,l),
(-322,-604,l),
(-237,-586,l),
(-226,-586,l),
(-226,-595,l),
(-237,-609,l),
(-237,-614,l),
(-232,-618,l),
(-214,-616,o),
(-205,-611,o),
(-205,-604,cs),
(-205,-585,o),
(-191,-573,o),
(-163,-568,c),
(-110,-586,o),
(-76,-595,o),
(-61,-595,c),
(-40,-591,l),
(-35,-595,l),
(-29,-595,l),
(-24,-591,l),
(-3,-595,l),
(3,-595,l),
(8,-591,l),
(13,-591,l),
(19,-595,l),
(47,-593,o),
(61,-590,o),
(61,-586,c),
(115,-586,o),
(183,-566,o),
(264,-527,c),
(299,-552,o),
(317,-573,o),
(317,-591,cs),
(317,-595,l),
(301,-764,l),
(301,-769,l),
(307,-769,ls),
(328,-769,o),
(339,-722,o),
(339,-627,cs),
(339,-591,ls),
(339,-581,o),
(360,-549,o),
(403,-495,c),
(428,-425,o),
(444,-362,o),
(451,-307,c),
(445,-234,l),
(445,-143,l),
(451,-111,l),
(435,-24,l),
(440,-24,l),
(435,-10,l),
(435,-5,l),
(440,-1,l),
(422,135,o),
(401,236,o),
(376,301,c),
(426,408,o),
(451,488,o),
(451,543,c),
(445,607,l),
(445,703,l),
(451,735,l),
(419,992,l),
(376,1153,o),
(344,1257,o),
(323,1303,c),
(422,1336,o),
(490,1353,o),
(525,1353,cs),
(557,1353,l),
(568,1362,l),
(515,1426,o),
(451,1458,o),
(376,1458,c),
(371,1453,l),
(371,1458,l),
(323,1453,l)
);
},
{
closed = 1;
nodes = (
(-952,-202,l),
(-941,-202,l),
(-813,-216,l),
(-808,-211,l),
(-808,-216,l),
(-751,-212,o),
(-722,-206,o),
(-722,-197,c),
(-717,-197,l),
(-712,-202,l),
(-690,-188,l),
(-690,-193,l),
(-744,-261,l),
(-749,-261,l),
(-749,-252,l),
(-744,-248,l),
(-744,-239,l),
(-751,-239,o),
(-754,-245,o),
(-754,-257,c),
(-818,-245,o),
(-884,-228,o),
(-952,-207,c)
);
},
{
closed = 1;
nodes = (
(-952,-188,l),
(-941,-188,l),
(-941,-193,l),
(-952,-193,l)
);
},
{
closed = 1;
nodes = (
(-920,-225,l),
(-909,-234,l),
(-909,-239,l),
(-925,-225,l)
);
},
{
closed = 1;
nodes = (
(-909,-179,l),
(-904,-179,l),
(-909,-193,l),
(-920,-193,l)
);
},
{
closed = 1;
nodes = (
(-914,-266,l),
(-904,-266,l),
(-904,-271,l),
(-914,-271,l)
);
},
{
closed = 1;
nodes = (
(-914,-156,l),
(-898,-156,l),
(-898,-161,l),
(-914,-161,l)
);
},
{
closed = 1;
nodes = (
(-893,-197,l),
(-885,-182,o),
(-876,-175,o),
(-866,-175,c),
(-882,-197,l)
);
},
{
closed = 1;
nodes = (
(-888,-284,l),
(-877,-284,l),
(-877,-289,l),
(-888,-289,l)
);
},
{
closed = 1;
nodes = (
(-888,-234,l),
(-882,-234,l),
(-877,-252,l),
(-877,-257,l),
(-882,-257,l),
(-888,-252,l)
);
},
{
closed = 1;
nodes = (
(-882,-271,l),
(-872,-271,l),
(-872,-275,l),
(-882,-275,l)
);
},
{
closed = 1;
nodes = (
(-872,-143,l),
(-866,-143,l),
(-866,-152,l),
(-872,-152,l)
);
},
{
closed = 1;
nodes = (
(-866,-289,l),
(-856,-289,l),
(-856,-293,l),
(-866,-293,l)
);
},
{
closed = 1;
nodes = (
(-866,-193,l),
(-855,-193,o),
(-845,-185,o),
(-834,-170,c),
(-824,-170,l),
(-824,-175,l),
(-832,-175,o),
(-843,-182,o),
(-856,-197,c),
(-866,-197,l)
);
},
{
closed = 1;
nodes = (
(-861,-152,l),
(-850,-152,l),
(-850,-156,l),
(-861,-156,l)
);
},
{
closed = 1;
nodes = (
(-856,-243,l),
(-849,-243,o),
(-843,-252,o),
(-840,-271,c),
(-840,-275,l),
(-856,-261,l)
);
},
{
closed = 1;
nodes = (
(-850,-289,l),
(-840,-289,l),
(-840,-293,l),
(-850,-293,l)
);
},
{
closed = 1;
nodes = (
(-845,-138,l),
(-834,-138,l),
(-834,-143,l),
(-845,-143,l)
);
},
{
closed = 1;
nodes = (
(-834,-197,l),
(-797,-165,l),
(-792,-165,l),
(-834,-202,l)
);
},
{
closed = 1;
nodes = (
(-813,-252,l),
(-802,-289,l),
(-802,-293,l),
(-809,-293,o),
(-817,-279,o),
(-824,-252,c)
);
},
{
closed = 1;
nodes = (
(-813,-133,l),
(-802,-133,l),
(-802,-138,l),
(-813,-138,l)
);
},
{
closed = 1;
nodes = (
(-802,-193,l),
(-795,-193,o),
(-783,-184,o),
(-765,-165,c),
(-754,-165,l),
(-802,-202,l)
);
},
{
closed = 1;
nodes = (
(-782,-257,o),
(-773,-272,o),
(-765,-303,c),
(-770,-307,l),
(-779,-307,o),
(-787,-290,o),
(-792,-257,c)
);
},
{
closed = 1;
nodes = (
(-786,-335,l),
(-770,-335,l),
(-770,-339,l),
(-786,-339,l)
);
},
{
closed = 1;
nodes = (
(-786,-147,l),
(-770,-147,l),
(-770,-152,l),
(-786,-152,l)
);
},
{
closed = 1;
nodes = (
(-776,-321,l),
(-760,-321,l),
(-760,-325,l),
(-776,-325,l)
);
},
{
closed = 1;
nodes = (
(-770,-133,l),
(-765,-133,l),
(-738,-143,l),
(-738,-147,l),
(-744,-147,l),
(-770,-138,l)
);
},
{
closed = 1;
nodes = (
(-760,-335,l),
(-733,-335,l),
(-733,-339,l),
(-760,-339,l)
);
},
{
closed = 1;
nodes = (
(-744,-271,l),
(-728,-316,l),
(-733,-316,ls),
(-743,-316,o),
(-750,-301,o),
(-754,-271,c)
);
},
{
closed = 1;
nodes = (
(-738,-165,l),
(-728,-165,l),
(-738,-179,l),
(-744,-179,l)
);
},
{
closed = 1;
nodes = (
(-722,-216,l),
(-722,-207,l),
(-738,-225,l),
(-738,-229,l)
);
},
{
closed = 1;
nodes = (
(-722,-362,l),
(-701,-362,l),
(-712,-376,l),
(-712,-380,l),
(-680,-357,l),
(-680,-371,ls),
(-680,-387,o),
(-694,-404,o),
(-722,-421,c),
(-722,-403,l),
(-712,-389,l),
(-712,-380,l),
(-719,-380,o),
(-722,-385,o),
(-722,-394,c),
(-728,-394,l),
(-733,-371,l)
);
},
{
closed = 1;
nodes = (
(-733,-266,l),
(-733,-254,o),
(-719,-239,o),
(-690,-220,c),
(-690,-234,l),
(-728,-266,l)
);
},
{
closed = 1;
nodes = (
(-728,-335,l),
(-712,-335,l),
(-712,-339,l),
(-728,-339,l)
);
},
{
closed = 1;
nodes = (
(-702,-414,o),
(-692,-403,o),
(-685,-403,cs),
(-680,-403,l),
(-706,-449,l),
(-712,-449,l),
(-717,-435,l)
);
},
{
closed = 1;
nodes = (
(-717,-289,l),
(-712,-289,l),
(-701,-321,l),
(-701,-325,l),
(-706,-325,l),
(-717,-293,l)
);
},
{
closed = 1;
nodes = (
(-696,-175,l),
(-690,-175,l),
(-712,-193,l),
(-717,-193,l)
);
},
{
closed = 1;
nodes = (
(-706,-165,l),
(-701,-165,l),
(-712,-175,l),
(-717,-175,l)
);
},
{
closed = 1;
nodes = (
(-712,-348,l),
(-701,-348,l),
(-701,-353,l),
(-712,-353,l)
);
},
{
closed = 1;
nodes = (
(-690,-243,l),
(-685,-243,l),
(-685,-271,l),
(-696,-280,l),
(-712,-271,l)
);
},
{
closed = 1;
nodes = (
(-691,-508,o),
(-658,-531,o),
(-605,-577,c),
(-651,-564,o),
(-685,-541,o),
(-706,-508,c)
);
},
{
closed = 1;
nodes = (
(-706,-147,l),
(-696,-147,l),
(-696,-152,l),
(-706,-152,l)
);
},
{
closed = 1;
nodes = (
(-685,-303,l),
(-680,-303,l),
(-669,-335,l),
(-669,-339,l),
(-676,-339,o),
(-682,-328,o),
(-685,-307,cs)
);
},
{
closed = 1;
nodes = (
(-669,-426,l),
(-669,-453,l),
(-674,-453,l),
(-680,-435,l)
);
},
{
closed = 1;
nodes = (
(-680,-188,l),
(-662,-196,o),
(-646,-214,o),
(-632,-243,c),
(-632,-252,l),
(-637,-252,l),
(-680,-197,l)
);
},
{
closed = 1;
nodes = (
(-674,-389,l),
(-664,-389,l),
(-653,-426,l),
(-653,-435,l),
(-661,-435,o),
(-668,-421,o),
(-674,-394,c)
);
},
{
closed = 1;
nodes = (
(-653,-357,l),
(-642,-389,l),
(-642,-412,l),
(-648,-412,l),
(-669,-357,l)
);
},
{
closed = 1;
nodes = (
(-664,-312,l),
(-658,-312,o),
(-649,-324,o),
(-637,-348,c),
(-637,-353,l),
(-647,-353,o),
(-656,-341,o),
(-664,-316,c)
);
},
{
closed = 1;
nodes = (
(-642,-517,ls),
(-633,-517,o),
(-596,-537,o),
(-530,-577,c),
(-530,-582,l),
(-552,-582,l),
(-597,-561,o),
(-629,-540,o),
(-648,-517,c)
);
},
{
closed = 1;
nodes = (
(-648,-490,l),
(-579,-453,o),
(-536,-435,o),
(-520,-435,cs),
(-509,-435,l),
(-498,-444,l),
(-523,-444,o),
(-570,-464,o),
(-637,-504,c),
(-637,-499,l),
(-648,-499,l)
);
},
{
closed = 1;
nodes = (
(-600,-577,l),
(-589,-577,l),
(-589,-582,l),
(-600,-582,l)
);
},
{
closed = 1;
nodes = (
(-564,-482,o),
(-523,-461,o),
(-477,-444,c),
(-472,-444,l),
(-445,-449,l),
(-445,-453,l),
(-461,-453,o),
(-497,-473,o),
(-552,-513,c),
(-568,-508,l),
(-573,-508,l),
(-578,-513,l),
(-600,-508,l)
);
},
{
closed = 1;
nodes = (
(-557,-527,o),
(-511,-550,o),
(-440,-595,c),
(-470,-595,o),
(-516,-572,o),
(-578,-527,c)
);
},
{
closed = 1;
nodes = (
(-525,-517,l),
(-450,-467,l),
(-433,-467,o),
(-424,-464,o),
(-424,-458,c),
(-381,-463,l),
(-381,-467,l),
(-397,-467,l),
(-452,-504,o),
(-488,-522,o),
(-504,-522,cs),
(-525,-522,l)
);
},
{
closed = 1;
nodes = (
(-484,-540,o),
(-448,-555,o),
(-386,-586,c),
(-386,-591,l),
(-408,-591,l),
(-461,-565,o),
(-490,-548,o),
(-493,-540,c)
);
},
{
closed = 1;
nodes = (
(-461,-522,l),
(-446,-522,o),
(-433,-514,o),
(-424,-499,c),
(-388,-487,o),
(-370,-476,o),
(-370,-467,c),
(-333,-485,l),
(-345,-485,o),
(-379,-500,o),
(-434,-531,c),
(-461,-527,l)
);
},
{
closed = 1;
nodes = (
(-429,-545,l),
(-424,-545,l),
(-397,-550,l),
(-344,-574,o),
(-311,-586,o),
(-296,-586,c),
(-296,-591,l),
(-322,-591,ls),
(-340,-591,o),
(-376,-577,o),
(-429,-550,c)
);
},
{
closed = 1;
nodes = (
(-392,-527,l),
(-306,-485,l),
(-280,-495,l),
(-280,-499,l),
(-360,-536,l),
(-392,-531,l)
);
},
{
closed = 1;
nodes = (
(-349,-550,l),
(-344,-550,l),
(-264,-572,l),
(-264,-582,l),
(-349,-554,l)
);
},
{
closed = 1;
nodes = (
(-312,-403,l),
(-306,-403,l),
(-306,-414,o),
(-276,-443,o),
(-216,-490,c),
(-216,-499,l),
(-225,-499,o),
(-257,-473,o),
(-312,-421,c)
);
},
{
closed = 1;
nodes = (
(-274,-513,l),
(-258,-522,l),
(-274,-536,l),
(-306,-536,l)
);
},
{
closed = 1;
nodes = (
(-306,-449,l),
(-301,-449,l),
(-301,-455,o),
(-274,-479,o),
(-221,-522,c),
(-221,-531,l),
(-226,-531,l),
(-273,-496,o),
(-300,-470,o),
(-306,-453,c)
);
},
{
closed = 1;
nodes = (
(-306,-371,l),
(-211,-440,l),
(-216,-467,l),
(-221,-467,l),
(-221,-463,l),
(-270,-424,o),
(-299,-398,o),
(-306,-385,c)
);
},
{
closed = 1;
nodes = (
(-296,-344,l),
(-296,-335,l),
(-285,-335,l),
(-285,-339,l),
(-232,-374,o),
(-205,-402,o),
(-205,-421,c),
(-236,-405,o),
(-267,-382,o),
(-296,-353,cs),
(-301,-348,l)
);
},
{
closed = 1;
nodes = (
(-285,-298,l),
(-280,-298,l),
(-205,-367,l),
(-205,-376,l),
(-241,-355,o),
(-268,-335,o),
(-285,-316,c)
);
},
{
closed = 1;
nodes = (
(-274,-550,l),
(-269,-550,l),
(-221,-563,l),
(-221,-572,l),
(-274,-554,l)
);
},
{
closed = 1;
nodes = (
(-269,-261,l),
(-230,-286,o),
(-211,-306,o),
(-211,-321,cs),
(-211,-335,l),
(-269,-284,l),
(-274,-284,l)
);
},
{
closed = 1;
nodes = (
(-258,-239,l),
(-258,-229,l),
(-231,-250,o),
(-217,-265,o),
(-216,-275,cs),
(-216,-280,l),
(-223,-280,o),
(-237,-269,o),
(-258,-248,cs),
(-264,-243,l)
);
},
{
closed = 1;
nodes = (
(-253,-193,l),
(-232,-211,l),
(-232,-229,l),
(-253,-211,l)
);
},
{
closed = 1;
nodes = (
(-253,-156,l),
(-248,-156,l),
(-242,-179,l),
(-242,-184,l),
(-253,-175,l)
);
},
{
closed = 1;
nodes = (
(-216,-184,l),
(-211,-184,l),
(-205,-188,l),
(-211,-207,l),
(-216,-207,l)
);
},
{
closed = 1;
nodes = (
(-200,-234,l),
(-195,-234,l),
(-195,-252,l),
(-205,-252,l)
);
},
{
closed = 1;
nodes = (
(-200,-527,l),
(-131,-472,l),
(-131,-491,o),
(-154,-513,o),
(-200,-536,c)
);
},
{
closed = 1;
nodes = (
(-195,-550,l),
(-173,-550,l),
(-163,-559,l),
(-195,-554,l)
);
},
{
closed = 1;
nodes = (
(-195,-485,l),
(-131,-421,l),
(-131,-435,l),
(-146,-463,o),
(-168,-483,o),
(-195,-495,c)
);
},
{
closed = 1;
nodes = (
(-195,-293,l),
(-173,-248,l),
(-168,-248,l),
(-163,-261,l),
(-195,-303,l)
);
},
{
closed = 1;
nodes = (
(-195,-216,l),
(-189,-216,l),
(-189,-229,l),
(-195,-229,l)
);
},
{
closed = 1;
nodes = (
(-189,-431,l),
(-125,-367,l),
(-134,-394,o),
(-155,-421,o),
(-189,-449,c)
);
},
{
closed = 1;
nodes = (
(-189,-390,o),
(-175,-369,o),
(-147,-335,c),
(-136,-335,l),
(-136,-339,l),
(-151,-367,o),
(-169,-387,o),
(-189,-399,c)
);
},
{
closed = 1;
nodes = (
(-189,-344,ls),
(-189,-329,o),
(-175,-308,o),
(-147,-280,c),
(-147,-289,ls),
(-147,-301,o),
(-159,-324,o),
(-184,-357,c),
(-189,-357,l)
);
},
{
closed = 1;
nodes = (
(-157,-527,l),
(-152,-522,l),
(-125,-527,l),
(-125,-531,l),
(-157,-531,l)
);
},
{
closed = 1;
nodes = (
(-136,-559,l),
(-120,-559,l),
(-93,-572,l),
(-93,-577,l),
(-99,-577,l),
(-136,-568,l)
);
},
{
closed = 1;
nodes = (
(-126,-487,o),
(-101,-462,o),
(-61,-431,c),
(-45,-435,l),
(-40,-435,l),
(-35,-431,l),
(-29,-431,l),
(-29,-435,l),
(-44,-435,o),
(-76,-459,o),
(-125,-508,c),
(-136,-508,l)
);
},
{
closed = 1;
nodes = (
(-120,-527,l),
(-109,-527,l),
(-109,-531,l),
(-120,-531,l)
);
},
{
closed = 1;
nodes = (
(-109,-440,l),
(-104,-435,l),
(-88,-435,l),
(-88,-440,l),
(-104,-444,l),
(-109,-444,l)
);
},
{
closed = 1;
nodes = (
(-99,-550,l),
(-93,-545,l),
(-57,-557,o),
(-36,-568,o),
(-29,-577,c),
(-51,-577,l),
(-99,-554,l)
);
},
{
closed = 1;
nodes = (
(-64,-469,o),
(-30,-444,o),
(3,-431,c),
(3,-435,l),
(13,-435,l),
(13,-444,l),
(8,-444,l),
(-72,-513,l),
(-99,-508,l)
);
},
{
closed = 1;
nodes = (
(-61,-531,l),
(-40,-531,l),
(3,-558,o),
(31,-572,o),
(45,-572,c),
(45,-582,l),
(10,-573,o),
(-26,-559,o),
(-61,-540,c)
);
},
{
closed = 1;
nodes = (
(-30,-500,o),
(-6,-475,o),
(35,-440,c),
(67,-444,l),
(67,-449,l),
(59,-449,o),
(34,-470,o),
(-8,-513,c),
(-35,-513,l)
);
},
{
closed = 1;
nodes = (
(-8,-527,l),
(88,-563,l),
(88,-568,l),
(83,-572,l),
(-8,-536,l)
);
},
{
closed = 1;
nodes = (
(61,-463,l),
(76,-463,o),
(83,-457,o),
(83,-444,c),
(115,-453,l),
(45,-513,l),
(24,-513,l)
);
},
{
closed = 1;
nodes = (
(67,-531,l),
(72,-531,l),
(77,-527,l),
(118,-545,o),
(146,-554,o),
(163,-554,c),
(163,-559,l),
(147,-563,l),
(141,-563,l),
(136,-559,l),
(131,-559,l),
(125,-563,l),
(125,-559,l),
(76,-544,o),
(51,-533,o),
(51,-527,c)
);
},
{
closed = 1;
nodes = (
(104,-481,l),
(122,-474,o),
(131,-466,o),
(131,-458,c),
(157,-463,l),
(157,-467,l),
(135,-498,o),
(110,-513,o),
(83,-513,cs),
(72,-513,l)
);
},
{
closed = 1;
nodes = (
(131,-522,l),
(189,-540,l),
(189,-545,l),
(184,-550,l),
(131,-527,l)
);
},
{
closed = 1;
nodes = (
(152,-491,o),
(166,-478,o),
(189,-467,c),
(195,-467,l),
(205,-476,l),
(200,-476,l),
(179,-497,o),
(164,-508,o),
(157,-508,cs),
(152,-508,l),
(147,-504,l)
);
},
{
closed = 1;
nodes = (
(189,-517,l),
(205,-517,l),
(205,-527,l),
(189,-522,l)
);
},
{
closed = 1;
nodes = (
(205,-234,l),
(200,-193,l),
(200,-188,l),
(205,-188,l),
(227,-257,l),
(287,-352,o),
(317,-407,o),
(317,-421,cs),
(317,-453,l),
(312,-453,l),
(265,-384,o),
(227,-317,o),
(200,-252,c)
);
},
{
closed = 1;
nodes = (
(205,612,l),
(200,653,l),
(200,658,l),
(205,658,l),
(227,589,l),
(287,494,o),
(317,439,o),
(317,425,cs),
(317,393,l),
(312,393,l),
(265,462,o),
(227,529,o),
(200,594,c)
);
},
{
closed = 1;
nodes = (
(205,-490,l),
(248,-472,l),
(248,-476,l),
(253,-481,l),
(242,-481,o),
(237,-486,o),
(237,-495,c),
(205,-495,l)
);
},
{
closed = 1;
nodes = (
(205,-316,l),
(211,-316,l),
(211,-337,o),
(238,-384,o),
(291,-458,c),
(291,-463,l),
(253,-463,l),
(221,-394,o),
(205,-346,o),
(205,-321,cs)
);
},
{
closed = 1;
nodes = (
(205,-124,l),
(216,-106,l),
(221,-106,l),
(221,-136,o),
(257,-194,o),
(328,-280,c),
(328,-284,l),
(323,-289,l),
(323,-362,l),
(317,-362,l),
(242,-244,o),
(205,-172,o),
(205,-147,cs)
);
},
{
closed = 1;
nodes = (
(205,530,l),
(211,530,l),
(221,498,l),
(317,333,l),
(317,296,l),
(312,296,l),
(241,401,o),
(205,477,o),
(205,525,cs)
);
},
{
closed = 1;
nodes = (
(205,722,l),
(216,740,l),
(221,740,l),
(227,708,l),
(328,557,l),
(323,553,l),
(323,484,l),
(317,484,l),
(242,602,o),
(205,674,o),
(205,699,cs)
);
},
{
closed = 1;
nodes = (
(211,-522,l),
(227,-522,l),
(227,-531,l),
(211,-527,l)
);
},
{
closed = 1;
nodes = (
(218,-51,o),
(221,-33,o),
(221,4,c),
(227,4,l),
(232,-24,l),
(333,-175,l),
(328,-193,l),
(333,-216,l),
(328,-239,l),
(323,-239,l),
(323,-234,l),
(270,-163,o),
(232,-102,o),
(211,-51,c)
);
},
{
closed = 1;
nodes = (
(218,795,o),
(221,813,o),
(221,850,c),
(227,850,l),
(227,832,o),
(262,774,o),
(333,676,c),
(328,653,l),
(333,630,l),
(328,607,l),
(323,607,l),
(323,617,l),
(276,673,o),
(238,732,o),
(211,795,c)
);
},
{
closed = 1;
nodes = (
(221,27,l),
(237,45,l),
(237,82,l),
(243,104,l),
(248,104,l),
(248,80,o),
(252,68,o),
(259,68,c),
(259,55,o),
(284,10,o),
(333,-65,c),
(333,-69,l),
(328,-74,l),
(333,-101,l),
(333,-124,l),
(328,-124,l),
(328,-120,l),
(277,-51,o),
(247,-2,o),
(237,27,c),
(221,18,l)
);
},
{
closed = 1;
nodes = (
(221,873,l),
(237,891,l),
(237,928,l),
(243,950,l),
(248,950,l),
(259,900,l),
(308,826,o),
(333,785,o),
(333,777,cs),
(333,772,l),
(328,767,l),
(333,749,l),
(333,722,l),
(328,722,l),
(323,735,l),
(232,868,l),
(227,868,l),
(227,859,l),
(221,859,l)
);
},
{
closed = 1;
nodes = (
(237,1376,l),
(275,1321,l),
(269,1321,l),
(255,1326,o),
(241,1345,o),
(227,1376,c)
);
},
{
closed = 1;
nodes = (
(237,1399,l),
(243,1399,l),
(285,1431,l),
(291,1431,l),
(243,1389,l),
(237,1389,l)
);
},
{
closed = 1;
nodes = (
(253,200,l),
(259,200,l),
(259,185,o),
(264,170,o),
(275,155,c),
(296,134,o),
(307,108,o),
(307,77,c),
(323,86,l),
(323,50,l),
(328,27,l),
(323,22,l),
(328,4,l),
(328,-1,l),
(323,-1,l),
(323,10,o),
(312,23,o),
(291,40,c),
(248,127,l),
(243,127,l)
);
},
{
closed = 1;
nodes = (
(253,1046,l),
(259,1046,l),
(269,1010,l),
(308,969,o),
(328,923,o),
(328,873,c),
(323,868,l),
(323,864,l),
(328,859,l),
(328,845,l),
(323,845,l),
(323,856,o),
(312,869,o),
(291,886,c),
(248,973,l),
(243,973,l)
);
},
{
closed = 1;
nodes = (
(275,-508,l),
(275,-513,l),
(264,-513,ls),
(253,-513,o),
(248,-510,o),
(248,-504,c)
);
},
{
closed = 1;
nodes = (
(259,301,l),
(264,301,l),
(275,269,l),
(312,200,l),
(312,155,l),
(307,155,l),
(278,202,o),
(260,226,o),
(253,228,c)
);
},
{
closed = 1;
nodes = (
(259,1147,l),
(264,1147,l),
(269,1124,l),
(301,1073,o),
(317,1041,o),
(317,1028,cs),
(317,992,l),
(312,992,l),
(280,1045,o),
(260,1073,o),
(253,1074,c)
);
},
{
closed = 1;
nodes = (
(275,1380,l),
(289,1341,o),
(303,1321,o),
(317,1321,c),
(317,1316,l),
(301,1316,ls),
(288,1316,o),
(274,1337,o),
(259,1380,c)
);
},
{
closed = 1;
nodes = (
(264,-481,l),
(269,-476,l),
(296,-476,l),
(296,-481,l),
(264,-485,l)
);
},
{
closed = 1;
nodes = (
(269,1225,l),
(294,1206,o),
(307,1168,o),
(307,1110,cs),
(307,1106,l),
(301,1106,l),
(269,1174,l)
);
},
{
closed = 1;
nodes = (
(274,1307,o),
(282,1289,o),
(291,1252,c),
(275,1252,l),
(275,1275,l),
(269,1307,l)
);
},
{
closed = 1;
nodes = (
(269,1394,l),
(284,1411,o),
(309,1428,o),
(344,1444,c),
(344,1440,l),
(275,1394,l)
);
},
{
closed = 1;
nodes = (
(285,296,l),
(307,278,l),
(307,260,l),
(301,260,l),
(285,292,l)
);
},
{
closed = 1;
nodes = (
(285,1385,l),
(307,1385,l),
(344,1325,l),
(333,1316,l),
(328,1316,l),
(285,1380,l)
);
},
{
closed = 1;
nodes = (
(312,-504,l),
(317,-504,l),
(317,-550,l),
(312,-550,l),
(291,-517,l)
);
},
{
closed = 1;
nodes = (
(307,1403,l),
(392,1444,l),
(397,1444,l),
(397,1440,l),
(388,1440,o),
(364,1426,o),
(323,1399,c),
(307,1399,l)
);
},
{
closed = 1;
nodes = (
(317,1225,l),
(323,1261,l),
(328,1261,l),
(333,1239,l),
(326,1239,o),
(323,1217,o),
(323,1174,c),
(317,1174,l)
);
},
{
closed = 1;
nodes = (
(344,1184,l),
(349,1184,l),
(355,1147,l),
(339,1051,l),
(333,1051,l),
(328,1088,l)
);
},
{
closed = 1;
nodes = (
(344,1389,l),
(381,1330,l),
(360,1325,l),
(341,1348,o),
(331,1369,o),
(328,1389,c)
);
},
{
closed = 1;
nodes = (
(333,-527,l),
(394,-417,o),
(424,-344,o),
(424,-307,c),
(429,-307,l),
(429,-330,ls),
(429,-405,o),
(397,-477,o),
(333,-545,c)
);
},
{
closed = 1;
nodes = (
(333,319,l),
(394,429,o),
(424,502,o),
(424,539,c),
(429,539,l),
(429,516,ls),
(429,442,o),
(397,370,o),
(333,301,c)
);
},
{
closed = 1;
nodes = (
(339,-421,l),
(396,-276,o),
(424,-194,o),
(424,-175,c),
(429,-175,l),
(429,-188,l),
(424,-239,l),
(429,-257,l),
(344,-453,l),
(339,-453,l)
);
},
{
closed = 1;
nodes = (
(339,104,l),
(344,109,l),
(339,136,l),
(356,184,o),
(365,224,o),
(365,255,c),
(371,255,l),
(381,228,l),
(349,86,l),
(344,86,l),
(339,100,l)
);
},
{
closed = 1;
nodes = (
(339,269,l),
(344,269,l),
(344,232,l),
(339,232,l)
);
},
{
closed = 1;
nodes = (
(339,425,l),
(396,570,o),
(424,652,o),
(424,671,c),
(429,671,l),
(429,658,l),
(424,607,l),
(429,589,l),
(344,393,l),
(339,393,l)
);
},
{
closed = 1;
nodes = (
(344,960,l),
(339,987,l),
(339,996,l),
(356,1022,o),
(365,1057,o),
(365,1101,c),
(371,1101,l),
(381,1074,l),
(349,928,l),
(344,928,l),
(339,946,l)
);
},
{
closed = 1;
nodes = (
(344,-321,l),
(349,-261,l),
(396,-141,o),
(419,-73,o),
(419,-56,c),
(424,-56,l),
(429,-78,l),
(415,-148,o),
(388,-232,o),
(349,-330,c),
(344,-330,l)
);
},
{
closed = 1;
nodes = (
(392,164,l),
(387,187,l),
(392,187,l),
(403,118,l),
(396,76,o),
(380,18,o),
(355,-56,c),
(349,-56,l),
(344,-5,l)
);
},
{
closed = 1;
nodes = (
(344,525,l),
(349,585,l),
(396,704,o),
(419,773,o),
(419,790,c),
(424,790,l),
(429,767,l),
(418,708,o),
(392,624,o),
(349,516,c),
(344,516,l)
);
},
{
closed = 1;
nodes = (
(392,1001,l),
(387,1028,l),
(387,1033,l),
(392,1033,l),
(403,964,l),
(396,922,o),
(380,864,o),
(355,790,c),
(349,790,l),
(344,841,l)
);
},
{
closed = 1;
nodes = (
(349,-170,l),
(355,-170,l),
(355,-179,l),
(349,-179,l)
);
},
{
closed = 1;
nodes = (
(408,50,l),
(413,50,l),
(413,18,ls),
(413,-18,o),
(395,-79,o),
(360,-165,c),
(349,-165,l)
);
},
{
closed = 1;
nodes = (
(349,671,ls),
(349,691,o),
(369,766,o),
(408,896,c),
(413,896,l),
(419,850,l),
(413,850,l),
(400,785,o),
(380,724,o),
(355,667,c),
(349,667,l)
);
},
{
closed = 1;
nodes = (
(355,1408,l),
(419,1440,l),
(424,1440,l),
(371,1403,l),
(355,1403,l)
);
},
{
closed = 1;
nodes = (
(387,1389,l),
(387,1376,o),
(396,1361,o),
(413,1344,c),
(413,1339,l),
(387,1339,l),
(365,1389,l)
);
},
{
closed = 1;
nodes = (
(392,1403,l),
(399,1412,o),
(418,1423,o),
(451,1435,c),
(467,1431,l),
(467,1426,l),
(403,1403,l)
);
},
{
closed = 1;
nodes = (
(419,1389,l),
(445,1353,l),
(445,1348,l),
(429,1344,l),
(416,1353,o),
(405,1368,o),
(397,1389,c)
);
},
{
closed = 1;
nodes = (
(477,1421,l),
(483,1421,l),
(445,1399,l),
(429,1399,l)
);
},
{
closed = 1;
nodes = (
(456,1385,l),
(477,1357,l),
(461,1353,l),
(454,1354,o),
(449,1364,o),
(445,1385,c)
);
},
{
closed = 1;
nodes = (
(483,1403,l),
(488,1403,l),
(477,1394,l),
(472,1394,l)
);
},
{
closed = 1;
nodes = (
(477,1380,l),
(499,1380,l),
(509,1362,l),
(493,1362,l),
(477,1376,l)
);
},
{
closed = 1;
nodes = (
(493,1394,l),
(525,1394,l),
(525,1389,l),
(493,1389,l)
);
},
{
closed = 1;
nodes = (
(493,1408,l),
(504,1408,l),
(504,1403,l),
(493,1403,l)
);
},
{
closed = 1;
nodes = (
(520,1371,l),
(541,1367,l),
(541,1362,l),
(520,1362,l)
);
}
);
width = 700;
}
);
note = uni17D2_1783;
},
{
category = Letter;
glyphname = uni17D2_1788;
lastChange = "2023-01-31 11:13:53 +0000";
layers = (
{
layerId = m01;
shapes = (
{
closed = 1;
nodes = (
(206,1474,l),
(186,1427,l),
(163,1427,o),
(145,1421,o),
(134,1409,c),
(134,1404,l),
(138,1399,l),
(152,1408,o),
(165,1413,o),
(178,1413,cs),
(182,1413,l),
(182,1400,o),
(190,1378,o),
(206,1347,c),
(206,1300,l),
(210,1296,l),
(206,1296,l),
(194,1084,l),
(167,853,o),
(154,692,o),
(154,603,cs),
(154,556,o),
(159,514,o),
(170,476,c),
(170,472,l),
(166,467,l),
(176,428,o),
(189,392,o),
(206,359,c),
(195,210,o),
(185,107,o),
(174,48,c),
(161,-97,o),
(154,-203,o),
(154,-268,cs),
(154,-319,o),
(159,-361,o),
(170,-395,c),
(170,-399,l),
(166,-404,l),
(177,-443,o),
(189,-476,o),
(202,-503,c),
(202,-508,l),
(194,-508,l),
(194,-491,o),
(149,-474,o),
(58,-456,c),
(37,-456,o),
(26,-445,o),
(26,-423,c),
(30,-418,l),
(30,-399,l),
(18,-315,l),
(3,-245,o),
(-31,-177,o),
(-86,-112,c),
(-90,-112,l),
(-90,-145,l),
(-86,-150,l),
(-90,-155,l),
(-90,-173,l),
(-86,-178,l),
(-90,-178,o),
(-93,-194,o),
(-94,-225,c),
(-121,-323,o),
(-134,-392,o),
(-134,-432,c),
(-130,-451,l),
(-130,-456,l),
(-226,-437,l),
(-230,-442,l),
(-230,-437,l),
(-254,-442,l),
(-266,-437,l),
(-270,-437,l),
(-274,-442,l),
(-290,-432,l),
(-282,-409,o),
(-278,-384,o),
(-278,-357,cs),
(-278,-334,l),
(-282,-329,l),
(-278,-324,l),
(-278,-301,ls),
(-278,-282,o),
(-285,-261,o),
(-298,-239,c),
(-298,-235,l),
(-234,-225,l),
(-253,-202,o),
(-291,-184,o),
(-346,-169,c),
(-349,-140,o),
(-355,-126,o),
(-366,-126,c),
(-374,-136,l),
(-366,-150,l),
(-366,-159,l),
(-374,-159,l),
(-438,-141,l),
(-482,-141,l),
(-502,-136,l),
(-502,-141,l),
(-510,-141,l),
(-526,-136,l),
(-570,-145,l),
(-570,-141,l),
(-574,-141,l),
(-578,-145,l),
(-639,-145,o),
(-688,-167,o),
(-726,-211,c),
(-726,-202,l),
(-734,-202,l),
(-734,-235,l),
(-738,-239,l),
(-794,-250,o),
(-822,-262,o),
(-822,-277,c),
(-818,-282,l),
(-742,-258,l),
(-714,-291,l),
(-714,-310,l),
(-718,-310,l),
(-718,-297,o),
(-723,-288,o),
(-734,-282,c),
(-738,-282,l),
(-738,-301,o),
(-742,-325,o),
(-750,-352,c),
(-754,-352,l),
(-758,-348,l),
(-770,-348,l),
(-770,-352,ls),
(-770,-359,o),
(-763,-362,o),
(-750,-362,c),
(-762,-428,l),
(-753,-428,o),
(-736,-447,o),
(-710,-484,c),
(-710,-512,l),
(-714,-512,l),
(-758,-437,l),
(-766,-447,l),
(-766,-494,l),
(-762,-498,l),
(-758,-498,l),
(-754,-494,l),
(-754,-500,o),
(-741,-520,o),
(-714,-555,c),
(-714,-564,l),
(-718,-564,l),
(-750,-527,l),
(-750,-535,o),
(-743,-547,o),
(-730,-564,c),
(-750,-564,l),
(-748,-573,o),
(-737,-578,o),
(-718,-578,cs),
(-714,-578,l),
(-722,-630,l),
(-722,-635,l),
(-718,-640,l),
(-710,-640,o),
(-706,-619,o),
(-706,-578,c),
(-693,-597,o),
(-673,-607,o),
(-646,-607,cs),
(-634,-607,ls),
(-585,-607,o),
(-525,-580,o),
(-454,-527,c),
(-454,-517,l),
(-474,-517,l),
(-478,-522,l),
(-516,-443,o),
(-576,-390,o),
(-658,-362,c),
(-665,-362,o),
(-672,-348,o),
(-678,-319,c),
(-678,-315,l),
(-630,-324,l),
(-630,-315,l),
(-646,-315,o),
(-678,-298,o),
(-726,-263,c),
(-726,-258,l),
(-706,-254,l),
(-647,-304,o),
(-613,-329,o),
(-602,-329,cs),
(-573,-329,o),
(-517,-312,o),
(-434,-277,c),
(-430,-277,l),
(-442,-329,l),
(-442,-334,ls),
(-442,-373,o),
(-430,-430,o),
(-406,-503,c),
(-406,-522,l),
(-414,-522,ls),
(-443,-522,o),
(-458,-527,o),
(-458,-536,cs),
(-458,-555,l),
(-437,-546,o),
(-419,-541,o),
(-402,-541,c),
(-394,-583,l),
(-398,-588,l),
(-398,-607,l),
(-394,-611,l),
(-398,-611,l),
(-398,-627,o),
(-401,-635,o),
(-406,-635,c),
(-406,-644,l),
(-386,-644,l),
(-386,-636,o),
(-377,-622,o),
(-358,-602,c),
(-331,-625,o),
(-301,-641,o),
(-270,-649,c),
(-118,-611,l),
(-101,-632,o),
(-69,-650,o),
(-22,-663,c),
(22,-654,ls),
(147,-623,o),
(223,-607,o),
(250,-607,cs),
(254,-607,l),
(242,-781,l),
(246,-795,l),
(262,-795,o),
(270,-746,o),
(270,-649,cs),
(270,-607,l),
(286,-607,l),
(314,-611,l),
(314,-602,l),
(290,-569,l),
(314,-522,l),
(335,-449,o),
(348,-381,o),
(354,-319,c),
(350,-244,l),
(350,-150,l),
(354,-117,l),
(342,-32,l),
(346,-28,l),
(346,-23,l),
(342,-18,l),
(346,-13,l),
(346,-9,l),
(342,-4,l),
(346,-4,l),
(333,135,o),
(317,239,o),
(298,307,c),
(335,418,o),
(354,501,o),
(354,556,cs),
(350,627,l),
(350,721,l),
(354,754,l),
(330,1018,l),
(298,1183,o),
(274,1290,o),
(258,1338,c),
(333,1373,o),
(385,1390,o),
(414,1390,cs),
(434,1390,l),
(442,1399,l),
(403,1465,o),
(355,1498,o),
(298,1498,c),
(294,1493,l),
(294,1498,l),
(262,1493,l)
);
},
{
closed = 1;
nodes = (
(-762,-508,l),
(-754,-517,l),
(-754,-503,l),
(-762,-503,l)
);
},
{
closed = 1;
nodes = (
(-758,-456,l),
(-754,-456,l),
(-754,-467,o),
(-741,-489,o),
(-714,-522,c),
(-714,-536,l),
(-743,-507,o),
(-758,-485,o),
(-758,-470,cs)
);
},
{
closed = 1;
nodes = (
(-750,-390,l),
(-746,-390,l),
(-746,-399,o),
(-741,-407,o),
(-730,-414,c),
(-726,-414,l),
(-746,-381,l),
(-746,-367,l),
(-742,-367,ls),
(-735,-367,o),
(-728,-381,o),
(-722,-409,c),
(-722,-414,l),
(-726,-418,l),
(-713,-431,o),
(-706,-445,o),
(-706,-461,cs),
(-706,-470,l),
(-735,-440,o),
(-749,-421,o),
(-750,-414,c)
);
},
{
closed = 1;
nodes = (
(-738,-329,l),
(-710,-362,l),
(-726,-362,l),
(-738,-348,l)
);
},
{
closed = 1;
nodes = (
(-730,-301,l),
(-726,-301,l),
(-706,-348,l),
(-710,-348,l),
(-734,-319,l)
);
},
{
closed = 1;
nodes = (
(-726,-239,l),
(-714,-211,o),
(-690,-188,o),
(-654,-169,c),
(-650,-169,l),
(-718,-239,l)
);
},
{
closed = 1;
nodes = (
(-718,-381,l),
(-713,-381,o),
(-709,-392,o),
(-706,-414,cs),
(-706,-418,l),
(-710,-418,l),
(-718,-385,l)
);
},
{
closed = 1;
nodes = (
(-706,-532,o),
(-695,-505,o),
(-674,-461,c),
(-670,-461,l),
(-670,-470,l),
(-682,-508,l),
(-682,-512,l),
(-674,-512,l),
(-674,-503,l),
(-670,-503,l),
(-666,-508,l),
(-662,-508,l),
(-662,-461,l),
(-506,-517,l),
(-506,-522,l),
(-510,-522,l),
(-610,-508,l),
(-614,-512,l),
(-614,-508,l),
(-662,-517,l),
(-666,-517,l),
(-670,-512,l),
(-702,-555,l),
(-702,-550,l),
(-686,-527,l),
(-686,-522,l),
(-706,-541,l)
);
},
{
closed = 1;
nodes = (
(-702,-296,l),
(-698,-296,l),
(-698,-324,l),
(-702,-324,l),
(-706,-319,l)
);
},
{
closed = 1;
nodes = (
(-702,-475,l),
(-686,-451,l),
(-678,-451,l),
(-698,-498,l),
(-702,-498,l)
);
},
{
closed = 1;
nodes = (
(-702,-357,l),
(-697,-329,o),
(-692,-315,o),
(-686,-315,c),
(-694,-357,l)
);
},
{
closed = 1;
nodes = (
(-698,-574,l),
(-690,-574,l),
(-686,-578,l),
(-686,-583,l),
(-698,-578,l)
);
},
{
closed = 1;
nodes = (
(-698,-442,l),
(-694,-442,l),
(-694,-451,l),
(-698,-451,l)
);
},
{
closed = 1;
nodes = (
(-694,-395,l),
(-690,-395,l),
(-682,-428,l),
(-682,-432,l),
(-686,-432,l),
(-694,-399,l)
);
},
{
closed = 1;
nodes = (
(-690,-550,l),
(-682,-550,l),
(-682,-555,l),
(-690,-555,l)
);
},
{
closed = 1;
nodes = (
(-686,-437,l),
(-678,-437,l),
(-678,-442,l),
(-686,-442,l)
);
},
{
closed = 1;
nodes = (
(-686,-381,l),
(-674,-381,l),
(-674,-385,l),
(-686,-385,l)
);
},
{
closed = 1;
nodes = (
(-682,-338,l),
(-678,-338,l),
(-678,-357,l),
(-686,-357,l)
);
},
{
closed = 1;
nodes = (
(-682,-249,l),
(-670,-244,l),
(-625,-285,o),
(-591,-305,o),
(-570,-305,c),
(-578,-315,l),
(-586,-315,ls),
(-598,-315,o),
(-630,-296,o),
(-682,-258,c)
);
},
{
closed = 1;
nodes = (
(-682,-230,l),
(-668,-207,o),
(-644,-185,o),
(-610,-164,c),
(-594,-164,l),
(-594,-169,l),
(-643,-210,o),
(-671,-230,o),
(-678,-230,cs)
);
},
{
closed = 1;
nodes = (
(-666,-545,l),
(-662,-545,l),
(-666,-560,l),
(-674,-560,l)
);
},
{
closed = 1;
nodes = (
(-670,-404,ls),
(-663,-404,o),
(-657,-420,o),
(-654,-451,c),
(-662,-451,l),
(-674,-404,l)
);
},
{
closed = 1;
nodes = (
(-670,-381,l),
(-650,-381,l),
(-650,-385,l),
(-670,-385,l)
);
},
{
closed = 1;
nodes = (
(-666,-578,l),
(-662,-578,l),
(-642,-588,l),
(-642,-593,l),
(-646,-593,l),
(-666,-583,l)
);
},
{
closed = 1;
nodes = (
(-654,-555,l),
(-649,-555,o),
(-637,-544,o),
(-618,-522,c),
(-618,-531,l),
(-634,-540,o),
(-642,-549,o),
(-642,-560,c),
(-654,-560,l)
);
},
{
closed = 1;
nodes = (
(-650,-395,l),
(-638,-395,l),
(-638,-399,l),
(-650,-399,l)
);
},
{
closed = 1;
nodes = (
(-642,-414,ls),
(-635,-414,o),
(-630,-431,o),
(-626,-465,c),
(-634,-465,o),
(-641,-448,o),
(-646,-414,c)
);
},
{
closed = 1;
nodes = (
(-626,-235,l),
(-626,-239,l),
(-614,-235,l),
(-567,-276,o),
(-539,-296,o),
(-530,-296,c),
(-530,-301,l),
(-550,-305,l),
(-554,-305,l),
(-589,-288,o),
(-619,-266,o),
(-646,-239,c)
);
},
{
closed = 1;
nodes = (
(-646,-164,l),
(-638,-164,l),
(-638,-169,l),
(-646,-169,l)
);
},
{
closed = 1;
nodes = (
(-642,-574,l),
(-630,-574,l),
(-630,-578,l),
(-642,-578,l)
);
},
{
closed = 1;
nodes = (
(-642,-381,l),
(-630,-381,l),
(-630,-385,l),
(-642,-385,l)
);
},
{
closed = 1;
nodes = (
(-592,-181,o),
(-559,-157,o),
(-530,-150,c),
(-526,-150,l),
(-579,-197,o),
(-614,-221,o),
(-630,-221,c)
);
},
{
closed = 1;
nodes = (
(-594,-522,l),
(-594,-527,l),
(-622,-560,l),
(-626,-560,l)
);
},
{
closed = 1;
nodes = (
(-618,-588,l),
(-610,-588,l),
(-610,-593,l),
(-618,-593,l)
);
},
{
closed = 1;
nodes = (
(-610,-432,l),
(-602,-470,l),
(-610,-470,l),
(-618,-432,l)
);
},
{
closed = 1;
nodes = (
(-602,-550,l),
(-570,-522,l),
(-570,-531,l),
(-578,-531,o),
(-586,-539,o),
(-594,-555,c),
(-602,-555,l)
);
},
{
closed = 1;
nodes = (
(-594,-583,l),
(-582,-583,l),
(-582,-588,l),
(-594,-588,l)
);
},
{
closed = 1;
nodes = (
(-590,-447,l),
(-584,-447,o),
(-579,-458,o),
(-574,-480,c),
(-578,-480,ls),
(-583,-480,o),
(-587,-470,o),
(-590,-451,c)
);
},
{
closed = 1;
nodes = (
(-590,-428,l),
(-582,-428,l),
(-582,-432,l),
(-590,-432,l)
);
},
{
closed = 1;
nodes = (
(-590,-225,l),
(-574,-225,l),
(-558,-230,l),
(-519,-265,o),
(-494,-282,o),
(-482,-282,c),
(-482,-286,l),
(-510,-291,l),
(-541,-277,o),
(-568,-257,o),
(-590,-230,c)
);
},
{
closed = 1;
nodes = (
(-582,-569,l),
(-574,-569,l),
(-574,-574,l),
(-582,-574,l)
);
},
{
closed = 1;
nodes = (
(-578,-428,l),
(-570,-428,l),
(-570,-432,l),
(-578,-432,l)
);
},
{
closed = 1;
nodes = (
(-570,-541,l),
(-562,-541,o),
(-558,-536,o),
(-558,-527,c),
(-550,-527,l),
(-556,-542,o),
(-563,-550,o),
(-570,-550,c)
);
},
{
closed = 1;
nodes = (
(-566,-447,l),
(-558,-447,l),
(-558,-451,l),
(-566,-451,l)
);
},
{
closed = 1;
nodes = (
(-566,-206,l),
(-563,-198,o),
(-542,-181,o),
(-502,-155,c),
(-486,-155,l),
(-486,-159,l),
(-562,-206,l)
);
},
{
closed = 1;
nodes = (
(-562,-465,l),
(-558,-465,l),
(-554,-470,l),
(-554,-489,l),
(-558,-489,l),
(-562,-470,l)
);
},
{
closed = 1;
nodes = (
(-562,-432,l),
(-550,-432,l),
(-550,-437,l),
(-562,-437,l)
);
},
{
closed = 1;
nodes = (
(-546,-564,l),
(-534,-564,l),
(-534,-569,l),
(-546,-569,l)
);
},
{
closed = 1;
nodes = (
(-538,-531,l),
(-530,-531,l),
(-538,-545,l),
(-542,-545,l)
);
},
{
closed = 1;
nodes = (
(-542,-451,l),
(-534,-451,l),
(-534,-456,l),
(-542,-456,l)
);
},
{
closed = 1;
nodes = (
(-542,-221,l),
(-518,-216,l),
(-482,-247,o),
(-458,-263,o),
(-446,-263,c),
(-474,-282,l),
(-474,-274,o),
(-486,-263,o),
(-510,-249,c),
(-523,-233,o),
(-534,-225,o),
(-542,-225,c)
);
},
{
closed = 1;
nodes = (
(-538,-484,l),
(-526,-498,l),
(-530,-498,l),
(-538,-489,l)
);
},
{
closed = 1;
nodes = (
(-518,-197,l),
(-450,-155,l),
(-418,-155,l),
(-418,-159,l),
(-430,-159,l),
(-473,-188,o),
(-499,-202,o),
(-510,-202,cs),
(-518,-202,l)
);
},
{
closed = 1;
nodes = (
(-514,-531,l),
(-506,-531,l),
(-506,-536,l),
(-514,-536,l)
);
},
{
closed = 1;
nodes = (
(-490,-216,l),
(-470,-211,l),
(-460,-211,o),
(-439,-224,o),
(-406,-249,c),
(-406,-254,l),
(-417,-254,o),
(-422,-257,o),
(-422,-263,c),
(-490,-221,l)
);
},
{
closed = 1;
nodes = (
(-458,-192,l),
(-394,-164,l),
(-394,-173,l),
(-458,-197,l)
);
},
{
closed = 1;
nodes = (
(-430,-329,l),
(-389,-276,o),
(-365,-249,o),
(-358,-249,c),
(-358,-258,l),
(-403,-307,o),
(-426,-337,o),
(-426,-348,c),
(-430,-348,l)
);
},
{
closed = 1;
nodes = (
(-426,-367,l),
(-414,-343,l),
(-379,-308,o),
(-362,-287,o),
(-362,-282,c),
(-358,-282,l),
(-354,-310,l),
(-426,-381,l)
);
},
{
closed = 1;
nodes = (
(-426,-296,l),
(-421,-279,o),
(-401,-252,o),
(-366,-216,c),
(-362,-216,l),
(-362,-225,l),
(-402,-269,o),
(-422,-294,o),
(-422,-301,c),
(-426,-301,l)
);
},
{
closed = 1;
nodes = (
(-402,-211,l),
(-390,-221,l),
(-402,-235,l),
(-426,-211,l)
);
},
{
closed = 1;
nodes = (
(-394,-367,o),
(-370,-342,o),
(-350,-329,c),
(-354,-357,l),
(-391,-390,o),
(-410,-410,o),
(-410,-418,c),
(-418,-418,l),
(-422,-404,l)
);
},
{
closed = 1;
nodes = (
(-410,-437,l),
(-397,-417,o),
(-377,-397,o),
(-350,-376,c),
(-350,-390,o),
(-369,-417,o),
(-406,-456,c),
(-410,-456,l)
);
},
{
closed = 1;
nodes = (
(-398,-470,l),
(-354,-418,l),
(-354,-432,ls),
(-354,-448,o),
(-369,-469,o),
(-398,-494,c),
(-402,-470,l)
);
},
{
closed = 1;
nodes = (
(-402,-192,l),
(-362,-173,l),
(-362,-183,l),
(-398,-197,l),
(-402,-197,l)
);
},
{
closed = 1;
nodes = (
(-376,-488,o),
(-364,-476,o),
(-358,-475,c),
(-358,-490,o),
(-369,-507,o),
(-390,-527,c),
(-394,-512,l)
);
},
{
closed = 1;
nodes = (
(-386,-583,l),
(-378,-574,l),
(-382,-602,l),
(-386,-602,l)
);
},
{
closed = 1;
nodes = (
(-386,-545,l),
(-370,-527,l),
(-370,-545,l),
(-386,-564,l)
);
},
{
closed = 1;
nodes = (
(-358,-550,l),
(-354,-550,l),
(-350,-569,l),
(-354,-569,l),
(-358,-574,l)
);
},
{
closed = 1;
nodes = (
(-350,-588,l),
(-342,-578,l),
(-306,-625,l),
(-310,-625,l),
(-350,-593,l)
);
},
{
closed = 1;
nodes = (
(-342,-503,l),
(-342,-522,l),
(-346,-522,l),
(-350,-503,l)
);
},
{
closed = 1;
nodes = (
(-346,-211,l),
(-323,-224,o),
(-305,-244,o),
(-294,-272,c),
(-294,-277,l),
(-346,-221,l)
);
},
{
closed = 1;
nodes = (
(-342,-527,l),
(-338,-527,l),
(-338,-541,l),
(-342,-541,l)
);
},
{
closed = 1;
nodes = (
(-342,-451,l),
(-338,-451,o),
(-330,-467,o),
(-318,-498,c),
(-326,-508,l),
(-342,-461,l)
);
},
{
closed = 1;
nodes = (
(-342,-254,l),
(-322,-266,o),
(-306,-286,o),
(-294,-315,c),
(-294,-329,l),
(-342,-263,l)
);
},
{
closed = 1;
nodes = (
(-342,-192,l),
(-322,-188,l),
(-318,-188,l),
(-326,-197,l),
(-342,-197,l)
);
},
{
closed = 1;
nodes = (
(-338,-395,l),
(-334,-395,l),
(-315,-429,o),
(-306,-452,o),
(-306,-465,cs),
(-306,-475,l),
(-327,-446,o),
(-338,-424,o),
(-338,-409,cs)
);
},
{
closed = 1;
nodes = (
(-338,-352,l),
(-323,-365,o),
(-309,-385,o),
(-298,-414,c),
(-298,-418,l),
(-306,-418,l),
(-338,-357,l)
);
},
{
closed = 1;
nodes = (
(-338,-301,l),
(-324,-312,o),
(-308,-338,o),
(-290,-381,c),
(-290,-385,l),
(-338,-319,l)
);
},
{
closed = 1;
nodes = (
(-330,-541,l),
(-326,-541,l),
(-315,-566,o),
(-294,-595,o),
(-262,-630,c),
(-278,-630,l),
(-311,-597,o),
(-329,-572,o),
(-334,-555,c)
);
},
{
closed = 1;
nodes = (
(-290,-216,l),
(-290,-221,l),
(-310,-225,l),
(-310,-221,l),
(-314,-216,l)
);
},
{
closed = 1;
nodes = (
(-306,-536,l),
(-282,-536,l),
(-278,-541,l),
(-255,-590,o),
(-237,-615,o),
(-226,-616,c),
(-226,-625,l),
(-238,-630,l),
(-267,-603,o),
(-289,-575,o),
(-306,-545,c)
);
},
{
closed = 1;
nodes = (
(-306,-483,o),
(-293,-467,o),
(-266,-456,c),
(-254,-456,l),
(-254,-461,l),
(-306,-503,l)
);
},
{
closed = 1;
nodes = (
(-286,-512,l),
(-269,-489,o),
(-244,-470,o),
(-210,-456,c),
(-202,-456,l),
(-202,-461,l),
(-210,-461,l),
(-248,-498,o),
(-273,-517,o),
(-286,-517,c)
);
},
{
closed = 1;
nodes = (
(-286,-216,l),
(-278,-216,l),
(-278,-221,l),
(-286,-221,l)
);
},
{
closed = 1;
nodes = (
(-262,-531,l),
(-234,-536,l),
(-232,-555,o),
(-229,-564,o),
(-226,-564,c),
(-205,-595,o),
(-191,-611,o),
(-186,-611,c),
(-186,-616,l),
(-206,-621,l),
(-231,-592,o),
(-251,-562,o),
(-266,-531,c)
);
},
{
closed = 1;
nodes = (
(-242,-508,l),
(-174,-465,l),
(-174,-475,l),
(-242,-517,l)
);
},
{
closed = 1;
nodes = (
(-202,-536,l),
(-202,-541,l),
(-210,-541,ls),
(-218,-541,o),
(-222,-538,o),
(-222,-531,c)
);
},
{
closed = 1;
nodes = (
(-186,-555,l),
(-171,-583,o),
(-159,-597,o),
(-150,-597,c),
(-150,-602,o),
(-158,-607,o),
(-174,-611,c),
(-174,-607,l),
(-202,-564,l)
);
},
{
closed = 1;
nodes = (
(-198,-517,l),
(-189,-500,o),
(-163,-486,o),
(-122,-475,c),
(-122,-480,l),
(-118,-484,l),
(-127,-484,o),
(-147,-495,o),
(-178,-517,c),
(-182,-517,l),
(-186,-512,l),
(-190,-512,l),
(-194,-517,l)
);
},
{
closed = 1;
nodes = (
(-174,-658,l),
(-170,-658,l),
(-170,-649,l),
(-174,-649,l)
);
},
{
closed = 1;
nodes = (
(-166,-555,l),
(-150,-555,l),
(-150,-564,o),
(-143,-578,o),
(-130,-597,c),
(-138,-597,l),
(-166,-560,l)
);
},
{
closed = 1;
nodes = (
(-138,-555,l),
(-122,-560,l),
(-87,-610,o),
(-65,-635,o),
(-58,-635,c),
(-58,-640,l),
(-62,-640,l),
(-87,-627,o),
(-113,-600,o),
(-138,-560,c)
);
},
{
closed = 1;
nodes = (
(-134,-531,l),
(-121,-509,o),
(-111,-498,o),
(-106,-498,cs),
(-102,-498,l),
(-118,-461,l),
(-118,-456,l),
(-114,-456,l),
(-114,-462,o),
(-94,-487,o),
(-54,-531,c),
(-54,-541,l),
(-58,-541,l),
(-90,-508,l),
(-98,-508,l),
(-130,-536,l),
(-134,-536,l)
);
},
{
closed = 1;
nodes = (
(-122,-409,l),
(-118,-409,l),
(-118,-420,o),
(-95,-449,o),
(-50,-498,c),
(-50,-508,l),
(-57,-508,o),
(-81,-481,o),
(-122,-428,c)
);
},
{
closed = 1;
nodes = (
(-118,-376,l),
(-46,-447,l),
(-50,-475,l),
(-54,-475,l),
(-54,-470,l),
(-91,-431,o),
(-112,-404,o),
(-118,-390,c)
);
},
{
closed = 1;
nodes = (
(-110,-348,l),
(-110,-338,l),
(-102,-338,l),
(-102,-343,l),
(-62,-379,o),
(-42,-407,o),
(-42,-428,c),
(-65,-411,o),
(-88,-388,o),
(-110,-357,cs),
(-114,-352,l)
);
},
{
closed = 1;
nodes = (
(-86,-555,l),
(-76,-562,o),
(-67,-574,o),
(-58,-593,c),
(-58,-611,l),
(-67,-606,o),
(-82,-587,o),
(-102,-555,c)
);
},
{
closed = 1;
nodes = (
(-102,-301,l),
(-94,-301,l),
(-94,-305,l),
(-42,-371,l),
(-42,-381,l),
(-69,-360,o),
(-89,-339,o),
(-102,-319,c)
);
},
{
closed = 1;
nodes = (
(-94,-527,l),
(-86,-527,l),
(-86,-531,l),
(-94,-531,l)
);
},
{
closed = 1;
nodes = (
(-90,-263,l),
(-61,-288,o),
(-46,-309,o),
(-46,-324,cs),
(-46,-338,l),
(-90,-286,l),
(-94,-286,l)
);
},
{
closed = 1;
nodes = (
(-86,-230,l),
(-82,-230,l),
(-62,-251,o),
(-51,-266,o),
(-50,-277,cs),
(-50,-282,l),
(-57,-282,o),
(-69,-269,o),
(-86,-244,c)
);
},
{
closed = 1;
nodes = (
(-78,-192,l),
(-62,-211,l),
(-62,-230,l),
(-78,-211,l)
);
},
{
closed = 1;
nodes = (
(-78,-155,l),
(-74,-155,l),
(-70,-178,l),
(-70,-183,l),
(-78,-173,l)
);
},
{
closed = 1;
nodes = (
(-54,-555,l),
(-54,-564,l),
(-62,-555,l)
);
},
{
closed = 1;
nodes = (
(-50,-183,l),
(-46,-183,l),
(-42,-188,l),
(-46,-206,l),
(-50,-206,l)
);
},
{
closed = 1;
nodes = (
(-46,-621,l),
(-42,-616,l),
(-10,-640,l),
(-10,-644,l),
(-30,-644,l),
(-46,-625,l)
);
},
{
closed = 1;
nodes = (
(-38,-235,l),
(-34,-235,l),
(-34,-244,ls),
(-34,-253,o),
(-37,-258,o),
(-42,-258,c)
);
},
{
closed = 1;
nodes = (
(-38,-555,l),
(-30,-555,l),
(-26,-560,l),
(-1,-607,o),
(18,-630,o),
(30,-630,c),
(30,-640,l),
(18,-644,l),
(-11,-621,o),
(-30,-603,o),
(-38,-588,c)
);
},
{
closed = 1;
nodes = (
(-38,-534,o),
(-21,-513,o),
(14,-480,c),
(14,-484,l),
(3,-511,o),
(-14,-532,o),
(-38,-545,c)
);
},
{
closed = 1;
nodes = (
(-34,-494,l),
(14,-428,l),
(14,-442,l),
(2,-470,o),
(-14,-490,o),
(-34,-503,c)
);
},
{
closed = 1;
nodes = (
(-34,-296,l),
(-18,-249,l),
(-14,-249,l),
(-10,-263,l),
(-34,-305,l)
);
},
{
closed = 1;
nodes = (
(-34,-216,l),
(-30,-216,l),
(-30,-230,l),
(-34,-230,l)
);
},
{
closed = 1;
nodes = (
(-30,-437,l),
(18,-371,l),
(12,-399,o),
(-4,-427,o),
(-30,-456,c)
);
},
{
closed = 1;
nodes = (
(-30,-395,o),
(-19,-373,o),
(2,-338,c),
(10,-338,l),
(10,-343,l),
(-1,-372,o),
(-15,-392,o),
(-30,-404,c)
);
},
{
closed = 1;
nodes = (
(-30,-348,ls),
(-30,-333,o),
(-19,-311,o),
(2,-282,c),
(2,-291,ls),
(2,-304,o),
(-7,-327,o),
(-26,-362,c),
(-30,-362,l)
);
},
{
closed = 1;
nodes = (
(-2,-545,l),
(14,-550,l),
(47,-600,o),
(67,-625,o),
(74,-625,c),
(74,-630,l),
(50,-635,l),
(24,-608,o),
(3,-578,o),
(-14,-545,c)
);
},
{
closed = 1;
nodes = (
(10,-522,l),
(86,-480,l),
(90,-480,l),
(90,-489,l),
(10,-531,l)
);
},
{
closed = 1;
nodes = (
(26,-480,l),
(46,-470,l),
(58,-470,l),
(58,-475,l),
(30,-489,l),
(26,-489,l)
);
},
{
closed = 1;
nodes = (
(58,-550,l),
(110,-616,l),
(110,-621,l),
(86,-625,l),
(34,-545,l)
);
},
{
closed = 1;
nodes = (
(62,-531,l),
(62,-524,o),
(83,-510,o),
(126,-489,c),
(154,-494,l),
(154,-498,l),
(139,-498,o),
(115,-509,o),
(82,-531,c),
(82,-527,l),
(66,-531,l)
);
},
{
closed = 1;
nodes = (
(98,-550,ls),
(113,-550,o),
(131,-569,o),
(150,-607,c),
(134,-611,l),
(109,-590,o),
(92,-570,o),
(82,-550,c)
);
},
{
closed = 1;
nodes = (
(126,-527,l),
(170,-508,l),
(178,-517,l),
(126,-536,l)
);
},
{
closed = 1;
nodes = (
(142,-555,l),
(162,-560,l),
(173,-582,o),
(183,-593,o),
(190,-593,c),
(190,-602,l),
(174,-602,l),
(142,-564,l)
);
},
{
closed = 1;
nodes = (
(170,-244,l),
(166,-202,l),
(166,-197,l),
(170,-197,l),
(186,-268,l),
(231,-366,o),
(254,-422,o),
(254,-437,cs),
(254,-470,l),
(250,-470,l),
(203,-371,o),
(175,-302,o),
(166,-263,c)
);
},
{
closed = 1;
nodes = (
(170,627,l),
(166,669,l),
(166,674,l),
(170,674,l),
(186,603,l),
(231,505,o),
(254,449,o),
(254,434,cs),
(254,401,l),
(250,401,l),
(215,472,o),
(187,541,o),
(166,608,c)
);
},
{
closed = 1;
nodes = (
(170,-541,l),
(206,-527,l),
(206,-536,l),
(174,-545,l),
(170,-545,l)
);
},
{
closed = 1;
nodes = (
(170,-329,l),
(174,-329,l),
(182,-362,l),
(254,-531,l),
(254,-541,l),
(223,-541,o),
(195,-472,o),
(170,-334,c)
);
},
{
closed = 1;
nodes = (
(170,-141,ls),
(170,-125,o),
(174,-115,o),
(182,-112,c),
(186,-145,l),
(262,-301,l),
(258,-305,l),
(258,-376,l),
(254,-376,l),
(198,-255,o),
(170,-181,o),
(170,-155,cs)
);
},
{
closed = 1;
nodes = (
(170,542,l),
(174,542,l),
(182,509,l),
(254,340,l),
(254,302,l),
(250,302,l),
(197,409,o),
(170,487,o),
(170,537,cs)
);
},
{
closed = 1;
nodes = (
(170,740,l),
(178,759,l),
(182,759,l),
(186,726,l),
(234,633,o),
(258,581,o),
(258,570,cs),
(258,495,l),
(254,495,l),
(198,616,o),
(170,690,o),
(170,716,cs)
);
},
{
closed = 1;
nodes = (
(179,-56,o),
(182,-37,o),
(182,1,c),
(186,1,l),
(186,-4,ls),
(186,-19,o),
(213,-77,o),
(266,-178,c),
(262,-202,l),
(266,-221,l),
(262,-249,l),
(258,-249,l),
(258,-239,l),
(223,-184,o),
(195,-123,o),
(174,-56,c)
);
},
{
closed = 1;
nodes = (
(179,815,o),
(182,834,o),
(182,872,c),
(186,872,l),
(186,854,o),
(213,794,o),
(266,693,c),
(262,669,l),
(266,646,l),
(262,627,l),
(266,622,l),
(266,618,l),
(225,684,o),
(195,750,o),
(174,815,c)
);
},
{
closed = 1;
nodes = (
(182,24,l),
(194,43,l),
(194,81,l),
(198,104,l),
(202,104,l),
(202,79,o),
(205,67,o),
(210,67,c),
(210,54,o),
(229,8,o),
(266,-70,c),
(266,-75,l),
(262,-79,l),
(266,-112,l),
(266,-131,l),
(262,-131,l),
(258,-117,l),
(190,20,l),
(186,20,l),
(182,15,l)
);
},
{
closed = 1;
nodes = (
(182,895,l),
(194,914,l),
(194,952,l),
(198,975,l),
(202,975,l),
(202,944,o),
(223,886,o),
(266,801,c),
(262,787,l),
(266,768,l),
(266,740,l),
(262,740,l),
(258,754,l),
(190,891,l),
(186,891,l),
(182,886,l)
);
},
{
closed = 1;
nodes = (
(194,1413,l),
(226,1352,l),
(222,1352,l),
(206,1366,o),
(194,1386,o),
(186,1413,c)
);
},
{
closed = 1;
nodes = (
(217,-574,o),
(230,-582,o),
(230,-593,c),
(206,-593,l),
(206,-583,l),
(190,-569,l)
);
},
{
closed = 1;
nodes = (
(194,1437,l),
(230,1470,l),
(234,1470,l),
(198,1427,l),
(194,1427,l)
);
},
{
closed = 1;
nodes = (
(206,203,l),
(210,203,l),
(210,188,o),
(214,172,o),
(222,156,c),
(238,135,o),
(246,108,o),
(246,76,c),
(254,85,l),
(258,85,l),
(262,81,l),
(262,76,l),
(258,71,l),
(258,48,l),
(262,43,l),
(258,38,l),
(258,34,l),
(262,29,l),
(258,29,l),
(262,1,l),
(262,-4,l),
(258,-4,l),
(258,7,o),
(250,21,o),
(234,38,c),
(202,128,l),
(198,128,l)
);
},
{
closed = 1;
nodes = (
(206,1074,l),
(210,1074,l),
(214,1051,l),
(243,992,o),
(258,957,o),
(258,947,cs),
(258,905,l),
(262,900,l),
(258,900,l),
(262,872,l),
(262,867,l),
(258,867,l),
(258,878,o),
(250,892,o),
(234,909,c),
(202,999,l),
(198,999,l)
);
},
{
closed = 1;
nodes = (
(210,307,l),
(214,307,l),
(222,274,l),
(250,203,l),
(250,156,l),
(206,236,l)
);
},
{
closed = 1;
nodes = (
(210,1178,l),
(214,1178,l),
(218,1154,l),
(242,1102,o),
(254,1069,o),
(254,1055,cs),
(254,1018,l),
(206,1107,l)
);
},
{
closed = 1;
nodes = (
(222,1418,l),
(233,1377,o),
(243,1357,o),
(254,1357,c),
(254,1352,l),
(242,1352,ls),
(232,1352,o),
(221,1374,o),
(210,1418,c)
);
},
{
closed = 1;
nodes = (
(218,1258,l),
(237,1237,o),
(246,1198,o),
(246,1140,cs),
(246,1135,l),
(242,1135,l),
(218,1206,l)
);
},
{
closed = 1;
nodes = (
(223,1343,o),
(228,1322,o),
(234,1281,c),
(222,1286,l),
(222,1310,l),
(218,1343,l)
);
},
{
closed = 1;
nodes = (
(218,1432,l),
(229,1449,o),
(248,1467,o),
(274,1484,c),
(274,1479,l),
(222,1432,l)
);
},
{
closed = 1;
nodes = (
(226,-550,l),
(246,-550,l),
(246,-555,l),
(226,-560,l)
);
},
{
closed = 1;
nodes = (
(230,302,l),
(246,283,l),
(246,264,l),
(242,264,l),
(230,297,l)
);
},
{
closed = 1;
nodes = (
(230,1423,l),
(246,1423,l),
(274,1361,l),
(274,1357,l),
(270,1352,l),
(257,1359,o),
(244,1381,o),
(230,1418,c)
);
},
{
closed = 1;
nodes = (
(238,-583,l),
(242,-583,l),
(266,-588,l),
(266,-593,l),
(254,-593,l),
(238,-588,l)
);
},
{
closed = 1;
nodes = (
(246,1441,l),
(310,1484,l),
(314,1484,l),
(314,1479,l),
(307,1479,o),
(289,1465,o),
(258,1437,c),
(246,1437,l)
);
},
{
closed = 1;
nodes = (
(254,1263,l),
(258,1296,l),
(262,1296,l),
(266,1272,l),
(261,1272,o),
(259,1259,o),
(258,1234,c),
(262,1206,l),
(254,1206,l)
);
},
{
closed = 1;
nodes = (
(274,1215,l),
(278,1215,l),
(282,1178,l),
(270,1079,l),
(266,1079,l),
(262,1117,l)
);
},
{
closed = 1;
nodes = (
(274,1427,l),
(302,1366,l),
(290,1361,l),
(280,1361,o),
(271,1383,o),
(262,1427,c)
);
},
{
closed = 1;
nodes = (
(270,-536,l),
(313,-427,o),
(334,-355,o),
(334,-319,c),
(338,-319,l),
(338,-343,ls),
(338,-403,o),
(318,-474,o),
(278,-555,c),
(266,-555,l)
);
},
{
closed = 1;
nodes = (
(266,326,l),
(311,440,o),
(334,514,o),
(334,547,c),
(338,547,l),
(338,528,ls),
(338,451,o),
(314,377,o),
(266,307,c)
);
},
{
closed = 1;
nodes = (
(270,-442,l),
(313,-287,o),
(334,-200,o),
(334,-183,c),
(338,-183,l),
(338,-197,l),
(334,-249,l),
(338,-268,l),
(274,-470,l),
(270,-470,l)
);
},
{
closed = 1;
nodes = (
(274,100,l),
(270,142,l),
(283,183,o),
(290,222,o),
(290,260,c),
(294,260,l),
(302,227,l),
(278,81,l),
(274,81,l),
(270,100,l)
);
},
{
closed = 1;
nodes = (
(270,274,l),
(274,274,l),
(274,236,l),
(270,236,l)
);
},
{
closed = 1;
nodes = (
(270,429,l),
(313,584,o),
(334,671,o),
(334,688,c),
(338,688,l),
(338,674,l),
(334,622,l),
(338,603,l),
(274,401,l),
(270,401,l)
);
},
{
closed = 1;
nodes = (
(274,971,l),
(270,1013,l),
(283,1054,o),
(290,1093,o),
(290,1131,c),
(294,1131,l),
(302,1102,l),
(278,952,l),
(274,952,l),
(270,971,l)
);
},
{
closed = 1;
nodes = (
(274,-334,l),
(278,-272,l),
(313,-149,o),
(330,-78,o),
(330,-60,c),
(334,-60,l),
(338,-79,l),
(338,-111,o),
(318,-199,o),
(278,-343,c),
(274,-343,l)
);
},
{
closed = 1;
nodes = (
(310,166,l),
(306,189,l),
(310,189,l),
(318,118,l),
(282,-65,l),
(278,-65,l),
(274,-4,l)
);
},
{
closed = 1;
nodes = (
(274,537,l),
(278,599,l),
(313,722,o),
(330,793,o),
(330,811,c),
(334,811,l),
(338,792,l),
(327,716,o),
(307,628,o),
(278,528,c),
(274,528,l)
);
},
{
closed = 1;
nodes = (
(310,1037,l),
(306,1060,l),
(310,1060,l),
(318,989,l),
(282,806,l),
(278,806,l),
(274,867,l)
);
},
{
closed = 1;
nodes = (
(278,-178,l),
(282,-178,l),
(282,-188,l),
(278,-188,l)
);
},
{
closed = 1;
nodes = (
(322,48,l),
(326,48,l),
(330,1,l),
(326,1,l),
(315,-68,o),
(302,-126,o),
(286,-173,c),
(278,-173,l)
);
},
{
closed = 1;
nodes = (
(278,688,l),
(282,731,l),
(322,919,l),
(326,919,l),
(330,872,l),
(282,683,l),
(278,683,l)
);
},
{
closed = 1;
nodes = (
(282,1446,l),
(330,1479,l),
(334,1479,l),
(294,1441,l),
(282,1441,l)
);
},
{
closed = 1;
nodes = (
(306,1427,l),
(306,1414,o),
(313,1398,o),
(326,1380,c),
(326,1376,l),
(310,1371,l),
(290,1427,l)
);
},
{
closed = 1;
nodes = (
(310,1441,l),
(315,1451,o),
(330,1462,o),
(354,1474,c),
(366,1470,l),
(366,1465,l),
(356,1465,o),
(341,1457,o),
(322,1441,c)
);
},
{
closed = 1;
nodes = (
(330,1427,ls),
(335,1427,o),
(341,1415,o),
(350,1390,c),
(350,1385,l),
(338,1380,l),
(328,1390,o),
(320,1406,o),
(314,1427,c)
);
},
{
closed = 1;
nodes = (
(374,1460,l),
(378,1460,l),
(350,1437,l),
(338,1437,l)
);
},
{
closed = 1;
nodes = (
(358,1423,l),
(374,1394,l),
(362,1390,l),
(357,1391,o),
(353,1402,o),
(350,1423,c)
);
},
{
closed = 1;
nodes = (
(378,1441,l),
(382,1441,l),
(374,1432,l),
(370,1432,l)
);
},
{
closed = 1;
nodes = (
(374,1418,l),
(390,1418,l),
(398,1399,l),
(386,1399,l),
(374,1413,l)
);
},
{
closed = 1;
nodes = (
(386,1432,l),
(410,1432,l),
(410,1427,l),
(386,1427,l)
);
},
{
closed = 1;
nodes = (
(386,1446,l),
(394,1446,l),
(394,1441,l),
(386,1441,l)
);
},
{
closed = 1;
nodes = (
(406,1409,l),
(414,1399,l),
(406,1399,l)
);
}
);
width = 700;
}
);
note = uni17D2_1788;
},
{
category = Letter;
glyphname = uni17D2_178D;
lastChange = "2023-01-31 11:13:53 +0000";
layers = (
{
layerId = m01;
shapes = (
{
closed = 1;
nodes = (
(293,1464,l),
(244,1414,l),
(239,1414,l),
(239,1426,l),
(228,1426,l),
(228,1420,l),
(234,1414,l),
(234,1395,l),
(223,1395,l),
(179,1407,l),
(174,1401,l),
(174,1388,o),
(194,1380,o),
(234,1375,c),
(234,1229,l),
(163,676,l),
(166,620,o),
(174,578,o),
(185,549,c),
(179,549,l),
(189,506,o),
(200,485,o),
(212,485,c),
(163,79,l),
(163,-2,o),
(188,-63,o),
(239,-106,c),
(239,-111,l),
(174,-506,l),
(196,-614,l),
(196,-620,l),
(190,-627,l),
(196,-633,l),
(125,-639,l),
(103,-633,l),
(103,-620,l),
(120,-620,l),
(174,-627,l),
(174,-614,o),
(178,-608,o),
(185,-608,c),
(106,-523,o),
(34,-481,o),
(-32,-481,cs),
(-119,-481,l),
(-141,-487,l),
(-146,-487,l),
(-141,-468,l),
(-141,-462,l),
(-146,-455,l),
(-141,-455,l),
(-141,-425,o),
(-145,-410,o),
(-152,-410,c),
(-152,-325,o),
(-183,-273,o),
(-244,-252,c),
(-249,-245,l),
(-249,-194,o),
(-222,-169,o),
(-168,-169,c),
(-168,-156,l),
(-173,-151,l),
(-249,-182,l),
(-293,-156,l),
(-309,-169,l),
(-325,-169,ls),
(-409,-169,o),
(-503,-220,o),
(-608,-321,c),
(-608,-316,l),
(-673,-235,o),
(-734,-184,o),
(-792,-163,c),
(-792,-175,l),
(-911,-175,l),
(-901,-163,l),
(-906,-156,l),
(-890,-118,l),
(-901,-106,l),
(-906,-106,l),
(-919,-113,o),
(-928,-126,o),
(-933,-144,c),
(-933,-151,l),
(-1004,-125,l),
(-1009,-125,l),
(-1009,-137,l),
(-944,-163,l),
(-944,-186,o),
(-962,-203,o),
(-998,-214,c),
(-1063,-240,o),
(-1096,-308,o),
(-1096,-417,cs),
(-1096,-424,l),
(-1091,-429,l),
(-1096,-429,l),
(-1091,-481,l),
(-1091,-516,o),
(-1066,-579,o),
(-1015,-671,c),
(-1015,-703,l),
(-1074,-723,l),
(-1074,-728,l),
(-1069,-735,l),
(-1004,-709,l),
(-979,-715,o),
(-966,-724,o),
(-966,-735,c),
(-949,-723,l),
(-949,-714,o),
(-960,-709,o),
(-982,-709,c),
(-982,-703,l),
(-928,-703,l),
(-928,-709,l),
(-944,-709,l),
(-944,-723,l),
(-939,-723,ls),
(-840,-723,o),
(-746,-663,o),
(-656,-544,c),
(-656,-527,o),
(-649,-519,o),
(-635,-519,c),
(-635,-506,l),
(-665,-506,o),
(-687,-493,o),
(-700,-468,c),
(-738,-468,ls),
(-783,-468,o),
(-818,-483,o),
(-841,-512,c),
(-841,-519,l),
(-765,-532,l),
(-765,-519,o),
(-760,-512,o),
(-749,-512,c),
(-765,-537,l),
(-754,-537,o),
(-747,-546,o),
(-743,-563,c),
(-765,-595,l),
(-770,-595,l),
(-760,-556,l),
(-760,-551,l),
(-825,-563,l),
(-825,-575,l),
(-819,-582,l),
(-825,-582,l),
(-828,-620,o),
(-837,-639,o),
(-852,-639,c),
(-852,-620,ls),
(-852,-606,o),
(-847,-591,o),
(-836,-575,c),
(-836,-570,l),
(-917,-589,l),
(-911,-570,l),
(-808,-366,l),
(-808,-360,l),
(-814,-353,l),
(-667,-410,l),
(-678,-424,l),
(-678,-429,l),
(-673,-436,l),
(-646,-424,l),
(-559,-481,l),
(-553,-474,l),
(-553,-468,l),
(-558,-468,o),
(-566,-442,o),
(-575,-391,c),
(-466,-360,l),
(-466,-353,l),
(-472,-347,l),
(-466,-341,l),
(-459,-294,o),
(-447,-271,o),
(-429,-271,c),
(-429,-308,o),
(-440,-335,o),
(-461,-353,c),
(-380,-335,l),
(-369,-335,l),
(-385,-385,l),
(-385,-416,o),
(-376,-450,o),
(-358,-487,c),
(-358,-493,l),
(-369,-506,l),
(-401,-506,l),
(-401,-519,l),
(-374,-525,l),
(-374,-532,l),
(-385,-532,l),
(-412,-512,l),
(-412,-506,l),
(-466,-525,l),
(-488,-519,l),
(-488,-532,l),
(-510,-544,l),
(-521,-544,o),
(-526,-548,o),
(-526,-556,cs),
(-526,-563,l),
(-515,-563,l),
(-537,-646,l),
(-537,-659,l),
(-532,-703,l),
(-537,-709,l),
(-528,-722,o),
(-513,-728,o),
(-494,-728,c),
(-494,-735,l),
(-499,-742,l),
(-499,-747,l),
(-481,-747,o),
(-467,-762,o),
(-456,-792,c),
(-450,-792,l),
(-445,-786,l),
(-456,-766,l),
(-456,-747,l),
(-450,-747,l),
(-412,-754,l),
(-412,-742,l),
(-401,-742,l),
(-401,-755,o),
(-383,-761,o),
(-347,-761,cs),
(-293,-761,l),
(-287,-754,l),
(-277,-786,l),
(-217,-716,l),
(-184,-716,l),
(-184,-703,l),
(-211,-703,l),
(-193,-648,o),
(-180,-620,o),
(-173,-620,c),
(-162,-579,o),
(-153,-558,o),
(-146,-556,c),
(-146,-585,o),
(-72,-630,o),
(76,-690,c),
(221,-717,o),
(293,-734,o),
(293,-742,cs),
(293,-774,o),
(288,-810,o),
(277,-850,c),
(288,-862,l),
(304,-862,o),
(313,-817,o),
(315,-728,c),
(369,-735,l),
(369,-723,l),
(342,-716,l),
(342,-709,l),
(393,-636,o),
(418,-577,o),
(418,-532,c),
(413,-532,l),
(407,-525,l),
(413,-500,l),
(413,-493,l),
(407,-487,l),
(413,-448,l),
(413,-436,ls),
(413,-364,o),
(409,-328,o),
(402,-328,c),
(400,-271,o),
(380,-198,o),
(342,-111,c),
(382,-58,o),
(402,-9,o),
(402,35,cs),
(402,186,o),
(380,315,o),
(337,422,c),
(380,499,o),
(402,569,o),
(402,632,c),
(396,664,l),
(396,670,l),
(402,676,l),
(396,696,l),
(402,753,l),
(402,772,ls),
(402,935,o),
(366,1109,o),
(293,1293,c),
(293,1306,l),
(386,1299,l),
(402,1306,l),
(402,1299,l),
(447,1299,o),
(516,1331,o),
(608,1395,c),
(608,1407,l),
(575,1407,l),
(342,1471,l),
(299,1459,l)
);
},
{
closed = 1;
nodes = (
(-1080,-410,l),
(-1053,-367,o),
(-1019,-333,o),
(-977,-309,c),
(-977,-316,ls),
(-977,-331,o),
(-1009,-362,o),
(-1074,-410,c)
);
},
{
closed = 1;
nodes = (
(-1074,-448,l),
(-1058,-421,o),
(-1031,-395,o),
(-993,-372,c),
(-993,-391,o),
(-1018,-418,o),
(-1069,-455,c),
(-1074,-455,l)
);
},
{
closed = 1;
nodes = (
(-1069,-500,l),
(-1062,-481,o),
(-1038,-456,o),
(-998,-424,c),
(-1004,-448,l),
(-1043,-495,o),
(-1063,-523,o),
(-1063,-532,c),
(-1069,-532,l)
);
},
{
closed = 1;
nodes = (
(-1063,-328,l),
(-955,-239,l),
(-955,-271,l),
(-970,-271,o),
(-1006,-298,o),
(-1063,-353,c),
(-1069,-353,l)
);
},
{
closed = 1;
nodes = (
(-1058,-290,l),
(-1042,-257,o),
(-1008,-230,o),
(-955,-207,c),
(-949,-207,l),
(-949,-214,l),
(-1058,-297,l)
);
},
{
closed = 1;
nodes = (
(-1009,-493,l),
(-1004,-493,l),
(-1009,-512,l),
(-1031,-538,o),
(-1042,-555,o),
(-1042,-563,c),
(-1053,-551,l)
);
},
{
closed = 1;
nodes = (
(-1015,-551,l),
(-1004,-563,l),
(-1031,-595,l),
(-1036,-595,l)
);
},
{
closed = 1;
nodes = (
(-1009,-601,l),
(-998,-614,l),
(-998,-633,l),
(-1015,-639,l),
(-1020,-639,l)
);
},
{
closed = 1;
nodes = (
(-993,-650,o),
(-982,-627,o),
(-971,-627,c),
(-978,-674,o),
(-989,-697,o),
(-1004,-697,c)
);
},
{
closed = 1;
nodes = (
(-987,-519,l),
(-928,-570,l),
(-939,-595,l),
(-987,-544,l)
);
},
{
closed = 1;
nodes = (
(-982,-455,l),
(-960,-468,l),
(-906,-525,l),
(-922,-551,l),
(-987,-493,l)
);
},
{
closed = 1;
nodes = (
(-982,-575,l),
(-975,-578,o),
(-967,-589,o),
(-960,-608,c),
(-977,-614,l),
(-982,-614,l)
);
},
{
closed = 1;
nodes = (
(-977,-398,l),
(-890,-474,l),
(-893,-499,o),
(-899,-512,o),
(-906,-512,c),
(-906,-495,o),
(-930,-467,o),
(-977,-429,c)
);
},
{
closed = 1;
nodes = (
(-966,-347,l),
(-960,-347,l),
(-915,-379,o),
(-883,-411,o),
(-863,-443,c),
(-874,-468,l),
(-971,-379,l)
);
},
{
closed = 1;
nodes = (
(-966,-671,l),
(-949,-608,l),
(-933,-608,l),
(-955,-678,l),
(-966,-678,l)
);
},
{
closed = 1;
nodes = (
(-949,-290,l),
(-944,-290,l),
(-891,-336,o),
(-859,-372,o),
(-846,-398,c),
(-846,-405,l),
(-857,-417,l),
(-863,-417,l),
(-863,-404,o),
(-894,-375,o),
(-955,-328,c)
);
},
{
closed = 1;
nodes = (
(-949,-684,l),
(-911,-684,l),
(-911,-671,o),
(-899,-665,o),
(-874,-665,cs),
(-857,-665,l),
(-857,-659,l),
(-803,-652,l),
(-803,-659,l),
(-846,-659,l),
(-846,-671,l),
(-830,-671,l),
(-830,-678,l),
(-868,-678,l),
(-868,-690,l),
(-857,-690,l),
(-857,-697,l),
(-911,-697,l),
(-949,-690,l)
);
},
{
closed = 1;
nodes = (
(-939,-671,l),
(-927,-620,o),
(-916,-595,o),
(-906,-595,cs),
(-895,-595,l),
(-906,-633,l),
(-906,-659,l),
(-933,-671,l)
);
},
{
closed = 1;
nodes = (
(-933,-175,l),
(-911,-188,l),
(-917,-283,l),
(-922,-283,l),
(-939,-220,l)
);
},
{
closed = 1;
nodes = (
(-901,-194,l),
(-879,-214,l),
(-884,-283,l),
(-879,-302,l),
(-879,-309,l),
(-897,-302,o),
(-906,-287,o),
(-906,-264,c)
);
},
{
closed = 1;
nodes = (
(-901,-690,l),
(-879,-690,l),
(-879,-678,l),
(-901,-678,l)
);
},
{
closed = 1;
nodes = (
(-895,-652,l),
(-890,-605,o),
(-877,-582,o),
(-857,-582,c),
(-862,-629,o),
(-871,-652,o),
(-884,-652,cs)
);
},
{
closed = 1;
nodes = (
(-895,-163,l),
(-830,-163,l),
(-830,-151,l),
(-895,-151,l)
);
},
{
closed = 1;
nodes = (
(-830,-353,l),
(-830,-360,l),
(-836,-366,l),
(-836,-379,l),
(-830,-385,l),
(-841,-385,l),
(-841,-374,o),
(-852,-355,o),
(-874,-328,c)
);
},
{
closed = 1;
nodes = (
(-874,-188,l),
(-808,-188,l),
(-765,-201,l),
(-760,-201,l),
(-754,-194,l),
(-754,-201,l),
(-749,-207,l),
(-874,-194,l)
);
},
{
closed = 1;
nodes = (
(-863,-226,l),
(-863,-220,l),
(-830,-233,l),
(-830,-239,l),
(-841,-309,l),
(-841,-321,l),
(-836,-328,l),
(-846,-328,ls),
(-856,-328,o),
(-863,-313,o),
(-868,-283,c)
);
},
{
closed = 1;
nodes = (
(-830,-214,l),
(-825,-214,l),
(-734,-225,o),
(-689,-235,o),
(-689,-245,c),
(-830,-220,l)
);
},
{
closed = 1;
nodes = (
(-814,-245,l),
(-808,-245,l),
(-787,-258,l),
(-792,-341,l),
(-798,-347,l),
(-803,-341,l),
(-818,-341,o),
(-825,-330,o),
(-825,-309,c)
);
},
{
closed = 1;
nodes = (
(-819,-633,l),
(-732,-620,l),
(-732,-627,l),
(-787,-639,l),
(-787,-646,l),
(-781,-652,l),
(-792,-652,l),
(-792,-643,o),
(-801,-639,o),
(-819,-639,c)
);
},
{
closed = 1;
nodes = (
(-803,-570,l),
(-781,-570,l),
(-781,-597,o),
(-792,-614,o),
(-814,-620,c),
(-819,-620,l)
);
},
{
closed = 1;
nodes = (
(-819,-169,l),
(-803,-169,l),
(-803,-156,l),
(-819,-156,l)
);
},
{
closed = 1;
nodes = (
(-792,-506,l),
(-781,-506,l),
(-781,-512,l),
(-792,-512,l)
);
},
{
closed = 1;
nodes = (
(-787,-487,l),
(-776,-487,l),
(-776,-493,l),
(-787,-493,l)
);
},
{
closed = 1;
nodes = (
(-770,-271,l),
(-749,-283,l),
(-754,-341,l),
(-749,-360,l),
(-767,-360,o),
(-778,-352,o),
(-781,-335,c)
);
},
{
closed = 1;
nodes = (
(-770,-608,l),
(-738,-608,l),
(-738,-595,l),
(-743,-589,l),
(-727,-589,l),
(-716,-601,l),
(-716,-608,l),
(-749,-614,l),
(-770,-614,l)
);
},
{
closed = 1;
nodes = (
(-770,-481,l),
(-760,-481,l),
(-760,-487,l),
(-770,-487,l)
);
},
{
closed = 1;
nodes = (
(-765,-252,l),
(-738,-252,l),
(-667,-264,l),
(-667,-271,l),
(-673,-271,l),
(-765,-258,l)
);
},
{
closed = 1;
nodes = (
(-727,-506,l),
(-722,-506,l),
(-743,-532,l),
(-749,-532,l)
);
},
{
closed = 1;
nodes = (
(-743,-207,l),
(-732,-207,l),
(-732,-214,l),
(-743,-214,l)
);
},
{
closed = 1;
nodes = (
(-738,-570,l),
(-722,-551,l),
(-716,-551,l),
(-716,-556,l),
(-738,-575,l)
);
},
{
closed = 1;
nodes = (
(-732,-302,l),
(-727,-302,l),
(-700,-321,l),
(-705,-372,l),
(-705,-379,l),
(-727,-379,o),
(-738,-364,o),
(-738,-335,c)
);
},
{
closed = 1;
nodes = (
(-732,-278,l),
(-727,-278,ls),
(-658,-286,o),
(-624,-299,o),
(-624,-316,c),
(-732,-283,l)
);
},
{
closed = 1;
nodes = (
(-705,-506,l),
(-705,-512,l),
(-722,-532,l),
(-727,-532,l)
);
},
{
closed = 1;
nodes = (
(-711,-582,l),
(-700,-582,l),
(-700,-589,l),
(-711,-589,l)
);
},
{
closed = 1;
nodes = (
(-705,-481,l),
(-694,-493,l),
(-700,-493,l),
(-711,-481,l)
);
},
{
closed = 1;
nodes = (
(-705,-563,l),
(-694,-563,l),
(-694,-570,l),
(-705,-570,l)
);
},
{
closed = 1;
nodes = (
(-700,-537,l),
(-689,-537,l),
(-689,-544,l),
(-700,-544,l)
);
},
{
closed = 1;
nodes = (
(-689,-335,l),
(-662,-353,l),
(-667,-372,l),
(-662,-405,l),
(-689,-391,l)
);
},
{
closed = 1;
nodes = (
(-613,-335,l),
(-613,-341,l),
(-618,-341,l),
(-662,-332,o),
(-684,-324,o),
(-684,-316,c)
);
},
{
closed = 1;
nodes = (
(-651,-372,l),
(-640,-375,o),
(-631,-390,o),
(-624,-417,c),
(-642,-417,o),
(-651,-404,o),
(-651,-379,cs)
);
},
{
closed = 1;
nodes = (
(-651,-347,l),
(-646,-347,l),
(-613,-356,o),
(-597,-364,o),
(-597,-372,c),
(-651,-353,l)
);
},
{
closed = 1;
nodes = (
(-613,-417,l),
(-608,-417,l),
(-597,-429,l),
(-597,-436,l),
(-602,-436,l),
(-613,-424,l)
);
},
{
closed = 1;
nodes = (
(-613,-385,l),
(-608,-385,l),
(-586,-391,l),
(-586,-405,l),
(-613,-391,l)
);
},
{
closed = 1;
nodes = (
(-570,-353,l),
(-564,-353,l),
(-575,-379,l),
(-580,-379,l),
(-586,-372,l)
);
},
{
closed = 1;
nodes = (
(-586,-335,l),
(-570,-335,l),
(-570,-341,l),
(-586,-341,l)
);
},
{
closed = 1;
nodes = (
(-586,-312,o),
(-566,-306,o),
(-526,-302,cs),
(-521,-302,l),
(-521,-309,l),
(-586,-321,l)
);
},
{
closed = 1;
nodes = (
(-564,-286,o),
(-531,-277,o),
(-466,-271,c),
(-466,-284,o),
(-499,-292,o),
(-564,-297,c)
);
},
{
closed = 1;
nodes = (
(-559,-372,l),
(-551,-343,o),
(-542,-328,o),
(-532,-328,cs),
(-526,-328,l),
(-526,-347,l),
(-548,-372,l)
);
},
{
closed = 1;
nodes = (
(-521,-646,l),
(-499,-659,l),
(-499,-665,l),
(-504,-665,l),
(-521,-652,l)
);
},
{
closed = 1;
nodes = (
(-521,-620,l),
(-504,-633,l),
(-504,-639,l),
(-521,-627,l)
);
},
{
closed = 1;
nodes = (
(-515,-697,l),
(-483,-716,l),
(-483,-723,l),
(-488,-723,l),
(-515,-703,l)
);
},
{
closed = 1;
nodes = (
(-512,-318,o),
(-499,-297,o),
(-477,-297,cs),
(-472,-297,l),
(-472,-302,ls),
(-472,-336,o),
(-486,-355,o),
(-515,-360,c)
);
},
{
closed = 1;
nodes = (
(-515,-258,l),
(-488,-252,l),
(-423,-252,l),
(-423,-258,l),
(-510,-264,l),
(-515,-264,l)
);
},
{
closed = 1;
nodes = (
(-510,-678,l),
(-495,-684,o),
(-488,-690,o),
(-488,-697,c),
(-494,-697,l),
(-510,-684,l)
);
},
{
closed = 1;
nodes = (
(-488,-595,l),
(-472,-589,l),
(-488,-608,l)
);
},
{
closed = 1;
nodes = (
(-439,-639,l),
(-439,-646,l),
(-472,-684,l),
(-477,-684,l),
(-483,-678,l)
);
},
{
closed = 1;
nodes = (
(-483,-652,l),
(-450,-620,l),
(-450,-627,l),
(-457,-642,o),
(-468,-653,o),
(-483,-659,c)
);
},
{
closed = 1;
nodes = (
(-483,-627,l),
(-461,-601,l),
(-461,-608,l),
(-483,-633,l)
);
},
{
closed = 1;
nodes = (
(-483,-563,l),
(-477,-563,l),
(-477,-575,l),
(-483,-575,l)
);
},
{
closed = 1;
nodes = (
(-483,-233,l),
(-418,-226,l),
(-363,-226,l),
(-363,-233,l),
(-401,-239,l),
(-483,-239,l)
);
},
{
closed = 1;
nodes = (
(-472,-690,l),
(-450,-681,o),
(-439,-672,o),
(-439,-665,c),
(-434,-665,l),
(-437,-680,o),
(-447,-692,o),
(-466,-703,c),
(-472,-703,l)
);
},
{
closed = 1;
nodes = (
(-472,-551,l),
(-461,-551,l),
(-461,-556,l),
(-472,-556,l)
);
},
{
closed = 1;
nodes = (
(-466,-716,l),
(-434,-690,l),
(-434,-703,l),
(-449,-705,o),
(-456,-712,o),
(-456,-723,c),
(-466,-723,l)
);
},
{
closed = 1;
nodes = (
(-466,-563,l),
(-439,-570,l),
(-423,-570,l),
(-423,-560,o),
(-416,-551,o),
(-401,-544,c),
(-385,-544,l),
(-385,-551,l),
(-396,-551,o),
(-401,-555,o),
(-401,-563,c),
(-391,-563,l),
(-363,-544,l),
(-358,-544,l),
(-358,-551,l),
(-363,-556,l),
(-374,-556,o),
(-380,-561,o),
(-380,-570,c),
(-412,-563,l),
(-423,-575,l),
(-358,-589,l),
(-325,-589,o),
(-305,-612,o),
(-298,-659,c),
(-298,-671,l),
(-304,-671,l),
(-309,-665,l),
(-336,-671,l),
(-336,-684,l),
(-293,-703,l),
(-293,-716,l),
(-333,-698,o),
(-353,-683,o),
(-353,-671,c),
(-363,-671,l),
(-369,-678,l),
(-369,-684,l),
(-340,-699,o),
(-325,-709,o),
(-325,-716,c),
(-336,-716,l),
(-361,-701,o),
(-374,-689,o),
(-374,-678,c),
(-391,-678,l),
(-391,-690,l),
(-369,-700,o),
(-358,-709,o),
(-358,-716,c),
(-369,-716,l),
(-398,-699,o),
(-430,-652,o),
(-466,-575,c)
);
},
{
closed = 1;
nodes = (
(-461,-735,l),
(-456,-728,l),
(-445,-728,o),
(-439,-724,o),
(-439,-716,c),
(-434,-716,l),
(-456,-742,l),
(-461,-742,l)
);
},
{
closed = 1;
nodes = (
(-445,-551,l),
(-439,-544,l),
(-423,-544,l),
(-423,-551,l),
(-439,-556,l),
(-445,-556,l)
);
},
{
closed = 1;
nodes = (
(-429,-525,l),
(-412,-525,l),
(-412,-532,l),
(-429,-532,l)
);
},
{
closed = 1;
nodes = (
(-412,-709,l),
(-407,-703,l),
(-401,-709,l),
(-391,-709,l),
(-391,-716,l),
(-402,-716,o),
(-407,-722,o),
(-407,-735,c),
(-423,-735,l)
);
},
{
closed = 1;
nodes = (
(-423,-335,l),
(-416,-280,o),
(-403,-252,o),
(-385,-252,cs),
(-380,-252,l),
(-380,-273,o),
(-387,-301,o),
(-401,-335,c)
);
},
{
closed = 1;
nodes = (
(-412,-201,l),
(-304,-201,l),
(-304,-207,l),
(-331,-214,l),
(-423,-214,l)
);
},
{
closed = 1;
nodes = (
(-396,-735,l),
(-380,-728,l),
(-374,-728,l),
(-374,-735,l),
(-391,-742,l),
(-396,-742,l)
);
},
{
closed = 1;
nodes = (
(-380,-321,l),
(-371,-262,o),
(-355,-233,o),
(-331,-233,c),
(-331,-239,ls),
(-334,-270,o),
(-346,-297,o),
(-369,-321,c)
);
},
{
closed = 1;
nodes = (
(-374,-742,l),
(-358,-735,l),
(-347,-735,l),
(-347,-742,l),
(-369,-747,l),
(-374,-747,l)
);
},
{
closed = 1;
nodes = (
(-342,-551,l),
(-336,-551,l),
(-336,-563,l),
(-363,-575,l),
(-369,-575,l)
);
},
{
closed = 1;
nodes = (
(-369,-519,l),
(-353,-519,l),
(-353,-525,l),
(-369,-525,l)
);
},
{
closed = 1;
nodes = (
(-277,-302,l),
(-271,-321,l),
(-329,-370,o),
(-358,-405,o),
(-358,-424,c),
(-363,-424,l),
(-369,-398,l)
);
},
{
closed = 1;
nodes = (
(-369,-182,l),
(-315,-175,l),
(-298,-182,l),
(-298,-188,l),
(-369,-188,l)
);
},
{
closed = 1;
nodes = (
(-358,-448,l),
(-335,-407,o),
(-306,-374,o),
(-271,-347,c),
(-266,-347,l),
(-260,-366,l),
(-260,-376,o),
(-291,-408,o),
(-353,-462,c),
(-358,-462,l)
);
},
{
closed = 1;
nodes = (
(-358,-347,l),
(-323,-292,o),
(-300,-264,o),
(-287,-264,cs),
(-282,-264,l),
(-277,-271,l),
(-282,-284,o),
(-309,-311,o),
(-358,-353,c)
);
},
{
closed = 1;
nodes = (
(-347,-575,l),
(-331,-570,l),
(-325,-570,l),
(-325,-575,l),
(-342,-582,l),
(-347,-582,l)
);
},
{
closed = 1;
nodes = (
(-317,-452,o),
(-286,-423,o),
(-255,-405,c),
(-249,-405,l),
(-249,-424,l),
(-331,-506,l),
(-347,-493,l)
);
},
{
closed = 1;
nodes = (
(-342,-742,l),
(-315,-728,l),
(-309,-728,l),
(-309,-735,l),
(-336,-747,l),
(-342,-747,l)
);
},
{
closed = 1;
nodes = (
(-249,-455,l),
(-244,-455,l),
(-244,-474,l),
(-287,-518,o),
(-309,-545,o),
(-309,-556,c),
(-320,-556,l),
(-331,-525,l)
);
},
{
closed = 1;
nodes = (
(-315,-252,ls),
(-315,-231,o),
(-308,-218,o),
(-293,-214,c),
(-287,-220,l),
(-293,-226,l),
(-293,-247,o),
(-298,-258,o),
(-309,-258,c),
(-315,-264,l)
);
},
{
closed = 1;
nodes = (
(-309,-742,l),
(-293,-735,l),
(-287,-735,l),
(-287,-742,l),
(-304,-747,l),
(-309,-747,l)
);
},
{
closed = 1;
nodes = (
(-309,-684,l),
(-293,-684,l),
(-293,-697,l),
(-309,-690,l)
);
},
{
closed = 1;
nodes = (
(-281,-539,o),
(-259,-516,o),
(-244,-506,c),
(-244,-525,ls),
(-244,-544,o),
(-262,-568,o),
(-298,-595,c),
(-304,-595,l),
(-309,-575,l)
);
},
{
closed = 1;
nodes = (
(-293,-620,l),
(-244,-570,l),
(-244,-595,l),
(-282,-639,l),
(-293,-627,l)
);
},
{
closed = 1;
nodes = (
(-277,-665,l),
(-260,-633,l),
(-249,-633,l),
(-249,-654,o),
(-258,-671,o),
(-277,-684,c)
);
},
{
closed = 1;
nodes = (
(-271,-697,l),
(-260,-697,l),
(-266,-728,l),
(-271,-728,l)
);
},
{
closed = 1;
nodes = (
(-249,-201,l),
(-255,-233,l),
(-260,-233,l),
(-266,-201,l)
);
},
{
closed = 1;
nodes = (
(-260,-258,l),
(-236,-258,o),
(-205,-288,o),
(-168,-347,c),
(-168,-353,l),
(-173,-353,l),
(-173,-344,o),
(-202,-315,o),
(-260,-264,c)
);
},
{
closed = 1;
nodes = (
(-249,-309,l),
(-232,-309,o),
(-205,-334,o),
(-168,-385,c),
(-168,-405,l),
(-206,-370,o),
(-233,-341,o),
(-249,-316,c)
);
},
{
closed = 1;
nodes = (
(-233,-671,l),
(-228,-665,l),
(-222,-690,l),
(-233,-690,l),
(-239,-671,l)
);
},
{
closed = 1;
nodes = (
(-239,-366,l),
(-184,-415,o),
(-157,-449,o),
(-157,-468,c),
(-163,-468,l),
(-214,-419,o),
(-239,-389,o),
(-239,-379,cs)
);
},
{
closed = 1;
nodes = (
(-228,-601,l),
(-222,-601,l),
(-206,-646,l),
(-206,-652,l),
(-228,-620,l)
);
},
{
closed = 1;
nodes = (
(-228,-481,l),
(-200,-506,o),
(-182,-530,o),
(-173,-551,c),
(-173,-582,l),
(-179,-582,l),
(-228,-487,l)
);
},
{
closed = 1;
nodes = (
(-228,-429,l),
(-203,-447,o),
(-183,-471,o),
(-168,-500,c),
(-168,-512,l),
(-208,-473,o),
(-228,-447,o),
(-228,-436,cs)
);
},
{
closed = 1;
nodes = (
(-222,-551,l),
(-201,-572,o),
(-190,-593,o),
(-190,-614,c),
(-201,-614,l),
(-222,-570,l)
);
},
{
closed = 1;
nodes = (
(-141,-512,l),
(-136,-512,o),
(-127,-533,o),
(-114,-575,c),
(-125,-575,l),
(-141,-525,l)
);
},
{
closed = 1;
nodes = (
(-125,-493,l),
(-11,-493,l),
(-11,-500,l),
(-125,-500,l)
);
},
{
closed = 1;
nodes = (
(-103,-532,l),
(-94,-537,o),
(-80,-560,o),
(-59,-601,c),
(-59,-608,l),
(-65,-608,l),
(-76,-605,o),
(-88,-582,o),
(-103,-537,c)
);
},
{
closed = 1;
nodes = (
(-81,-519,l),
(-54,-512,l),
(44,-512,l),
(44,-519,l),
(-76,-525,l),
(-81,-525,l)
);
},
{
closed = 1;
nodes = (
(-49,-570,l),
(-43,-570,l),
(6,-646,l),
(0,-646,l),
(-17,-633,o),
(-33,-610,o),
(-49,-575,c)
);
},
{
closed = 1;
nodes = (
(71,-537,l),
(98,-544,l),
(98,-551,l),
(87,-551,l),
(82,-544,l),
(-22,-556,l),
(-40,-551,o),
(-49,-545,o),
(-49,-537,c)
);
},
{
closed = 1;
nodes = (
(0,-570,l),
(49,-563,l),
(49,-570,l),
(65,-563,l),
(109,-570,l),
(114,-570,l),
(120,-563,l),
(120,-570,l),
(130,-570,l),
(130,-575,l),
(22,-582,l),
(0,-575,l)
);
},
{
closed = 1;
nodes = (
(11,-608,l),
(22,-608,l),
(44,-652,l),
(44,-659,l),
(28,-648,o),
(17,-633,o),
(11,-614,c)
);
},
{
closed = 1;
nodes = (
(49,-601,l),
(103,-595,l),
(152,-595,l),
(163,-608,l),
(147,-601,l),
(76,-608,l),
(49,-608,l)
);
},
{
closed = 1;
nodes = (
(60,-627,l),
(76,-635,o),
(92,-654,o),
(109,-684,c),
(103,-684,l),
(87,-675,o),
(71,-656,o),
(54,-627,c)
);
},
{
closed = 1;
nodes = (
(125,-659,l),
(152,-684,l),
(152,-690,l),
(137,-684,o),
(127,-674,o),
(120,-659,c)
);
},
{
closed = 1;
nodes = (
(158,-652,l),
(212,-646,l),
(212,-652,l),
(223,-652,l),
(223,-659,l),
(185,-665,l),
(158,-659,l)
);
},
{
closed = 1;
nodes = (
(174,66,l),
(179,73,l),
(179,79,l),
(174,110,l),
(179,110,l),
(179,89,o),
(215,41,o),
(288,-36,c),
(288,-67,l),
(274,-66,o),
(236,-23,o),
(174,60,c)
);
},
{
closed = 1;
nodes = (
(179,-684,l),
(190,-684,l),
(190,-690,l),
(179,-690,l)
);
},
{
closed = 1;
nodes = (
(179,136,l),
(185,167,l),
(190,167,l),
(201,136,l),
(262,89,o),
(293,53,o),
(293,28,cs),
(293,-3,l),
(288,-3,l),
(261,16,l),
(179,117,l)
);
},
{
closed = 1;
nodes = (
(179,676,l),
(185,683,l),
(179,702,l),
(179,720,l),
(185,720,l),
(206,638,l),
(206,612,l),
(199,612,o),
(190,631,o),
(179,670,c)
);
},
{
closed = 1;
nodes = (
(185,16,l),
(288,-99,l),
(288,-130,l),
(282,-130,l),
(235,-95,o),
(203,-49,o),
(185,9,c)
);
},
{
closed = 1;
nodes = (
(190,238,l),
(293,124,l),
(293,73,l),
(288,73,l),
(288,85,o),
(266,106,o),
(223,136,c),
(208,170,o),
(195,187,o),
(185,187,c)
);
},
{
closed = 1;
nodes = (
(185,607,l),
(190,607,l),
(212,543,l),
(212,518,l),
(206,518,l),
(185,600,l)
);
},
{
closed = 1;
nodes = (
(190,803,l),
(196,803,l),
(206,765,l),
(264,693,o),
(293,642,o),
(293,612,cs),
(293,581,l),
(282,569,l),
(282,579,o),
(266,604,o),
(234,645,c),
(207,708,o),
(190,739,o),
(185,739,c)
);
},
{
closed = 1;
nodes = (
(196,-500,l),
(196,-493,l),
(190,-487,l),
(190,-468,l),
(196,-468,l),
(196,-491,o),
(230,-541,o),
(299,-620,c),
(299,-652,l),
(273,-637,o),
(237,-593,o),
(190,-519,c)
);
},
{
closed = 1;
nodes = (
(201,892,l),
(206,892,l),
(206,875,o),
(237,824,o),
(299,739,c),
(299,670,l),
(293,670,l),
(293,685,o),
(271,715,o),
(228,760,c),
(209,810,o),
(197,835,o),
(190,835,c)
);
},
{
closed = 1;
nodes = (
(196,-556,l),
(201,-556,l),
(201,-572,o),
(232,-613,o),
(293,-678,c),
(293,-716,l),
(228,-653,o),
(196,-602,o),
(196,-563,cs)
);
},
{
closed = 1;
nodes = (
(201,-405,l),
(206,-405,l),
(206,-424,l),
(271,-487,o),
(304,-530,o),
(304,-551,cs),
(304,-582,l),
(299,-589,l),
(252,-544,o),
(217,-497,o),
(196,-448,c)
);
},
{
closed = 1;
nodes = (
(206,308,l),
(212,308,l),
(217,289,l),
(268,236,o),
(293,197,o),
(293,174,cs),
(293,155,l),
(288,155,l),
(288,167,o),
(272,184,o),
(239,206,c),
(196,251,l)
);
},
{
closed = 1;
nodes = (
(212,-341,l),
(277,-410,o),
(310,-455,o),
(310,-474,cs),
(310,-506,l),
(262,-467,o),
(227,-426,o),
(206,-385,c),
(201,-385,l)
);
},
{
closed = 1;
nodes = (
(212,384,l),
(217,384,l),
(228,352,l),
(268,329,o),
(288,293,o),
(288,244,cs),
(288,238,l),
(244,270,l),
(233,303,o),
(221,320,o),
(206,320,c)
);
},
{
closed = 1;
nodes = (
(217,988,l),
(223,988,l),
(223,954,o),
(248,905,o),
(299,842,c),
(299,784,l),
(241,852,o),
(212,899,o),
(212,925,c)
);
},
{
closed = 1;
nodes = (
(228,-264,l),
(234,-264,l),
(234,-287,o),
(259,-325,o),
(310,-379,c),
(310,-424,l),
(277,-391,l),
(217,-328,l)
);
},
{
closed = 1;
nodes = (
(217,397,l),
(223,442,l),
(228,442,l),
(234,422,l),
(263,395,o),
(277,367,o),
(277,339,cs),
(277,333,l),
(272,333,l),
(266,339,l),
(217,390,l)
);
},
{
closed = 1;
nodes = (
(228,524,l),
(223,549,l),
(223,555,l),
(228,562,l),
(228,569,l),
(223,574,l),
(223,588,l),
(228,588,l),
(239,530,l),
(234,499,l),
(247,483,o),
(258,455,o),
(266,416,c),
(261,416,l),
(236,435,o),
(223,471,o),
(223,524,c)
);
},
{
closed = 1;
nodes = (
(228,1071,l),
(234,1071,l),
(244,1033,l),
(281,1000,o),
(299,952,o),
(299,887,cs),
(299,880,l),
(293,880,l),
(293,893,o),
(280,909,o),
(255,930,c),
(241,977,o),
(230,1000,o),
(223,1000,c)
);
},
{
closed = 1;
nodes = (
(228,-678,l),
(239,-678,l),
(239,-684,l),
(228,-684,l)
);
},
{
closed = 1;
nodes = (
(239,-201,l),
(244,-201,l),
(244,-218,o),
(257,-235,o),
(282,-252,c),
(282,-258,l),
(277,-264,l),
(277,-273,o),
(286,-278,o),
(304,-278,c),
(304,-283,l),
(310,-341,l),
(310,-347,l),
(293,-337,o),
(267,-305,o),
(234,-252,c)
);
},
{
closed = 1;
nodes = (
(239,1146,l),
(244,1146,l),
(250,1121,l),
(279,1094,o),
(293,1058,o),
(293,1014,cs),
(293,1007,l),
(274,1022,o),
(255,1052,o),
(234,1096,c)
);
},
{
closed = 1;
nodes = (
(250,-137,l),
(255,-137,l),
(261,-167,o),
(272,-182,o),
(288,-182,c),
(288,-233,l),
(279,-233,o),
(265,-216,o),
(244,-182,c)
);
},
{
closed = 1;
nodes = (
(244,1223,l),
(255,1223,l),
(273,1182,o),
(282,1146,o),
(282,1115,c),
(275,1115,o),
(262,1136,o),
(244,1179,c)
);
},
{
closed = 1;
nodes = (
(250,1268,l),
(250,1274,l),
(244,1280,l),
(250,1312,l),
(255,1312,l),
(266,1236,l),
(244,1248,l)
);
},
{
closed = 1;
nodes = (
(250,562,l),
(255,562,l),
(255,543,l),
(250,543,l)
);
},
{
closed = 1;
nodes = (
(250,1401,l),
(272,1420,l),
(272,1407,l),
(255,1388,l),
(250,1388,l)
);
},
{
closed = 1;
nodes = (
(272,524,l),
(277,524,l),
(282,518,l),
(277,447,l),
(272,447,l),
(266,492,l)
);
},
{
closed = 1;
nodes = (
(277,-144,l),
(288,-156,l),
(288,-163,l),
(272,-144,l)
);
},
{
closed = 1;
nodes = (
(272,1306,l),
(277,1306,l),
(277,1280,l),
(272,1280,l)
);
},
{
closed = 1;
nodes = (
(282,1337,l),
(293,1325,l),
(288,1325,l),
(277,1337,l)
);
},
{
closed = 1;
nodes = (
(320,1344,l),
(320,1331,o),
(326,1325,o),
(337,1325,c),
(337,1318,l),
(331,1318,l),
(298,1341,o),
(280,1359,o),
(277,1370,c)
);
},
{
closed = 1;
nodes = (
(277,1388,l),
(296,1420,o),
(319,1444,o),
(348,1459,c),
(353,1459,l),
(353,1452,l),
(344,1452,o),
(320,1431,o),
(282,1388,c)
);
},
{
closed = 1;
nodes = (
(293,480,l),
(299,480,l),
(304,454,l),
(293,378,l),
(288,378,l),
(282,409,l)
);
},
{
closed = 1;
nodes = (
(282,1433,ls),
(282,1439,o),
(289,1445,o),
(304,1452,c),
(310,1452,l),
(310,1445,l),
(282,1426,l)
);
},
{
closed = 1;
nodes = (
(288,1223,l),
(293,1255,l),
(299,1255,l),
(299,1210,l),
(293,1179,l),
(288,1179,l)
);
},
{
closed = 1;
nodes = (
(299,346,l),
(315,422,l),
(320,422,l),
(320,409,o),
(324,403,o),
(331,403,c),
(304,294,l),
(299,294,l)
);
},
{
closed = 1;
nodes = (
(299,1096,l),
(310,1198,l),
(315,1198,l),
(320,1172,l),
(317,1105,o),
(310,1071,o),
(299,1071,c)
);
},
{
closed = 1;
nodes = (
(304,-111,l),
(355,-29,o),
(380,20,o),
(380,35,c),
(386,35,l),
(386,28,ls),
(386,-31,o),
(359,-84,o),
(304,-130,c)
);
},
{
closed = 1;
nodes = (
(304,-55,ls),
(304,-34,o),
(331,27,o),
(386,129,c),
(380,98,l),
(380,79,l),
(386,73,l),
(348,-10,l),
(310,-74,l),
(304,-74,l)
);
},
{
closed = 1;
nodes = (
(304,238,l),
(337,371,l),
(344,371,o),
(350,356,o),
(353,327,c),
(353,296,o),
(337,253,o),
(304,200,c)
);
},
{
closed = 1;
nodes = (
(304,536,l),
(355,650,o),
(380,716,o),
(380,734,c),
(391,734,l),
(380,676,l),
(386,670,l),
(364,603,o),
(339,543,o),
(310,492,c),
(304,492,l)
);
},
{
closed = 1;
nodes = (
(310,-697,l),
(367,-607,o),
(396,-556,o),
(396,-544,c),
(402,-544,l),
(402,-556,l),
(381,-637,o),
(351,-691,o),
(310,-716,c)
);
},
{
closed = 1;
nodes = (
(310,-188,ls),
(310,-157,o),
(315,-140,o),
(326,-137,c),
(326,-163,ls),
(326,-184,o),
(321,-196,o),
(310,-201,c)
);
},
{
closed = 1;
nodes = (
(310,66,l),
(349,152,o),
(369,203,o),
(369,219,c),
(375,219,l),
(380,193,l),
(371,150,o),
(349,91,o),
(315,16,c),
(310,16,l)
);
},
{
closed = 1;
nodes = (
(310,155,l),
(358,289,l),
(364,289,l),
(364,276,ls),
(364,233,o),
(348,180,o),
(315,117,c),
(310,117,l)
);
},
{
closed = 1;
nodes = (
(310,657,l),
(375,835,l),
(386,835,l),
(386,797,o),
(362,716,o),
(315,593,c),
(310,593,l)
);
},
{
closed = 1;
nodes = (
(315,887,l),
(353,1052,l),
(364,1038,l),
(364,1026,ls),
(364,975,o),
(349,911,o),
(320,835,c),
(315,835,l),
(310,854,l)
);
},
{
closed = 1;
nodes = (
(310,1007,l),
(331,1121,l),
(337,1121,l),
(337,1104,o),
(341,1096,o),
(348,1096,c),
(315,956,l),
(310,956,l)
);
},
{
closed = 1;
nodes = (
(310,1388,l),
(329,1417,o),
(350,1439,o),
(375,1452,c),
(386,1452,l),
(349,1405,o),
(324,1382,o),
(310,1382,c)
);
},
{
closed = 1;
nodes = (
(315,-614,l),
(358,-538,o),
(384,-487,o),
(391,-462,c),
(402,-462,l),
(391,-506,l),
(396,-512,l),
(391,-512,l),
(391,-531,o),
(367,-578,o),
(320,-652,c),
(315,-652,l)
);
},
{
closed = 1;
nodes = (
(362,553,o),
(386,606,o),
(386,626,c),
(391,626,l),
(391,619,l),
(379,546,o),
(359,487,o),
(331,442,c),
(326,442,o),
(320,450,o),
(315,466,c)
);
},
{
closed = 1;
nodes = (
(315,784,l),
(351,867,o),
(369,922,o),
(369,950,c),
(375,950,l),
(375,930,ls),
(375,881,o),
(357,814,o),
(320,727,c),
(315,727,l)
);
},
{
closed = 1;
nodes = (
(320,-519,l),
(364,-438,o),
(386,-391,o),
(386,-379,c),
(391,-379,l),
(396,-385,l),
(396,-414,o),
(373,-476,o),
(326,-570,c),
(320,-570,l)
);
},
{
closed = 1;
nodes = (
(364,-214,l),
(375,-226,l),
(375,-233,ls),
(375,-274,o),
(360,-325,o),
(331,-385,c),
(326,-385,l),
(320,-366,l)
);
},
{
closed = 1;
nodes = (
(320,-245,l),
(342,-156,l),
(348,-156,l),
(348,-173,o),
(351,-182,o),
(358,-182,c),
(326,-290,l),
(320,-290,l)
);
},
{
closed = 1;
nodes = (
(353,1348,o),
(369,1336,o),
(369,1325,c),
(336,1340,o),
(320,1352,o),
(320,1363,c)
);
},
{
closed = 1;
nodes = (
(326,-424,l),
(362,-357,o),
(380,-314,o),
(380,-297,c),
(386,-297,l),
(386,-309,ls),
(386,-348,o),
(368,-401,o),
(331,-468,c),
(326,-468,l)
);
},
{
closed = 1;
nodes = (
(374,1420,o),
(392,1439,o),
(402,1439,cs),
(418,1439,l),
(418,1433,l),
(408,1433,o),
(388,1414,o),
(358,1375,c),
(353,1375,l),
(348,1382,l)
);
},
{
closed = 1;
nodes = (
(364,1356,l),
(369,1356,ls),
(378,1356,o),
(391,1346,o),
(407,1325,c),
(364,1351,l)
);
},
{
closed = 1;
nodes = (
(386,1375,l),
(386,1386,o),
(402,1406,o),
(434,1433,c),
(445,1433,l),
(445,1420,l),
(438,1420,o),
(421,1405,o),
(396,1375,c)
);
},
{
closed = 1;
nodes = (
(402,1356,l),
(407,1356,l),
(461,1332,l),
(461,1325,l),
(456,1325,l),
(402,1351,l)
);
},
{
closed = 1;
nodes = (
(418,1382,l),
(427,1382,o),
(441,1395,o),
(461,1420,c),
(467,1420,l),
(472,1414,l),
(463,1395,o),
(451,1382,o),
(434,1375,c),
(418,1375,l)
);
},
{
closed = 1;
nodes = (
(451,1356,l),
(456,1356,l),
(489,1344,l),
(489,1337,l),
(483,1332,l),
(451,1351,l)
);
},
{
closed = 1;
nodes = (
(461,1375,l),
(464,1386,o),
(476,1396,o),
(499,1407,c),
(505,1407,l),
(505,1401,l),
(494,1401,l),
(489,1384,o),
(483,1375,o),
(478,1375,cs)
);
},
{
closed = 1;
nodes = (
(489,1363,l),
(499,1363,l),
(499,1356,l),
(489,1356,l)
);
},
{
closed = 1;
nodes = (
(527,1401,l),
(537,1401,l),
(527,1388,l),
(516,1388,l)
);
},
{
closed = 1;
nodes = (
(532,1370,l),
(543,1370,l),
(543,1363,l),
(532,1363,l)
);
}
);
width = 700;
}
);
note = uni17D2_178D;
},
{
category = Letter;
glyphname = uni17D2_1794;
lastChange = "2023-01-31 11:13:53 +0000";
layers = (
{
layerId = m01;
shapes = (
{
closed = 1;
nodes = (
(-420,-41,l),
(-490,-98,o),
(-525,-153,o),
(-525,-207,cs),
(-525,-230,l),
(-521,-235,l),
(-525,-235,l),
(-493,-365,l),
(-457,-517,l),
(-457,-579,l),
(-453,-584,l),
(-457,-601,l),
(-457,-631,o),
(-470,-646,o),
(-497,-646,c),
(-497,-652,l),
(-481,-669,l),
(-453,-656,o),
(-430,-639,o),
(-413,-618,c),
(-345,-629,l),
(-290,-622,o),
(-257,-612,o),
(-245,-601,c),
(-144,-526,o),
(-83,-451,o),
(-61,-376,c),
(-61,-365,o),
(-58,-359,o),
(-53,-359,c),
(-38,-380,o),
(-26,-405,o),
(-17,-432,c),
(71,-541,o),
(136,-595,o),
(179,-595,c),
(231,-579,l),
(235,-595,l),
(231,-601,l),
(231,-607,l),
(223,-736,l),
(227,-753,l),
(240,-753,o),
(247,-699,o),
(247,-590,cs),
(247,-584,l),
(295,-612,l),
(299,-612,l),
(307,-601,l),
(307,-595,l),
(247,-567,l),
(247,-562,l),
(251,-545,l),
(296,-441,o),
(319,-343,o),
(319,-252,cs),
(315,-168,l),
(315,-162,l),
(319,-100,l),
(315,-84,l),
(319,-61,l),
(313,59,o),
(308,119,o),
(303,119,c),
(303,125,l),
(307,130,l),
(299,231,l),
(259,485,l),
(259,490,l),
(271,563,l),
(303,686,o),
(319,829,o),
(319,991,c),
(315,1019,l),
(319,1025,l),
(311,1120,l),
(315,1137,l),
(307,1210,l),
(311,1210,l),
(400,1247,o),
(464,1266,o),
(503,1266,cs),
(519,1266,l),
(519,1278,l),
(449,1349,o),
(373,1385,o),
(291,1385,cs),
(287,1385,l),
(283,1379,l),
(279,1385,l),
(275,1385,l),
(271,1379,l),
(271,1385,l),
(243,1379,l),
(232,1379,o),
(227,1385,o),
(227,1396,cs),
(227,1505,o),
(218,1559,o),
(199,1559,cs),
(195,1559,l),
(211,1396,l),
(211,1390,l),
(163,1300,l),
(147,1300,o),
(139,1296,o),
(139,1289,cs),
(139,1278,l),
(155,1278,l),
(155,1272,l),
(136,1236,o),
(127,1182,o),
(127,1109,cs),
(127,1024,o),
(138,924,o),
(159,811,c),
(180,664,o),
(191,568,o),
(191,524,cs),
(187,406,l),
(160,81,o),
(147,-117,o),
(147,-190,cs),
(147,-258,o),
(154,-320,o),
(167,-376,c),
(167,-387,l),
(-29,-286,l),
(-26,-235,o),
(-20,-203,o),
(-13,-190,c),
(-17,-185,l),
(-66,-242,o),
(-165,-305,o),
(-313,-376,c),
(-317,-376,l),
(-317,-370,l),
(-313,-365,l),
(-313,-354,l),
(-317,-348,l),
(-312,-348,o),
(-306,-320,o),
(-301,-264,cs),
(-301,-258,l),
(-305,-252,l),
(-301,-252,l),
(-305,-213,l),
(-305,-190,l),
(-205,-162,l),
(-185,-162,l),
(-185,-157,l),
(-238,-82,o),
(-302,-44,o),
(-377,-44,cs),
(-397,-44,l),
(-401,-39,l)
);
},
{
closed = 1;
nodes = (
(-465,-145,l),
(-453,-157,l),
(-453,-140,l),
(-457,-134,l),
(-453,-134,l),
(-423,-179,o),
(-406,-202,o),
(-401,-202,c),
(-401,-207,l),
(-405,-207,ls),
(-412,-207,o),
(-428,-190,o),
(-453,-157,c),
(-453,-168,l),
(-509,-241,l),
(-513,-207,l)
);
},
{
closed = 1;
nodes = (
(-509,-174,l),
(-500,-151,o),
(-491,-140,o),
(-481,-140,cs),
(-477,-140,l),
(-509,-179,l)
);
},
{
closed = 1;
nodes = (
(-505,-252,l),
(-501,-252,l),
(-474,-210,o),
(-456,-186,o),
(-445,-179,c),
(-421,-213,l),
(-469,-245,o),
(-493,-269,o),
(-493,-286,c),
(-505,-280,l)
);
},
{
closed = 1;
nodes = (
(-493,-303,l),
(-476,-274,o),
(-450,-246,o),
(-413,-219,c),
(-401,-219,l),
(-401,-247,l),
(-489,-337,l),
(-493,-337,l),
(-497,-303,l)
);
},
{
closed = 1;
nodes = (
(-401,-269,l),
(-397,-269,l),
(-397,-286,l),
(-401,-309,l),
(-444,-346,o),
(-465,-372,o),
(-465,-387,c),
(-469,-387,ls),
(-475,-387,o),
(-480,-374,o),
(-485,-348,c)
);
},
{
closed = 1;
nodes = (
(-461,-95,l),
(-457,-95,l),
(-459,-114,o),
(-463,-123,o),
(-469,-123,cs),
(-481,-123,l)
);
},
{
closed = 1;
nodes = (
(-448,-373,o),
(-427,-348,o),
(-405,-331,c),
(-401,-331,l),
(-401,-376,l),
(-438,-411,o),
(-457,-431,o),
(-457,-438,c),
(-462,-438,o),
(-466,-427,o),
(-469,-404,c)
);
},
{
closed = 1;
nodes = (
(-401,-399,l),
(-401,-426,o),
(-413,-449,o),
(-437,-466,c),
(-429,-477,l),
(-437,-534,l),
(-433,-550,l),
(-437,-584,l),
(-445,-584,l),
(-445,-579,l),
(-441,-573,l),
(-441,-567,l),
(-445,-562,l),
(-441,-556,l),
(-441,-550,l),
(-445,-545,l),
(-441,-545,l),
(-449,-505,l),
(-449,-494,l),
(-438,-494,o),
(-433,-490,o),
(-433,-483,cs),
(-433,-477,l),
(-441,-477,l),
(-453,-489,l),
(-457,-449,l)
);
},
{
closed = 1;
nodes = (
(-455,-108,o),
(-443,-87,o),
(-421,-61,c),
(-409,-61,l),
(-409,-67,l),
(-453,-123,l),
(-457,-123,l)
);
},
{
closed = 1;
nodes = (
(-425,-134,l),
(-398,-179,o),
(-382,-202,o),
(-377,-202,c),
(-377,-207,l),
(-381,-213,l),
(-390,-213,o),
(-408,-187,o),
(-437,-134,c)
);
},
{
closed = 1;
nodes = (
(-437,-123,l),
(-416,-78,o),
(-395,-55,o),
(-373,-55,c),
(-429,-123,l)
);
},
{
closed = 1;
nodes = (
(-425,-466,l),
(-421,-466,l),
(-421,-477,l),
(-425,-477,l)
);
},
{
closed = 1;
nodes = (
(-401,-449,l),
(-397,-449,l),
(-397,-545,l),
(-389,-562,l),
(-389,-573,ls),
(-390,-581,o),
(-397,-588,o),
(-409,-595,c),
(-414,-595,o),
(-418,-575,o),
(-421,-534,c)
);
},
{
closed = 1;
nodes = (
(-397,-129,l),
(-370,-174,o),
(-354,-196,o),
(-349,-196,c),
(-357,-207,l),
(-371,-200,o),
(-391,-174,o),
(-417,-129,c)
);
},
{
closed = 1;
nodes = (
(-383,-80,o),
(-364,-60,o),
(-353,-55,c),
(-345,-55,l),
(-372,-96,o),
(-394,-117,o),
(-409,-117,c)
);
},
{
closed = 1;
nodes = (
(-397,-601,l),
(-377,-595,l),
(-293,-595,ls),
(-274,-595,o),
(-260,-591,o),
(-249,-584,c),
(-245,-584,l),
(-245,-590,l),
(-262,-601,o),
(-294,-611,o),
(-341,-618,c),
(-397,-607,l)
);
},
{
closed = 1;
nodes = (
(-385,-387,l),
(-385,-382,l),
(-389,-376,l),
(-385,-376,l),
(-381,-370,l),
(-365,-410,l),
(-381,-415,l),
(-385,-415,l),
(-389,-410,l)
);
},
{
closed = 1;
nodes = (
(-381,-466,l),
(-381,-441,o),
(-372,-422,o),
(-353,-410,c),
(-349,-410,l),
(-355,-436,o),
(-360,-449,o),
(-365,-449,c),
(-357,-511,l),
(-357,-550,l),
(-373,-567,l),
(-377,-567,l),
(-377,-545,l),
(-385,-511,l)
);
},
{
closed = 1;
nodes = (
(-385,-297,l),
(-353,-336,o),
(-337,-368,o),
(-337,-393,c),
(-353,-393,l),
(-374,-365,o),
(-385,-341,o),
(-385,-320,cs)
);
},
{
closed = 1;
nodes = (
(-385,-235,l),
(-358,-264,o),
(-338,-298,o),
(-325,-337,c),
(-325,-365,l),
(-385,-264,l)
);
},
{
closed = 1;
nodes = (
(-369,-123,l),
(-325,-196,l),
(-337,-196,l),
(-353,-185,o),
(-369,-160,o),
(-385,-123,c)
);
},
{
closed = 1;
nodes = (
(-361,-219,l),
(-344,-219,o),
(-329,-243,o),
(-317,-292,c),
(-321,-309,l),
(-325,-309,l),
(-325,-297,o),
(-341,-269,o),
(-373,-224,c)
);
},
{
closed = 1;
nodes = (
(-369,-106,l),
(-363,-91,o),
(-350,-76,o),
(-329,-61,c),
(-317,-61,l),
(-317,-67,l),
(-369,-112,l)
);
},
{
closed = 1;
nodes = (
(-361,-573,l),
(-201,-545,l),
(-201,-550,l),
(-232,-569,o),
(-260,-579,o),
(-285,-579,cs),
(-361,-579,l)
);
},
{
closed = 1;
nodes = (
(-357,-117,l),
(-345,-117,l),
(-322,-155,o),
(-307,-174,o),
(-301,-174,c),
(-309,-185,l),
(-317,-185,l),
(-357,-123,l)
);
},
{
closed = 1;
nodes = (
(-337,-415,l),
(-337,-410,l),
(-341,-404,l),
(-309,-387,l),
(-317,-432,l),
(-309,-460,o),
(-305,-484,o),
(-305,-505,cs),
(-305,-520,o),
(-317,-532,o),
(-341,-539,c),
(-345,-460,l)
);
},
{
closed = 1;
nodes = (
(-341,-106,l),
(-330,-89,o),
(-316,-76,o),
(-301,-67,c),
(-285,-72,l),
(-285,-78,l),
(-289,-78,l),
(-333,-106,l)
);
},
{
closed = 1;
nodes = (
(-321,-202,l),
(-321,-219,o),
(-318,-232,o),
(-313,-241,c),
(-317,-241,l),
(-326,-234,o),
(-333,-223,o),
(-337,-207,c)
);
},
{
closed = 1;
nodes = (
(-309,-123,l),
(-281,-168,l),
(-281,-174,l),
(-293,-174,l),
(-312,-153,o),
(-324,-136,o),
(-329,-123,c)
);
},
{
closed = 1;
nodes = (
(-313,-539,l),
(-292,-532,o),
(-281,-525,o),
(-281,-517,c),
(-222,-517,o),
(-180,-511,o),
(-157,-500,c),
(-157,-511,l),
(-237,-539,l),
(-237,-534,l),
(-309,-545,l),
(-313,-545,l)
);
},
{
closed = 1;
nodes = (
(-309,-112,l),
(-302,-99,o),
(-292,-90,o),
(-277,-84,c),
(-269,-95,l),
(-305,-112,l)
);
},
{
closed = 1;
nodes = (
(-298,-415,o),
(-295,-404,o),
(-293,-382,c),
(-297,-376,l),
(-269,-365,l),
(-265,-365,l),
(-265,-370,l),
(-269,-393,l),
(-257,-472,l),
(-262,-485,o),
(-272,-496,o),
(-285,-505,c),
(-289,-505,l),
(-289,-477,l),
(-294,-469,o),
(-298,-448,o),
(-301,-415,c)
);
},
{
closed = 1;
nodes = (
(-285,-123,l),
(-269,-146,o),
(-258,-157,o),
(-253,-157,c),
(-253,-162,l),
(-269,-162,l),
(-297,-123,l)
);
},
{
closed = 1;
nodes = (
(-277,-106,l),
(-257,-100,l),
(-249,-100,l),
(-249,-106,l),
(-277,-117,l)
);
},
{
closed = 1;
nodes = (
(-265,-129,l),
(-251,-129,o),
(-240,-138,o),
(-233,-157,c),
(-245,-157,l),
(-265,-140,l)
);
},
{
closed = 1;
nodes = (
(-253,-494,l),
(-221,-477,l),
(-221,-483,l),
(-121,-460,l),
(-121,-466,l),
(-159,-489,o),
(-196,-500,o),
(-233,-500,cs),
(-253,-500,l)
);
},
{
closed = 1;
nodes = (
(-249,-365,l),
(-253,-359,l),
(-213,-342,l),
(-221,-365,l),
(-217,-444,l),
(-241,-472,l),
(-253,-382,l)
);
},
{
closed = 1;
nodes = (
(-253,-117,l),
(-229,-117,l),
(-229,-123,l),
(-253,-123,l)
);
},
{
closed = 1;
nodes = (
(-229,-145,l),
(-213,-145,l),
(-213,-151,l),
(-229,-151,l)
);
},
{
closed = 1;
nodes = (
(-204,-376,o),
(-201,-367,o),
(-201,-348,c),
(-205,-331,l),
(-191,-331,o),
(-179,-325,o),
(-169,-314,c),
(-173,-331,l),
(-169,-399,l),
(-197,-427,l),
(-202,-427,o),
(-206,-410,o),
(-209,-376,c)
);
},
{
closed = 1;
nodes = (
(-205,-460,l),
(-205,-447,o),
(-166,-430,o),
(-89,-410,c),
(-89,-415,ls),
(-89,-435,o),
(-126,-450,o),
(-201,-460,c)
);
},
{
closed = 1;
nodes = (
(-161,-410,l),
(-143,-394,o),
(-115,-381,o),
(-77,-370,c),
(-77,-387,l),
(-161,-415,l)
);
},
{
closed = 1;
nodes = (
(-129,-292,l),
(-125,-292,l),
(-133,-320,l),
(-125,-354,l),
(-153,-382,l),
(-161,-309,l)
);
},
{
closed = 1;
nodes = (
(-117,-365,ls),
(-116,-359,o),
(-96,-346,o),
(-57,-325,c),
(-53,-325,l),
(-53,-331,l),
(-64,-344,o),
(-85,-357,o),
(-117,-370,c)
);
},
{
closed = 1;
nodes = (
(-117,-320,l),
(-113,-292,l),
(-117,-286,l),
(-89,-269,l),
(-89,-298,o),
(-98,-320,o),
(-117,-337,c)
);
},
{
closed = 1;
nodes = (
(-93,-325,l),
(-45,-286,l),
(-45,-292,l),
(-85,-331,l),
(-93,-331,l)
);
},
{
closed = 1;
nodes = (
(-53,-235,l),
(-49,-235,l),
(-69,-275,l),
(-85,-269,l)
);
},
{
closed = 1;
nodes = (
(-37,-252,l),
(-37,-269,l),
(-49,-269,l)
);
},
{
closed = 1;
nodes = (
(-45,-331,l),
(-41,-325,l),
(-29,-342,l),
(-45,-337,l)
);
},
{
closed = 1;
nodes = (
(-41,-354,l),
(-14,-363,o),
(-1,-370,o),
(-1,-376,c),
(-9,-376,l),
(-41,-359,l)
);
},
{
closed = 1;
nodes = (
(-29,-297,l),
(-22,-299,o),
(-14,-312,o),
(-5,-337,c),
(-5,-348,l),
(-24,-335,o),
(-33,-318,o),
(-33,-297,c)
);
},
{
closed = 1;
nodes = (
(35,-410,l),
(35,-415,l),
(31,-415,ls),
(-6,-410,o),
(-25,-401,o),
(-25,-387,c)
);
},
{
closed = 1;
nodes = (
(32,-428,o),
(61,-438,o),
(79,-449,c),
(79,-455,l),
(67,-455,ls),
(23,-455,o),
(-2,-444,o),
(-9,-421,c)
);
},
{
closed = 1;
nodes = (
(16,-319,o),
(27,-336,o),
(27,-365,cs),
(27,-387,l),
(16,-387,o),
(6,-363,o),
(-5,-314,c)
);
},
{
closed = 1;
nodes = (
(27,-466,l),
(31,-466,ls),
(76,-470,o),
(104,-476,o),
(115,-483,c),
(115,-489,l),
(111,-489,ls),
(80,-489,o),
(52,-483,o),
(27,-472,c)
);
},
{
closed = 1;
nodes = (
(39,-337,ls),
(52,-337,o),
(62,-361,o),
(67,-410,c),
(67,-427,l),
(43,-415,o),
(31,-385,o),
(31,-337,c)
);
},
{
closed = 1;
nodes = (
(55,-500,l),
(127,-500,l),
(163,-517,l),
(163,-522,l),
(159,-522,l),
(147,-517,l),
(131,-522,l),
(127,-522,l),
(123,-517,l),
(119,-517,l),
(115,-522,l),
(55,-505,l)
);
},
{
closed = 1;
nodes = (
(63,-354,l),
(67,-348,l),
(91,-352,o),
(103,-389,o),
(103,-460,c),
(83,-444,l),
(77,-387,o),
(70,-359,o),
(63,-359,c)
);
},
{
closed = 1;
nodes = (
(95,-534,l),
(187,-534,l),
(199,-550,l),
(167,-556,l),
(167,-550,l),
(155,-556,l),
(95,-539,l)
);
},
{
closed = 1;
nodes = (
(126,-365,o),
(139,-404,o),
(139,-483,c),
(131,-483,l),
(119,-472,l),
(99,-365,l)
);
},
{
closed = 1;
nodes = (
(135,-567,l),
(219,-562,ls),
(227,-562,o),
(231,-566,o),
(231,-573,c),
(187,-584,l),
(187,-579,o),
(170,-576,o),
(135,-573,c)
);
},
{
closed = 1;
nodes = (
(147,-387,l),
(168,-423,o),
(179,-462,o),
(179,-505,cs),
(179,-511,l),
(155,-500,l),
(148,-445,o),
(142,-408,o),
(135,-387,c)
);
},
{
closed = 1;
nodes = (
(139,1041,l),
(143,1047,l),
(139,1086,l),
(160,1153,o),
(181,1209,o),
(203,1255,c),
(207,1255,l),
(219,1244,l),
(168,1128,o),
(143,1057,o),
(143,1030,c),
(139,1030,l)
);
},
{
closed = 1;
nodes = (
(139,1148,l),
(149,1203,o),
(161,1250,o),
(175,1289,c),
(187,1289,l),
(195,1278,l),
(160,1206,o),
(143,1161,o),
(143,1143,c),
(139,1143,l)
);
},
{
closed = 1;
nodes = (
(147,991,ls),
(147,1017,o),
(171,1084,o),
(219,1193,c),
(223,1193,l),
(227,1137,l),
(227,1126,l),
(179,1030,o),
(155,974,o),
(155,957,c),
(151,957,l),
(147,985,l)
);
},
{
closed = 1;
nodes = (
(159,-185,l),
(159,-162,l),
(155,-123,l),
(159,-123,l),
(171,-190,l),
(235,-376,l),
(235,-415,l),
(231,-415,l),
(200,-342,o),
(175,-267,o),
(155,-190,c)
);
},
{
closed = 1;
nodes = (
(164,948,o),
(188,1006,o),
(227,1081,c),
(231,1081,l),
(235,1019,l),
(190,936,o),
(167,885,o),
(167,867,c),
(163,867,l),
(155,906,l)
);
},
{
closed = 1;
nodes = (
(159,-264,l),
(163,-264,l),
(171,-297,l),
(214,-406,o),
(235,-477,o),
(235,-511,cs),
(235,-517,l),
(184,-414,o),
(159,-332,o),
(159,-269,cs)
);
},
{
closed = 1;
nodes = (
(159,-61,l),
(167,-39,l),
(171,-39,l),
(179,-84,l),
(219,-173,o),
(239,-226,o),
(239,-241,cs),
(239,-320,l),
(235,-320,l),
(184,-190,o),
(159,-106,o),
(159,-67,cs)
);
},
{
closed = 1;
nodes = (
(171,-399,l),
(198,-470,o),
(211,-513,o),
(211,-528,cs),
(211,-534,l),
(195,-528,l),
(185,-454,o),
(174,-411,o),
(163,-399,c)
);
},
{
closed = 1;
nodes = (
(168,23,o),
(171,44,o),
(171,85,c),
(175,85,l),
(179,57,l),
(243,-117,l),
(243,-185,l),
(239,-185,l),
(239,-179,l),
(202,-102,o),
(177,-34,o),
(163,23,c)
);
},
{
closed = 1;
nodes = (
(171,102,l),
(179,119,l),
(179,153,l),
(183,192,l),
(187,192,l),
(195,141,l),
(227,58,o),
(243,10,o),
(243,-5,cs),
(243,-55,l),
(239,-55,l),
(239,-50,l),
(202,37,o),
(183,88,o),
(183,102,c),
(175,102,l),
(171,96,l)
);
},
{
closed = 1;
nodes = (
(184,878,o),
(206,921,o),
(235,968,c),
(239,929,l),
(202,854,o),
(183,804,o),
(183,777,c),
(175,777,l),
(175,800,l),
(171,839,l)
);
},
{
closed = 1;
nodes = (
(179,743,l),
(187,743,l),
(199,793,o),
(214,834,o),
(231,867,c),
(235,867,l),
(239,800,l),
(210,742,o),
(195,706,o),
(195,693,c),
(179,738,l)
);
},
{
closed = 1;
nodes = (
(191,293,l),
(195,293,l),
(199,265,l),
(226,207,o),
(239,168,o),
(239,147,cs),
(239,74,l),
(235,74,l),
(235,92,o),
(227,111,o),
(211,130,c),
(200,187,o),
(192,215,o),
(187,215,cs),
(183,215,l)
);
},
{
closed = 1;
nodes = (
(187,1311,l),
(202,1345,o),
(211,1362,o),
(215,1362,c),
(215,1356,l),
(187,1306,l)
);
},
{
closed = 1;
nodes = (
(195,400,l),
(199,400,l),
(199,338,l),
(203,333,l),
(207,333,l),
(211,338,l),
(224,338,o),
(232,310,o),
(235,254,cs),
(235,231,l),
(231,231,l),
(208,295,o),
(195,327,o),
(191,327,c)
);
},
{
closed = 1;
nodes = (
(235,738,l),
(235,687,l),
(214,649,o),
(203,621,o),
(203,603,c),
(199,603,l),
(199,627,o),
(196,644,o),
(191,653,c)
);
},
{
closed = 1;
nodes = (
(199,1289,l),
(203,1295,l),
(263,1221,l),
(249,1221,o),
(228,1242,o),
(199,1283,c)
);
},
{
closed = 1;
nodes = (
(199,1323,o),
(214,1345,o),
(243,1368,c),
(255,1368,l),
(255,1362,l),
(199,1300,l)
);
},
{
closed = 1;
nodes = (
(207,563,l),
(223,631,l),
(231,631,l),
(231,599,o),
(224,563,o),
(211,524,c),
(207,524,l)
);
},
{
closed = 1;
nodes = (
(211,501,l),
(219,501,l),
(215,451,l),
(211,451,l)
);
},
{
closed = 1;
nodes = (
(227,383,l),
(227,361,l),
(219,372,l)
);
},
{
closed = 1;
nodes = (
(219,1311,l),
(254,1352,o),
(279,1373,o),
(295,1373,cs),
(299,1373,l),
(299,1368,l),
(231,1306,l),
(219,1306,l)
);
},
{
closed = 1;
nodes = (
(223,-534,l),
(231,-545,l),
(231,-550,l),
(223,-539,l)
);
},
{
closed = 1;
nodes = (
(235,1295,l),
(267,1250,o),
(287,1227,o),
(295,1227,c),
(295,1221,l),
(283,1216,l),
(254,1247,o),
(234,1273,o),
(223,1295,c)
);
},
{
closed = 1;
nodes = (
(227,456,l),
(231,456,l),
(231,445,l),
(227,445,l)
);
},
{
closed = 1;
nodes = (
(231,-708,l),
(235,-708,l),
(235,-719,l),
(231,-719,l)
);
},
{
closed = 1;
nodes = (
(251,445,l),
(255,445,l),
(255,423,l),
(247,299,l),
(243,299,l),
(239,344,l)
);
},
{
closed = 1;
nodes = (
(239,575,l),
(243,575,l),
(251,513,l),
(243,501,l),
(239,541,l)
);
},
{
closed = 1;
nodes = (
(243,-489,l),
(283,-370,o),
(303,-293,o),
(303,-258,c),
(307,-258,l),
(307,-297,l),
(292,-410,o),
(270,-481,o),
(243,-511,c)
);
},
{
closed = 1;
nodes = (
(243,1160,l),
(247,1160,l),
(277,1071,o),
(297,1000,o),
(307,946,c),
(299,935,l),
(243,1115,l)
);
},
{
closed = 1;
nodes = (
(255,1216,l),
(287,1165,o),
(303,1111,o),
(303,1053,c),
(299,1053,l),
(243,1216,l)
);
},
{
closed = 1;
nodes = (
(247,-382,l),
(284,-215,o),
(303,-123,o),
(303,-106,c),
(307,-106,l),
(307,-123,l),
(303,-185,l),
(303,-190,l),
(307,-196,l),
(303,-196,l),
(288,-280,o),
(271,-353,o),
(251,-415,c),
(247,-415,l)
);
},
{
closed = 1;
nodes = (
(247,220,l),
(263,355,l),
(267,355,l),
(275,321,l),
(255,170,l),
(247,181,l)
);
},
{
closed = 1;
nodes = (
(247,670,l),
(253,670,o),
(258,644,o),
(263,591,c),
(263,575,l),
(259,575,l),
(247,659,l)
);
},
{
closed = 1;
nodes = (
(271,1300,l),
(323,1227,l),
(323,1221,l),
(304,1221,o),
(279,1247,o),
(247,1300,c)
);
},
{
closed = 1;
nodes = (
(251,-213,l),
(283,-76,o),
(299,1,o),
(299,18,c),
(303,18,l),
(307,-10,l),
(255,-280,l),
(251,-280,l)
);
},
{
closed = 1;
nodes = (
(251,51,l),
(279,282,l),
(283,282,l),
(291,209,l),
(259,18,l),
(251,18,l)
);
},
{
closed = 1;
nodes = (
(251,794,l),
(255,794,l),
(279,676,l),
(275,648,l),
(271,648,l),
(271,665,o),
(264,699,o),
(251,749,c)
);
},
{
closed = 1;
nodes = (
(251,923,l),
(255,923,l),
(295,771,l),
(291,715,l),
(287,715,l),
(287,733,o),
(275,787,o),
(251,878,c)
);
},
{
closed = 1;
nodes = (
(251,1025,l),
(255,1025,l),
(284,934,o),
(299,881,o),
(299,867,cs),
(299,856,o),
(296,850,o),
(291,850,c),
(251,996,l)
);
},
{
closed = 1;
nodes = (
(255,-72,l),
(291,130,l),
(295,130,l),
(299,80,l),
(295,80,l),
(290,31,o),
(278,-34,o),
(259,-117,c),
(255,-117,l)
);
},
{
closed = 1;
nodes = (
(288,1352,o),
(312,1373,o),
(327,1373,cs),
(331,1373,l),
(300,1332,o),
(274,1311,o),
(255,1311,c)
);
},
{
closed = 1;
nodes = (
(303,1306,l),
(355,1233,l),
(339,1227,l),
(317,1249,o),
(298,1275,o),
(283,1306,c)
);
},
{
closed = 1;
nodes = (
(291,1205,l),
(295,1205,l),
(299,1188,l),
(299,1165,l),
(295,1165,l),
(291,1199,l)
);
},
{
closed = 1;
nodes = (
(303,1323,l),
(322,1353,o),
(339,1368,o),
(355,1368,cs),
(363,1368,l),
(363,1362,l),
(303,1317,l)
);
},
{
closed = 1;
nodes = (
(327,1311,l),
(383,1255,l),
(375,1244,l),
(363,1244,l),
(351,1251,o),
(335,1273,o),
(315,1311,c)
);
},
{
closed = 1;
nodes = (
(335,1323,l),
(344,1340,o),
(361,1353,o),
(387,1362,c),
(399,1356,l),
(399,1351,l),
(347,1323,l)
);
},
{
closed = 1;
nodes = (
(363,1306,l),
(379,1300,l),
(390,1277,o),
(400,1266,o),
(407,1266,c),
(407,1255,l),
(391,1255,l),
(378,1264,o),
(364,1281,o),
(351,1306,c)
);
},
{
closed = 1;
nodes = (
(375,1328,l),
(411,1345,l),
(419,1334,l),
(379,1317,l),
(375,1317,l)
);
},
{
closed = 1;
nodes = (
(391,1306,ls),
(398,1306,o),
(413,1295,o),
(435,1272,c),
(435,1266,l),
(419,1261,l),
(387,1306,l)
);
},
{
closed = 1;
nodes = (
(411,1323,l),
(435,1328,l),
(443,1328,l),
(443,1323,l),
(411,1311,l)
);
},
{
closed = 1;
nodes = (
(440,1300,o),
(452,1291,o),
(459,1272,c),
(447,1272,l),
(423,1300,l)
);
},
{
closed = 1;
nodes = (
(435,1311,l),
(467,1311,l),
(467,1306,l),
(435,1306,l)
);
},
{
closed = 1;
nodes = (
(467,1289,l),
(487,1283,l),
(487,1278,l),
(467,1278,l)
);
}
);
width = 649;
}
);
note = uni17D2_1794;
},
{
category = Letter;
glyphname = uni17D2_1799;
lastChange = "2023-01-31 11:13:53 +0000";
layers = (
{
layerId = m01;
shapes = (
{
closed = 1;
nodes = (
(150,1487,o),
(145,1482,o),
(145,1472,c),
(135,1472,l),
(135,1482,l),
(118,1482,o),
(89,1471,o),
(46,1448,c),
(46,1462,l),
(37,1462,l),
(37,1445,o),
(21,1427,o),
(-10,1408,c),
(-10,1401,o),
(-5,1398,o),
(4,1398,cs),
(9,1398,l),
(9,1372,o),
(6,1359,o),
(-1,1359,c),
(-10,1329,l),
(-10,1315,l),
(3,1312,o),
(15,1290,o),
(28,1251,c),
(28,1246,l),
(12,1265,o),
(1,1284,o),
(-5,1305,c),
(-15,1295,l),
(-15,1231,ls),
(-15,1203,o),
(-12,1182,o),
(-5,1167,c),
(-15,1167,l),
(-15,1162,l),
(3,1124,o),
(25,1098,o),
(51,1083,c),
(70,1024,l),
(74,1024,l),
(79,1029,l),
(65,1083,l),
(79,1103,l),
(88,1093,l),
(163,1128,l),
(168,1128,l),
(168,1123,l),
(112,1093,l),
(112,1083,l),
(121,1083,l),
(182,1073,l),
(196,1078,l),
(196,1073,l),
(220,1078,l),
(238,1078,l),
(234,995,l),
(209,839,o),
(193,757,o),
(187,748,c),
(191,729,l),
(182,699,l),
(182,694,l),
(187,689,l),
(182,670,l),
(187,645,l),
(182,640,l),
(201,561,o),
(219,522,o),
(234,522,c),
(234,443,o),
(217,288,o),
(182,59,c),
(182,29,l),
(187,24,l),
(181,24,o),
(178,8,o),
(177,-25,cs),
(177,-84,ls),
(177,-173,o),
(196,-250,o),
(234,-315,c),
(206,-315,l),
(65,-291,l),
(-140,-245,o),
(-279,-222,o),
(-352,-222,cs),
(-357,-222,l),
(-357,-177,l),
(-361,-173,l),
(-357,-168,l),
(-357,-163,l),
(-361,-158,l),
(-357,-158,l),
(-357,-116,o),
(-385,-85,o),
(-441,-64,c),
(-441,-45,ls),
(-441,-20,o),
(-446,-7,o),
(-455,-5,c),
(-464,-5,l),
(-469,-10,l),
(-460,-27,o),
(-455,-43,o),
(-455,-59,cs),
(-455,-64,l),
(-518,-94,o),
(-549,-127,o),
(-549,-163,cs),
(-549,-177,l),
(-544,-182,l),
(-549,-187,l),
(-502,-306,l),
(-506,-355,l),
(-552,-355,o),
(-602,-347,o),
(-656,-330,c),
(-661,-330,l),
(-661,-340,ls),
(-661,-363,o),
(-608,-376,o),
(-502,-379,cs),
(-493,-379,o),
(-488,-382,o),
(-488,-389,cs),
(-488,-429,l),
(-483,-429,l),
(-464,-409,l),
(-349,-474,o),
(-266,-507,o),
(-216,-507,c),
(-183,-503,l),
(-169,-507,l),
(-164,-507,l),
(-160,-503,l),
(-66,-512,l),
(117,-488,l),
(132,-488,o),
(188,-463,o),
(285,-414,c),
(295,-414,l),
(295,-468,l),
(280,-601,l),
(295,-601,ls),
(310,-601,o),
(318,-537,o),
(318,-409,c),
(354,-360,o),
(384,-335,o),
(407,-335,c),
(407,-320,l),
(374,-320,l),
(395,-259,o),
(409,-198,o),
(416,-138,c),
(412,-69,l),
(412,24,l),
(416,59,l),
(412,59,l),
(412,112,o),
(409,138,o),
(402,138,c),
(402,261,o),
(385,366,o),
(351,453,c),
(398,501,o),
(421,550,o),
(421,601,c),
(412,620,l),
(416,620,l),
(412,650,l),
(416,679,l),
(412,694,l),
(416,694,l),
(402,793,l),
(402,844,o),
(365,949,o),
(290,1108,c),
(290,1113,l),
(295,1118,l),
(295,1128,l),
(269,1101,o),
(252,1088,o),
(243,1088,cs),
(238,1088,l),
(238,1093,l),
(251,1093,o),
(268,1109,o),
(290,1142,c),
(299,1142,l),
(299,1132,l),
(304,1137,l),
(341,1148,o),
(360,1156,o),
(360,1162,cs),
(360,1167,l),
(355,1172,l),
(318,1157,l),
(285,1182,l),
(280,1182,l),
(295,1162,l),
(295,1157,l),
(280,1162,l),
(257,1191,o),
(240,1206,o),
(229,1206,c),
(229,1211,l),
(238,1211,l),
(243,1206,l),
(248,1206,l),
(248,1216,l),
(224,1221,l),
(206,1221,ls),
(193,1221,o),
(164,1211,o),
(117,1192,c),
(112,1192,l),
(112,1206,l),
(107,1231,l),
(98,1231,l),
(86,1201,o),
(72,1178,o),
(56,1162,c),
(51,1162,l),
(51,1182,l),
(79,1211,l),
(82,1231,o),
(89,1241,o),
(102,1241,c),
(94,1280,o),
(86,1300,o),
(79,1300,c),
(75,1273,o),
(61,1250,o),
(37,1231,c),
(37,1246,l),
(59,1282,o),
(73,1300,o),
(79,1300,c),
(56,1389,l),
(210,1339,l),
(234,1354,l),
(290,1408,l),
(299,1408,l),
(290,1393,l),
(290,1389,l),
(309,1408,l),
(355,1393,l),
(355,1398,l),
(360,1403,l),
(360,1408,l),
(355,1413,l),
(321,1416,o),
(304,1421,o),
(304,1428,c),
(299,1428,l),
(295,1423,l),
(285,1423,l),
(271,1449,o),
(260,1462,o),
(252,1462,c),
(252,1467,l),
(257,1467,l),
(295,1438,l),
(295,1443,l),
(290,1448,l),
(290,1474,o),
(246,1487,o),
(159,1487,cs)
);
},
{
closed = 1;
nodes = (
(-535,-168,l),
(-514,-141,o),
(-486,-118,o),
(-450,-99,c),
(-450,-113,l),
(-503,-152,o),
(-530,-176,o),
(-530,-187,c),
(-535,-187,l)
);
},
{
closed = 1;
nodes = (
(-508,-99,o),
(-479,-74,o),
(-450,-74,c),
(-450,-79,l),
(-535,-148,l)
);
},
{
closed = 1;
nodes = (
(-530,-197,l),
(-513,-173,o),
(-486,-150,o),
(-450,-128,c),
(-446,-128,l),
(-446,-153,l),
(-495,-187,o),
(-520,-207,o),
(-520,-212,c),
(-530,-202,l)
);
},
{
closed = 1;
nodes = (
(-446,-168,l),
(-441,-168,l),
(-441,-187,l),
(-520,-246,l),
(-525,-222,l)
);
},
{
closed = 1;
nodes = (
(-436,-202,l),
(-436,-217,l),
(-413,-237,l),
(-446,-232,l),
(-460,-246,l),
(-450,-246,l),
(-466,-281,o),
(-480,-301,o),
(-492,-306,c),
(-497,-306,l),
(-502,-281,l),
(-491,-281,o),
(-480,-271,o),
(-469,-251,c),
(-478,-251,l),
(-485,-253,o),
(-491,-261,o),
(-497,-276,c),
(-506,-275,o),
(-512,-266,o),
(-516,-251,c)
);
},
{
closed = 1;
nodes = (
(-483,-345,l),
(-443,-279,o),
(-406,-246,o),
(-371,-246,cs),
(-366,-246,l),
(-427,-320,l),
(-427,-334,o),
(-433,-347,o),
(-446,-360,c),
(-469,-355,l),
(-483,-355,l)
);
},
{
closed = 1;
nodes = (
(-478,-394,l),
(-474,-394,l),
(-474,-404,l),
(-478,-404,l)
);
},
{
closed = 1;
nodes = (
(-455,-379,l),
(-333,-445,o),
(-266,-478,o),
(-253,-478,c),
(-253,-483,l),
(-258,-483,l),
(-345,-462,o),
(-412,-428,o),
(-460,-379,c)
);
},
{
closed = 1;
nodes = (
(-441,-99,l),
(-436,-99,l),
(-389,-132,o),
(-366,-162,o),
(-366,-187,c),
(-441,-109,l)
);
},
{
closed = 1;
nodes = (
(-441,-74,l),
(-418,-74,o),
(-395,-94,o),
(-371,-133,c),
(-371,-143,l),
(-441,-79,l)
);
},
{
closed = 1;
nodes = (
(-431,-138,l),
(-410,-155,o),
(-389,-179,o),
(-366,-212,c),
(-371,-227,l),
(-375,-227,l),
(-375,-218,o),
(-394,-197,o),
(-431,-163,c)
);
},
{
closed = 1;
nodes = (
(-427,-182,l),
(-385,-222,l),
(-394,-232,l),
(-399,-232,l),
(-418,-220,o),
(-427,-205,o),
(-427,-187,cs)
);
},
{
closed = 1;
nodes = (
(-399,-345,l),
(-387,-309,o),
(-357,-273,o),
(-310,-237,c),
(-300,-246,l),
(-277,-242,l),
(-263,-242,l),
(-263,-246,l),
(-288,-246,o),
(-309,-263,o),
(-328,-296,cs),
(-353,-342,o),
(-373,-365,o),
(-389,-365,c),
(-413,-360,l)
);
},
{
closed = 1;
nodes = (
(-368,-384,o),
(-339,-396,o),
(-296,-419,c),
(-141,-483,l),
(-141,-488,l),
(-150,-488,l),
(-236,-471,o),
(-314,-437,o),
(-385,-384,c)
);
},
{
closed = 1;
nodes = (
(-333,-365,l),
(-320,-352,o),
(-314,-339,o),
(-314,-325,c),
(-278,-282,o),
(-245,-255,o),
(-216,-246,c),
(-183,-256,l),
(-183,-261,l),
(-188,-261,l),
(-211,-270,o),
(-232,-296,o),
(-249,-340,c),
(-249,-345,l),
(-244,-350,l),
(-259,-366,o),
(-281,-374,o),
(-310,-374,c),
(-310,-370,l),
(-314,-365,l),
(-328,-370,l),
(-333,-370,l)
);
},
{
closed = 1;
nodes = (
(-282,-394,l),
(-277,-394,l),
(-272,-399,l),
(-268,-399,l),
(-263,-394,l),
(-239,-399,l),
(-128,-452,o),
(-63,-480,o),
(-43,-483,c),
(-43,-488,l),
(-47,-488,ls),
(-78,-488,o),
(-120,-475,o),
(-174,-448,c),
(-282,-404,l)
);
},
{
closed = 1;
nodes = (
(-235,-374,l),
(-207,-335,o),
(-193,-309,o),
(-193,-296,c),
(-168,-283,o),
(-155,-273,o),
(-155,-266,cs),
(-155,-261,l),
(-104,-271,l),
(-104,-276,l),
(-136,-315,l),
(-141,-336,o),
(-155,-359,o),
(-179,-384,c),
(-183,-384,l),
(-188,-379,l),
(-235,-379,l)
);
},
{
closed = 1;
nodes = (
(-169,-404,l),
(-164,-404,l),
(-141,-409,l),
(-136,-404,l),
(28,-473,l),
(28,-478,l),
(23,-478,l),
(-40,-465,o),
(-104,-442,o),
(-169,-409,c)
);
},
{
closed = 1;
nodes = (
(-115,-351,o),
(-104,-326,o),
(-104,-310,c),
(-85,-302,o),
(-76,-294,o),
(-76,-286,c),
(-47,-286,l),
(-15,-296,l),
(-61,-335,l),
(-61,-358,o),
(-71,-375,o),
(-90,-384,c),
(-136,-384,l)
);
},
{
closed = 1;
nodes = (
(-71,-409,l),
(-52,-409,ls),
(-27,-409,o),
(27,-425,o),
(112,-458,c),
(117,-458,l),
(121,-453,l),
(121,-458,l),
(131,-458,l),
(131,-468,l),
(107,-468,ls),
(80,-468,o),
(20,-450,o),
(-71,-414,c)
);
},
{
closed = 1;
nodes = (
(-43,-374,l),
(-30,-359,o),
(-24,-348,o),
(-24,-340,c),
(-1,-320,l),
(12,-320,o),
(18,-314,o),
(18,-301,c),
(84,-310,l),
(84,-315,l),
(71,-315,o),
(58,-322,o),
(46,-335,c),
(37,-368,o),
(28,-384,o),
(18,-384,cs),
(-43,-384,l)
);
},
{
closed = 1;
nodes = (
(-5,1236,l),
(-1,1236,l),
(-1,1226,l),
(-5,1226,l)
);
},
{
closed = 1;
nodes = (
(-1,1192,l),
(4,1192,l),
(4,1187,l),
(46,1128,l),
(46,1123,l),
(-1,1177,l)
);
},
{
closed = 1;
nodes = (
(-1,1260,l),
(4,1260,l),
(28,1221,l),
(28,1216,l),
(23,1216,l),
(23,1221,l),
(-1,1251,l)
);
},
{
closed = 1;
nodes = (
(9,1339,l),
(23,1305,l),
(23,1295,l),
(18,1295,l),
(12,1318,o),
(6,1329,o),
(-1,1329,c)
);
},
{
closed = 1;
nodes = (
(4,1216,l),
(32,1187,l),
(32,1177,l),
(28,1177,ls),
(23,1177,o),
(15,1188,o),
(4,1211,c)
);
},
{
closed = 1;
nodes = (
(9,1142,l),
(51,1098,l),
(51,1093,l),
(23,1114,o),
(9,1128,o),
(9,1137,cs)
);
},
{
closed = 1;
nodes = (
(18,1349,l),
(23,1349,l),
(23,1339,l),
(18,1339,l)
);
},
{
closed = 1;
nodes = (
(18,1393,l),
(23,1393,l),
(23,1384,l),
(18,1384,l)
);
},
{
closed = 1;
nodes = (
(28,-404,l),
(46,-404,l),
(46,-409,l),
(28,-409,l)
);
},
{
closed = 1;
nodes = (
(32,1329,l),
(45,1342,o),
(51,1354,o),
(51,1364,c),
(56,1364,l),
(60,1344,l),
(32,1315,l)
);
},
{
closed = 1;
nodes = (
(37,1280,ls),
(37,1297,o),
(45,1311,o),
(60,1324,c),
(65,1324,l),
(42,1270,l),
(37,1270,l)
);
},
{
closed = 1;
nodes = (
(37,1364,l),
(42,1393,l),
(46,1393,l),
(46,1384,l),
(42,1354,l),
(37,1354,l)
);
},
{
closed = 1;
nodes = (
(37,1408,l),
(42,1408,l),
(42,1398,l),
(37,1398,l)
);
},
{
closed = 1;
nodes = (
(42,1211,l),
(67,1243,o),
(79,1263,o),
(79,1270,c),
(84,1270,l),
(88,1256,l),
(51,1196,l),
(42,1206,l)
);
},
{
closed = 1;
nodes = (
(46,1433,l),
(60,1433,l),
(60,1428,l),
(46,1428,l)
);
},
{
closed = 1;
nodes = (
(51,-409,l),
(56,-404,l),
(107,-419,l),
(112,-419,l),
(117,-414,l),
(134,-427,o),
(154,-434,o),
(177,-434,c),
(177,-443,l),
(173,-448,l),
(51,-414,l)
);
},
{
closed = 1;
nodes = (
(51,1413,l),
(65,1418,l),
(74,1418,l),
(74,1413,l),
(65,1413,o),
(60,1408,o),
(60,1398,c),
(51,1408,l)
);
},
{
closed = 1;
nodes = (
(56,1137,l),
(84,1172,o),
(98,1197,o),
(98,1211,c),
(102,1211,l),
(102,1201,l),
(90,1166,o),
(76,1143,o),
(60,1132,c),
(56,1132,l)
);
},
{
closed = 1;
nodes = (
(60,-379,l),
(102,-315,l),
(140,-325,l),
(145,-320,l),
(145,-325,l),
(149,-330,l),
(149,-337,o),
(144,-340,o),
(135,-340,c),
(122,-369,o),
(98,-384,o),
(65,-384,cs),
(60,-384,l)
);
},
{
closed = 1;
nodes = (
(85,1135,o),
(98,1154,o),
(98,1167,c),
(102,1167,l),
(102,1162,l),
(70,1098,l),
(60,1108,l)
);
},
{
closed = 1;
nodes = (
(65,1398,l),
(70,1398,l),
(102,1423,l),
(107,1423,l),
(101,1410,o),
(92,1400,o),
(79,1393,c),
(65,1393,l)
);
},
{
closed = 1;
nodes = (
(65,1448,l),
(93,1438,l),
(93,1433,l),
(88,1433,l),
(65,1438,l)
);
},
{
closed = 1;
nodes = (
(104,1113,o),
(112,1131,o),
(112,1167,c),
(121,1167,l),
(149,1137,l),
(126,1137,l),
(121,1142,l),
(117,1137,l),
(126,1128,l),
(126,1121,o),
(121,1118,o),
(112,1118,c),
(98,1103,l),
(88,1113,l)
);
},
{
closed = 1;
nodes = (
(88,1393,l),
(98,1393,l),
(113,1413,o),
(127,1423,o),
(140,1423,cs),
(145,1423,l),
(112,1384,l),
(88,1389,l)
);
},
{
closed = 1;
nodes = (
(88,1457,l),
(126,1443,l),
(126,1438,l),
(107,1438,l),
(88,1448,l)
);
},
{
closed = 1;
nodes = (
(117,1467,l),
(168,1443,l),
(168,1438,l),
(159,1438,ls),
(142,1438,o),
(127,1448,o),
(112,1467,c)
);
},
{
closed = 1;
nodes = (
(140,1192,l),
(182,1137,l),
(168,1137,l),
(121,1187,l)
);
},
{
closed = 1;
nodes = (
(168,1423,l),
(177,1423,l),
(140,1374,l),
(121,1379,l)
);
},
{
closed = 1;
nodes = (
(126,-394,l),
(234,-414,l),
(234,-419,l),
(210,-424,l),
(210,-419,o),
(182,-412,o),
(126,-404,c)
);
},
{
closed = 1;
nodes = (
(135,1093,l),
(145,1093,l),
(145,1088,l),
(135,1088,l)
);
},
{
closed = 1;
nodes = (
(145,1196,l),
(163,1196,ls),
(169,1196,o),
(186,1178,o),
(215,1142,c),
(196,1137,l),
(171,1174,o),
(154,1192,o),
(145,1192,c)
);
},
{
closed = 1;
nodes = (
(149,-370,l),
(163,-350,l),
(176,-350,o),
(182,-343,o),
(182,-330,c),
(206,-335,l),
(234,-335,l),
(234,-345,l),
(229,-345,l),
(210,-360,o),
(183,-370,o),
(149,-374,c)
);
},
{
closed = 1;
nodes = (
(149,1093,l),
(191,1128,l),
(196,1128,l),
(184,1109,o),
(168,1095,o),
(149,1088,c)
);
},
{
closed = 1;
nodes = (
(178,1405,o),
(195,1423,o),
(201,1423,cs),
(206,1423,l),
(210,1418,l),
(208,1409,o),
(192,1391,o),
(163,1364,c),
(149,1369,l)
);
},
{
closed = 1;
nodes = (
(169,1467,o),
(183,1457,o),
(196,1438,c),
(179,1438,o),
(165,1448,o),
(154,1467,c)
);
},
{
closed = 1;
nodes = (
(173,1093,l),
(201,1106,o),
(215,1119,o),
(215,1132,c),
(234,1132,l),
(223,1113,o),
(203,1097,o),
(173,1083,c)
);
},
{
closed = 1;
nodes = (
(173,1364,l),
(177,1364,l),
(209,1400,o),
(228,1418,o),
(234,1418,c),
(234,1413,l),
(243,1413,l),
(237,1396,o),
(218,1378,o),
(187,1359,c),
(173,1359,l)
);
},
{
closed = 1;
nodes = (
(173,1482,l),
(206,1463,o),
(227,1446,o),
(234,1433,c),
(220,1433,l),
(195,1459,o),
(179,1472,o),
(173,1472,c)
);
},
{
closed = 1;
nodes = (
(177,1206,l),
(187,1206,l),
(208,1195,o),
(228,1175,o),
(248,1147,c),
(229,1142,l),
(177,1201,l)
);
},
{
closed = 1;
nodes = (
(196,-64,l),
(191,-25,l),
(191,-20,l),
(196,-20,l),
(220,-99,l),
(273,-189,o),
(299,-240,o),
(299,-251,cs),
(299,-291,l),
(295,-291,l),
(253,-222,o),
(218,-153,o),
(191,-84,c)
);
},
{
closed = 1;
nodes = (
(196,-148,l),
(201,-148,l),
(201,-165,o),
(229,-220,o),
(285,-315,c),
(285,-320,l),
(262,-320,ls),
(245,-320,o),
(223,-264,o),
(196,-153,c)
);
},
{
closed = 1;
nodes = (
(196,44,l),
(206,64,l),
(210,64,l),
(210,47,o),
(213,34,o),
(220,24,cs),
(261,-39,o),
(289,-88,o),
(304,-123,c),
(304,-202,l),
(299,-202,l),
(299,-197,l),
(258,-129,o),
(223,-60,o),
(196,10,c)
);
},
{
closed = 1;
nodes = (
(201,694,o),
(209,679,o),
(220,650,c),
(276,584,o),
(304,545,o),
(304,532,cs),
(304,517,l),
(232,591,o),
(196,650,o),
(196,694,c)
);
},
{
closed = 1;
nodes = (
(215,148,l),
(210,167,l),
(210,172,l),
(215,172,l),
(229,133,l),
(282,53,o),
(309,5,o),
(309,-10,cs),
(309,-74,l),
(304,-74,l),
(304,-62,o),
(285,-32,o),
(248,15,c),
(201,113,l)
);
},
{
closed = 1;
nodes = (
(206,743,l),
(215,743,l),
(215,730,o),
(246,689,o),
(309,620,c),
(309,571,l),
(261,622,o),
(225,672,o),
(201,719,c)
);
},
{
closed = 1;
nodes = (
(206,610,l),
(238,566,l),
(285,513,o),
(309,477,o),
(309,458,c),
(304,458,l),
(245,519,o),
(213,568,o),
(206,606,c)
);
},
{
closed = 1;
nodes = (
(206,1211,l),
(210,1211,l),
(233,1200,o),
(253,1182,o),
(271,1157,c),
(271,1152,l),
(266,1147,l),
(234,1183,o),
(214,1201,o),
(206,1201,c)
);
},
{
closed = 1;
nodes = (
(206,1359,l),
(262,1413,l),
(266,1413,l),
(271,1408,l),
(271,1402,o),
(251,1382,o),
(210,1349,c),
(206,1349,l)
);
},
{
closed = 1;
nodes = (
(215,807,l),
(313,689,l),
(313,650,l),
(269,691,o),
(235,732,o),
(210,773,c)
);
},
{
closed = 1;
nodes = (
(224,212,l),
(224,241,l),
(229,276,l),
(234,276,l),
(243,221,l),
(287,157,o),
(309,116,o),
(309,98,cs),
(309,49,l),
(304,49,l),
(304,64,o),
(290,87,o),
(262,118,c),
(237,171,o),
(221,197,o),
(215,197,c)
);
},
{
closed = 1;
nodes = (
(215,1098,l),
(221,1098,o),
(237,1111,o),
(262,1137,c),
(271,1137,l),
(224,1088,l),
(215,1088,l)
);
},
{
closed = 1;
nodes = (
(224,1472,l),
(240,1465,o),
(257,1448,o),
(276,1423,c),
(259,1423,o),
(239,1439,o),
(215,1472,c)
);
},
{
closed = 1;
nodes = (
(285,-389,l),
(285,-394,l),
(266,-399,l),
(235,-396,o),
(220,-391,o),
(220,-384,c)
);
},
{
closed = 1;
nodes = (
(226,834,o),
(229,847,o),
(229,867,c),
(236,867,o),
(241,859,o),
(243,842,c),
(290,789,o),
(313,756,o),
(313,743,cs),
(313,724,l),
(243,798,l),
(237,817,o),
(229,827,o),
(220,827,c)
);
},
{
closed = 1;
nodes = (
(229,300,l),
(238,369,l),
(243,369,l),
(243,359,l),
(284,294,o),
(304,253,o),
(304,236,cs),
(304,172,l),
(299,172,l),
(262,231,l),
(255,274,o),
(244,295,o),
(229,295,c)
);
},
{
closed = 1;
nodes = (
(238,926,l),
(248,926,l),
(248,916,l),
(289,881,o),
(309,841,o),
(309,798,c),
(295,807,l),
(234,891,l)
);
},
{
closed = 1;
nodes = (
(248,423,l),
(248,463,l),
(243,468,l),
(252,468,l),
(262,433,l),
(284,400,o),
(296,374,o),
(299,354,c),
(290,335,l),
(290,330,l),
(295,325,l),
(285,325,l),
(238,409,l)
);
},
{
closed = 1;
nodes = (
(248,975,l),
(248,985,l),
(243,990,l),
(252,990,l),
(257,970,l),
(285,944,o),
(299,919,o),
(299,896,cs),
(299,891,l),
(295,891,l),
(243,950,l)
);
},
{
closed = 1;
nodes = (
(280,-335,l),
(313,-340,l),
(313,-345,l),
(257,-355,l),
(252,-340,l)
);
},
{
closed = 1;
nodes = (
(252,1044,l),
(274,1023,o),
(285,997,o),
(285,965,c),
(252,1014,l)
);
},
{
closed = 1;
nodes = (
(262,1083,l),
(266,1059,l),
(266,1054,l),
(261,1054,o),
(257,1064,o),
(252,1083,c)
);
},
{
closed = 1;
nodes = (
(266,473,l),
(275,470,o),
(283,459,o),
(290,438,c),
(290,433,l),
(283,435,o),
(275,447,o),
(266,468,c)
);
},
{
closed = 1;
nodes = (
(276,1369,l),
(290,1384,l),
(290,1389,l),
(285,1389,l),
(266,1369,l)
);
},
{
closed = 1;
nodes = (
(295,-562,l),
(299,-562,l),
(299,-571,l),
(295,-571,l)
);
},
{
closed = 1;
nodes = (
(295,1054,l),
(304,1054,l),
(304,1004,l),
(295,1004,l)
);
},
{
closed = 1;
nodes = (
(309,-365,l),
(323,-365,l),
(313,-374,l),
(309,-374,l)
);
},
{
closed = 1;
nodes = (
(309,940,l),
(318,995,l),
(323,995,l),
(327,990,l),
(318,935,l),
(309,935,l)
);
},
{
closed = 1;
nodes = (
(318,-251,l),
(368,-104,o),
(393,-22,o),
(393,-5,c),
(398,-5,l),
(398,-20,l),
(393,-69,l),
(398,-89,l),
(392,-94,o),
(381,-125,o),
(365,-182,c),
(323,-286,l),
(318,-286,l)
);
},
{
closed = 1;
nodes = (
(318,305,l),
(341,423,l),
(346,423,l),
(355,394,l),
(350,394,o),
(340,348,o),
(327,256,c),
(318,256,l)
);
},
{
closed = 1;
nodes = (
(371,531,o),
(398,572,o),
(398,586,c),
(402,586,l),
(402,571,l),
(373,496,o),
(347,458,o),
(323,458,c),
(318,463,l)
);
},
{
closed = 1;
nodes = (
(318,886,l),
(331,906,o),
(337,926,o),
(337,945,c),
(346,945,l),
(351,931,l),
(327,852,l),
(318,852,l)
);
},
{
closed = 1;
nodes = (
(323,-118,l),
(327,-94,l),
(323,-89,l),
(366,22,o),
(388,90,o),
(388,113,c),
(393,113,l),
(398,93,l),
(388,59,l),
(388,36,o),
(368,-38,o),
(327,-163,c),
(323,-163,l)
);
},
{
closed = 1;
nodes = (
(323,152,l),
(348,261,o),
(360,330,o),
(360,359,c),
(365,359,l),
(374,290,l),
(332,113,l),
(323,113,l)
);
},
{
closed = 1;
nodes = (
(323,517,l),
(323,536,o),
(349,587,o),
(402,670,c),
(393,645,l),
(398,625,l),
(332,517,l)
);
},
{
closed = 1;
nodes = (
(371,-237,o),
(393,-178,o),
(393,-143,c),
(398,-143,l),
(398,-163,ls),
(398,-203,o),
(382,-257,o),
(351,-325,c),
(327,-320,l)
);
},
{
closed = 1;
nodes = (
(327,29,l),
(379,216,l),
(384,216,l),
(384,182,ls),
(384,157,o),
(367,93,o),
(332,-10,c),
(327,-10,l)
);
},
{
closed = 1;
nodes = (
(327,625,l),
(388,743,l),
(398,743,l),
(398,712,o),
(374,662,o),
(327,591,c)
);
},
{
closed = 1;
nodes = (
(327,793,l),
(349,851,o),
(360,887,o),
(360,901,c),
(366,901,o),
(371,886,o),
(374,857,c),
(332,758,l),
(327,758,l)
);
},
{
closed = 1;
nodes = (
(332,709,l),
(374,807,l),
(379,807,l),
(384,802,l),
(384,781,o),
(368,741,o),
(337,684,c),
(332,684,l)
);
}
);
width = 658;
}
);
note = uni17D2_1799;
},
{
category = Letter;
glyphname = uni17D2_179A;
lastChange = "2023-01-31 11:13:53 +0000";
layers = (
{
layerId = m01;
shapes = (
{
closed = 1;
nodes = (
(462,1436,o),
(457,1431,o),
(457,1421,c),
(448,1421,l),
(448,1431,l),
(431,1431,o),
(401,1419,o),
(358,1396,c),
(358,1411,l),
(349,1411,l),
(349,1394,o),
(333,1376,o),
(302,1357,c),
(302,1350,o),
(307,1347,o),
(316,1347,cs),
(321,1347,l),
(321,1320,o),
(318,1307,o),
(311,1307,c),
(302,1277,l),
(302,1262,l),
(315,1259,o),
(327,1238,o),
(340,1198,c),
(340,1193,l),
(324,1212,o),
(313,1231,o),
(307,1252,c),
(297,1243,l),
(297,1178,ls),
(297,1150,o),
(300,1129,o),
(307,1114,c),
(302,1114,l),
(316,1067,o),
(330,1044,o),
(344,1044,cs),
(349,1044,l),
(349,1049,l),
(321,1084,l),
(321,1089,l),
(363,1044,l),
(363,1039,l),
(354,1039,l),
(354,1034,l),
(358,1029,l),
(337,990,o),
(326,966,o),
(326,955,c),
(277,860,o),
(249,755,o),
(241,642,cs),
(241,637,l),
(245,632,l),
(241,632,l),
(245,593,l),
(241,568,l),
(241,563,l),
(245,558,l),
(236,543,l),
(261,444,o),
(284,394,o),
(307,394,c),
(307,389,l),
(288,389,o),
(266,255,o),
(241,-12,c),
(245,-32,l),
(245,-131,l),
(241,-201,l),
(254,-291,o),
(268,-350,o),
(283,-379,c),
(283,-384,l),
(250,-384,l),
(250,-399,l),
(270,-399,o),
(300,-422,o),
(340,-469,c),
(340,-498,ls),
(340,-611,o),
(349,-667,o),
(368,-667,cs),
(373,-667,l),
(377,-662,l),
(363,-533,l),
(363,-479,l),
(373,-479,l),
(439,-507,o),
(472,-525,o),
(472,-533,c),
(522,-552,o),
(610,-567,o),
(735,-578,c),
(820,-568,l),
(825,-568,l),
(830,-573,l),
(834,-573,l),
(839,-568,l),
(872,-573,l),
(930,-573,o),
(1013,-540,o),
(1122,-474,c),
(1145,-493,l),
(1150,-493,l),
(1150,-469,l),
(1155,-449,l),
(1271,-437,o),
(1329,-422,o),
(1329,-404,cs),
(1329,-399,l),
(1324,-394,l),
(1256,-411,o),
(1211,-419,o),
(1188,-419,cs),
(1169,-419,l),
(1164,-379,l),
(1211,-235,l),
(1211,-226,ls),
(1211,-189,o),
(1180,-156,o),
(1117,-126,c),
(1117,-121,ls),
(1117,-105,o),
(1122,-89,o),
(1131,-72,c),
(1126,-72,l),
(1122,-67,l),
(1117,-67,ls),
(1108,-67,o),
(1103,-85,o),
(1103,-121,c),
(1046,-151,o),
(1018,-183,o),
(1018,-216,cs),
(1018,-221,l),
(1023,-226,l),
(1018,-231,l),
(1018,-235,l),
(1023,-240,l),
(1018,-245,l),
(1018,-285,l),
(967,-285,o),
(926,-288,o),
(896,-295,cs),
(453,-379,l),
(424,-379,l),
(462,-311,o),
(481,-237,o),
(481,-156,cs),
(481,-43,o),
(478,13,o),
(472,13,c),
(440,251,o),
(424,398,o),
(424,454,c),
(447,484,o),
(465,529,o),
(476,588,c),
(476,593,l),
(472,598,l),
(476,613,l),
(472,632,l),
(472,637,l),
(476,642,l),
(467,672,l),
(472,692,l),
(462,712,l),
(440,833,o),
(426,932,o),
(420,1009,c),
(424,1163,l),
(420,1178,l),
(410,1178,l),
(399,1148,o),
(385,1125,o),
(368,1109,c),
(363,1109,l),
(363,1128,l),
(391,1158,l),
(394,1178,o),
(402,1188,o),
(415,1188,c),
(406,1228,o),
(398,1248,o),
(391,1248,c),
(391,1230,o),
(377,1207,o),
(349,1178,c),
(349,1193,l),
(370,1230,o),
(384,1248,o),
(391,1248,c),
(368,1337,l),
(373,1337,l),
(523,1287,l),
(547,1302,l),
(603,1357,l),
(613,1357,l),
(603,1342,l),
(603,1337,l),
(632,1357,l),
(669,1342,l),
(669,1347,l),
(674,1352,l),
(674,1357,l),
(669,1362,l),
(635,1364,o),
(618,1369,o),
(618,1376,c),
(613,1376,l),
(608,1372,l),
(599,1372,l),
(585,1398,o),
(574,1411,o),
(566,1411,c),
(566,1416,l),
(570,1416,l),
(608,1386,l),
(608,1391,l),
(603,1396,l),
(603,1423,o),
(559,1436,o),
(472,1436,cs)
);
},
{
closed = 1;
nodes = (
(255,528,l),
(260,528,l),
(260,511,o),
(287,471,o),
(340,409,c),
(340,404,l),
(335,399,l),
(311,399,o),
(284,437,o),
(255,513,c)
);
},
{
closed = 1;
nodes = (
(255,613,l),
(305,534,o),
(332,485,o),
(335,464,c),
(335,459,l),
(326,459,l),
(326,466,o),
(315,481,o),
(293,504,c),
(275,543,o),
(264,563,o),
(260,563,c),
(264,588,l),
(255,608,l)
);
},
{
closed = 1;
nodes = (
(260,-206,l),
(264,-206,l),
(264,-240,o),
(286,-299,o),
(330,-384,c),
(307,-389,l),
(302,-384,l),
(287,-341,o),
(278,-320,o),
(274,-320,c),
(274,-315,l),
(278,-310,l),
(272,-302,o),
(266,-276,o),
(260,-231,c)
);
},
{
closed = 1;
nodes = (
(260,-141,l),
(264,-136,l),
(260,-87,l),
(260,-67,l),
(264,-67,l),
(264,-87,l),
(340,-320,l),
(340,-350,l),
(335,-350,l),
(335,-345,l),
(307,-284,o),
(282,-217,o),
(260,-146,c)
);
},
{
closed = 1;
nodes = (
(264,52,l),
(269,52,l),
(274,22,l),
(315,-91,o),
(335,-157,o),
(335,-176,cs),
(335,-226,l),
(330,-226,l),
(325,-193,o),
(321,-176,o),
(316,-176,c),
(288,-100,o),
(269,-31,o),
(260,32,c)
);
},
{
closed = 1;
nodes = (
(269,687,l),
(269,682,l),
(310,611,o),
(330,572,o),
(330,563,cs),
(330,533,l),
(283,604,o),
(260,656,o),
(260,687,c)
);
},
{
closed = 1;
nodes = (
(274,156,l),
(278,156,l),
(330,-32,l),
(330,-72,l),
(326,-72,l),
(291,32,o),
(274,98,o),
(274,127,cs)
);
},
{
closed = 1;
nodes = (
(274,747,o),
(277,752,o),
(283,752,c),
(326,647,l),
(326,628,l),
(321,628,l),
(299,668,o),
(283,704,o),
(274,737,c)
);
},
{
closed = 1;
nodes = (
(293,300,l),
(297,300,l),
(297,290,l),
(335,87,l),
(335,52,l),
(326,52,l),
(283,231,l)
);
},
{
closed = 1;
nodes = (
(286,833,o),
(291,846,o),
(297,846,c),
(297,831,o),
(308,795,o),
(330,737,c),
(330,702,l),
(326,702,l),
(283,806,l)
);
},
{
closed = 1;
nodes = (
(308,340,o),
(311,348,o),
(311,365,c),
(316,365,l),
(340,246,l),
(340,196,l),
(330,196,l),
(321,265,o),
(311,313,o),
(302,340,c)
);
},
{
closed = 1;
nodes = (
(311,890,l),
(321,890,l),
(340,821,l),
(340,796,l),
(330,796,l),
(307,871,l)
);
},
{
closed = 1;
nodes = (
(307,1183,l),
(311,1183,l),
(311,1173,l),
(307,1173,l)
);
},
{
closed = 1;
nodes = (
(311,1138,l),
(316,1138,l),
(316,1133,l),
(358,1074,l),
(358,1069,l),
(311,1124,l)
);
},
{
closed = 1;
nodes = (
(311,1208,l),
(316,1208,l),
(316,1203,l),
(335,1180,o),
(344,1165,o),
(344,1158,cs),
(344,1153,l),
(340,1153,l),
(311,1198,l)
);
},
{
closed = 1;
nodes = (
(321,1287,l),
(335,1252,l),
(335,1243,l),
(330,1243,l),
(324,1266,o),
(318,1277,o),
(311,1277,c)
);
},
{
closed = 1;
nodes = (
(316,1163,l),
(344,1133,l),
(344,1124,l),
(340,1124,ls),
(335,1124,o),
(327,1135,o),
(316,1158,c)
);
},
{
closed = 1;
nodes = (
(335,935,l),
(340,940,l),
(349,890,l),
(349,880,l),
(340,880,l),
(330,935,l)
);
},
{
closed = 1;
nodes = (
(330,1297,l),
(335,1297,l),
(335,1287,l),
(330,1287,l)
);
},
{
closed = 1;
nodes = (
(330,1342,l),
(335,1342,l),
(335,1332,l),
(330,1332,l)
);
},
{
closed = 1;
nodes = (
(340,-429,l),
(349,-439,l),
(344,-439,l),
(335,-429,l)
);
},
{
closed = 1;
nodes = (
(344,-404,l),
(377,-399,l),
(406,-404,l),
(401,-419,l),
(344,-409,l)
);
},
{
closed = 1;
nodes = (
(344,632,l),
(443,752,l),
(448,722,l),
(438,692,o),
(403,649,o),
(344,593,c)
);
},
{
closed = 1;
nodes = (
(344,697,l),
(429,811,l),
(434,771,l),
(344,667,l)
);
},
{
closed = 1;
nodes = (
(344,1277,l),
(357,1290,o),
(363,1302,o),
(363,1312,c),
(368,1312,l),
(373,1292,l),
(344,1262,l)
);
},
{
closed = 1;
nodes = (
(349,-72,l),
(358,-42,l),
(401,21,o),
(430,73,o),
(443,112,c),
(448,112,l),
(448,107,l),
(443,87,l),
(457,52,l),
(410,-47,l),
(373,-95,o),
(354,-125,o),
(354,-136,c),
(349,-136,l)
);
},
{
closed = 1;
nodes = (
(349,22,l),
(354,62,l),
(401,129,o),
(424,182,o),
(424,221,c),
(429,221,l),
(434,171,l),
(434,151,l),
(443,137,l),
(434,137,o),
(429,130,o),
(429,117,c),
(354,-12,l),
(349,-12,l)
);
},
{
closed = 1;
nodes = (
(349,112,l),
(354,117,l),
(354,176,l),
(358,206,l),
(396,259,o),
(415,293,o),
(415,310,c),
(420,310,l),
(429,241,l),
(429,236,l),
(424,241,l),
(418,241,o),
(407,216,o),
(391,166,c),
(369,135,o),
(358,116,o),
(358,107,c),
(349,107,l)
);
},
{
closed = 1;
nodes = (
(349,563,l),
(412,632,o),
(443,673,o),
(443,687,c),
(453,687,l),
(457,662,l),
(433,615,o),
(397,565,o),
(349,513,c)
);
},
{
closed = 1;
nodes = (
(354,791,l),
(391,836,o),
(410,863,o),
(410,871,c),
(420,871,l),
(424,836,l),
(420,836,l),
(399,793,o),
(376,762,o),
(349,742,c)
);
},
{
closed = 1;
nodes = (
(349,1228,ls),
(349,1244,o),
(357,1259,o),
(373,1272,c),
(377,1272,l),
(354,1218,l),
(349,1218,l)
);
},
{
closed = 1;
nodes = (
(349,1312,l),
(354,1342,l),
(358,1342,l),
(358,1332,l),
(354,1307,l),
(349,1307,l)
);
},
{
closed = 1;
nodes = (
(349,1357,l),
(354,1357,l),
(354,1347,l),
(349,1347,l)
);
},
{
closed = 1;
nodes = (
(354,-186,l),
(368,-146,l),
(421,-76,o),
(448,-26,o),
(448,3,c),
(453,3,l),
(462,-17,l),
(462,-37,l),
(448,-87,l),
(358,-265,l),
(354,-265,l)
);
},
{
closed = 1;
nodes = (
(354,424,l),
(417,502,o),
(448,545,o),
(448,553,c),
(453,553,l),
(453,548,l),
(444,510,o),
(413,462,o),
(358,404,c),
(354,404,l)
);
},
{
closed = 1;
nodes = (
(354,484,l),
(403,544,o),
(439,595,o),
(462,637,c),
(462,593,o),
(426,534,o),
(354,459,c)
);
},
{
closed = 1;
nodes = (
(358,965,l),
(354,985,l),
(354,1000,l),
(363,1000,l),
(363,950,l),
(354,950,l)
);
},
{
closed = 1;
nodes = (
(354,1158,l),
(379,1190,o),
(391,1210,o),
(391,1218,c),
(396,1218,l),
(401,1203,l),
(363,1143,l),
(354,1153,l)
);
},
{
closed = 1;
nodes = (
(358,-627,l),
(363,-627,l),
(363,-637,l),
(358,-637,l)
);
},
{
closed = 1;
nodes = (
(358,-315,l),
(363,-295,l),
(429,-187,o),
(462,-116,o),
(462,-82,c),
(467,-82,l),
(467,-87,l),
(462,-116,l),
(467,-146,l),
(440,-216,o),
(405,-286,o),
(363,-355,c),
(358,-355,l)
);
},
{
closed = 1;
nodes = (
(363,320,l),
(392,360,o),
(406,390,o),
(406,409,c),
(415,409,l),
(415,404,l),
(410,399,l),
(410,365,l),
(420,350,l),
(420,345,l),
(413,345,o),
(397,318,o),
(373,265,c),
(368,265,l),
(358,300,l)
);
},
{
closed = 1;
nodes = (
(358,841,l),
(363,871,l),
(392,900,o),
(406,921,o),
(406,935,c),
(410,935,l),
(415,895,l),
(363,836,l),
(358,836,l)
);
},
{
closed = 1;
nodes = (
(377,1367,l),
(387,1367,l),
(387,1362,l),
(378,1362,o),
(373,1357,o),
(373,1347,c),
(368,1347,l),
(363,1362,l)
);
},
{
closed = 1;
nodes = (
(363,1381,l),
(373,1381,l),
(373,1376,l),
(363,1376,l)
);
},
{
closed = 1;
nodes = (
(368,1084,l),
(396,1119,o),
(410,1144,o),
(410,1158,c),
(415,1158,l),
(415,1148,l),
(400,1108,o),
(386,1085,o),
(373,1079,c),
(368,1079,l)
);
},
{
closed = 1;
nodes = (
(373,-454,l),
(429,-449,l),
(439,-449,l),
(439,-456,o),
(422,-461,o),
(387,-464,c),
(373,-459,l)
);
},
{
closed = 1;
nodes = (
(429,-282,o),
(457,-224,o),
(457,-211,c),
(462,-211,l),
(462,-216,l),
(435,-328,o),
(413,-384,o),
(396,-384,cs),
(373,-384,l)
);
},
{
closed = 1;
nodes = (
(373,394,l),
(391,414,l),
(385,391,o),
(379,380,o),
(373,380,c)
);
},
{
closed = 1;
nodes = (
(373,930,o),
(381,955,o),
(396,985,c),
(406,985,l),
(406,960,l),
(373,910,l)
);
},
{
closed = 1;
nodes = (
(398,1081,o),
(410,1101,o),
(410,1114,c),
(415,1114,l),
(415,1109,l),
(382,1044,l),
(373,1054,l)
);
},
{
closed = 1;
nodes = (
(377,1347,l),
(410,1372,l),
(420,1372,l),
(391,1342,l),
(377,1342,l)
);
},
{
closed = 1;
nodes = (
(377,1396,l),
(406,1386,l),
(406,1381,l),
(401,1381,l),
(377,1386,l)
);
},
{
closed = 1;
nodes = (
(401,1044,l),
(406,1044,l),
(406,1039,ls),
(404,1013,o),
(399,1000,o),
(391,1000,c)
);
},
{
closed = 1;
nodes = (
(401,1342,l),
(410,1342,l),
(426,1362,o),
(440,1372,o),
(453,1372,cs),
(457,1372,l),
(424,1332,l),
(401,1337,l)
);
},
{
closed = 1;
nodes = (
(401,1406,l),
(439,1391,l),
(439,1386,l),
(420,1386,l),
(401,1396,l)
);
},
{
closed = 1;
nodes = (
(424,-479,l),
(533,-459,l),
(533,-469,l),
(443,-488,l),
(424,-483,l)
);
},
{
closed = 1;
nodes = (
(424,-399,l),
(453,-399,l),
(476,-394,l),
(476,-404,l),
(509,-434,l),
(509,-439,l),
(457,-429,l),
(445,-416,o),
(434,-409,o),
(424,-409,c)
);
},
{
closed = 1;
nodes = (
(439,1416,l),
(481,1391,l),
(481,1386,l),
(472,1386,ls),
(455,1386,o),
(439,1396,o),
(424,1416,c)
);
},
{
closed = 1;
nodes = (
(481,1372,l),
(490,1372,l),
(453,1322,l),
(434,1327,l)
);
},
{
closed = 1;
nodes = (
(491,1354,o),
(508,1372,o),
(514,1372,cs),
(519,1372,l),
(523,1367,l),
(521,1358,o),
(505,1340,o),
(476,1312,c),
(462,1317,l)
);
},
{
closed = 1;
nodes = (
(482,1416,o),
(496,1406,o),
(509,1386,c),
(492,1386,o),
(478,1396,o),
(467,1416,c)
);
},
{
closed = 1;
nodes = (
(481,-498,l),
(498,-498,o),
(520,-492,o),
(547,-479,c),
(547,-483,l),
(599,-469,l),
(603,-474,l),
(608,-474,l),
(613,-469,l),
(632,-469,l),
(632,-474,l),
(486,-513,l),
(486,-508,l),
(481,-503,l)
);
},
{
closed = 1;
nodes = (
(486,1312,l),
(490,1312,l),
(522,1349,o),
(541,1367,o),
(547,1367,c),
(547,1362,l),
(556,1362,l),
(551,1344,o),
(532,1326,o),
(500,1307,c),
(486,1307,l)
);
},
{
closed = 1;
nodes = (
(486,1431,l),
(519,1412,o),
(540,1395,o),
(547,1381,c),
(533,1381,l),
(486,1421,l)
);
},
{
closed = 1;
nodes = (
(500,-384,l),
(556,-379,l),
(599,-444,l),
(599,-449,l),
(555,-449,o),
(533,-436,o),
(533,-409,c),
(517,-402,o),
(509,-396,o),
(509,-389,c),
(500,-389,l)
);
},
{
closed = 1;
nodes = (
(519,1307,l),
(575,1362,l),
(580,1362,l),
(585,1357,l),
(585,1349,o),
(564,1329,o),
(523,1297,c),
(519,1297,l)
);
},
{
closed = 1;
nodes = (
(528,-523,l),
(542,-518,l),
(542,-523,l),
(634,-490,o),
(689,-474,o),
(707,-474,cs),
(731,-474,l),
(731,-479,l),
(638,-515,o),
(578,-533,o),
(552,-533,cs),
(528,-533,l)
);
},
{
closed = 1;
nodes = (
(538,1421,l),
(553,1413,o),
(570,1397,o),
(589,1372,c),
(573,1372,o),
(553,1388,o),
(528,1421,c)
);
},
{
closed = 1;
nodes = (
(575,-374,l),
(641,-364,l),
(641,-377,o),
(654,-389,o),
(679,-399,c),
(702,-439,l),
(702,-449,l),
(636,-449,l),
(632,-444,l),
(617,-401,o),
(598,-379,o),
(575,-379,c)
);
},
{
closed = 1;
nodes = (
(589,1317,l),
(603,1332,l),
(603,1337,l),
(599,1337,l),
(580,1317,l)
);
},
{
closed = 1;
nodes = (
(632,-538,l),
(801,-469,l),
(801,-474,l),
(815,-469,l),
(830,-469,l),
(830,-474,l),
(761,-507,o),
(698,-530,o),
(641,-543,c),
(632,-543,l)
);
},
{
closed = 1;
nodes = (
(707,-350,l),
(726,-350,l),
(745,-359,l),
(797,-449,l),
(750,-449,l),
(721,-424,l),
(721,-399,o),
(705,-377,o),
(674,-359,c)
);
},
{
closed = 1;
nodes = (
(702,-548,l),
(740,-538,l),
(845,-485,o),
(908,-459,o),
(929,-459,c),
(933,-464,l),
(938,-464,l),
(943,-459,l),
(943,-469,l),
(924,-474,l),
(813,-527,o),
(743,-553,o),
(712,-553,cs),
(702,-553,l)
);
},
{
closed = 1;
nodes = (
(764,-335,l),
(811,-325,l),
(818,-336,o),
(832,-348,o),
(853,-359,c),
(853,-374,o),
(858,-384,o),
(867,-389,c),
(870,-405,o),
(879,-422,o),
(896,-439,c),
(896,-444,l),
(863,-444,l),
(839,-449,l),
(830,-439,l),
(764,-340,l)
);
},
{
closed = 1;
nodes = (
(801,-548,l),
(877,-518,l),
(1042,-449,l),
(1046,-449,l),
(1046,-454,l),
(933,-520,o),
(853,-553,o),
(806,-553,cs),
(801,-553,l)
);
},
{
closed = 1;
nodes = (
(844,-320,l),
(877,-310,l),
(889,-310,o),
(919,-331,o),
(966,-374,c),
(974,-399,o),
(984,-418,o),
(995,-429,c),
(995,-434,l),
(966,-439,l),
(947,-434,l),
(943,-434,l),
(938,-439,l),
(905,-414,l),
(905,-409,l),
(910,-404,l),
(900,-384,ls),
(881,-345,o),
(862,-325,o),
(844,-325,c)
);
},
{
closed = 1;
nodes = (
(914,-543,l),
(947,-535,o),
(1013,-502,o),
(1112,-444,c),
(1122,-444,l),
(1074,-493,o),
(1006,-527,o),
(919,-548,c),
(914,-548,l)
);
},
{
closed = 1;
nodes = (
(924,-305,l),
(976,-300,l),
(1042,-364,l),
(1049,-389,o),
(1060,-409,o),
(1075,-424,c),
(1046,-429,l),
(1023,-414,l),
(1023,-404,o),
(1020,-399,o),
(1013,-399,c),
(983,-340,o),
(953,-310,o),
(924,-310,c)
);
},
{
closed = 1;
nodes = (
(1066,-310,o),
(1106,-343,o),
(1145,-409,c),
(1145,-419,l),
(1131,-419,l),
(1108,-424,l),
(1093,-409,l),
(1092,-391,o),
(1070,-358,o),
(1027,-310,c)
);
},
{
closed = 1;
nodes = (
(1050,-242,o),
(1072,-218,o),
(1093,-201,c),
(1093,-226,l),
(1056,-260,o),
(1037,-281,o),
(1037,-290,c),
(1032,-290,l),
(1027,-275,l)
);
},
{
closed = 1;
nodes = (
(1027,-220,o),
(1052,-190,o),
(1103,-161,c),
(1103,-171,l),
(1027,-250,l)
);
},
{
closed = 1;
nodes = (
(1032,-196,l),
(1058,-156,o),
(1080,-136,o),
(1098,-136,cs),
(1103,-136,l),
(1103,-141,l),
(1032,-206,l)
);
},
{
closed = 1;
nodes = (
(1051,-285,l),
(1089,-245,l),
(1089,-250,ls),
(1089,-269,o),
(1079,-284,o),
(1060,-295,c),
(1051,-295,l)
);
},
{
closed = 1;
nodes = (
(1075,-295,l),
(1090,-290,o),
(1098,-280,o),
(1098,-265,c),
(1178,-315,l),
(1165,-336,o),
(1159,-354,o),
(1159,-369,c),
(1155,-369,l),
(1136,-352,o),
(1121,-333,o),
(1112,-310,c),
(1126,-310,l),
(1108,-295,l),
(1079,-300,l),
(1075,-300,l)
);
},
{
closed = 1;
nodes = (
(1103,-231,l),
(1108,-231,l),
(1183,-285,l),
(1188,-285,l),
(1183,-310,l),
(1103,-250,l)
);
},
{
closed = 1;
nodes = (
(1108,-191,l),
(1112,-191,l),
(1148,-213,o),
(1175,-236,o),
(1192,-260,c),
(1192,-270,l),
(1188,-275,l),
(1108,-216,l)
);
},
{
closed = 1;
nodes = (
(1112,-161,l),
(1202,-226,l),
(1197,-250,l),
(1192,-250,l),
(1192,-239,o),
(1165,-215,o),
(1112,-176,c)
);
},
{
closed = 1;
nodes = (
(1112,-141,l),
(1117,-136,l),
(1152,-149,o),
(1179,-172,o),
(1197,-206,c),
(1197,-211,l),
(1112,-146,l)
);
},
{
closed = 1;
nodes = (
(1150,-345,l),
(1159,-345,l),
(1159,-332,o),
(1153,-322,o),
(1141,-315,c),
(1131,-315,l)
);
},
{
closed = 1;
nodes = (
(1136,-459,l),
(1141,-459,l),
(1141,-469,l),
(1136,-469,l)
);
}
);
width = 636;
}
);
note = uni17D2_179A;
},
